<svg width="18" height="18" viewBox="0 0 18 18" fill="none" xmlns="http://www.w3.org/2000/svg">
<g clip-path="url(#clip0_57_5384)">
<path d="M0.24707 6.41797H17.7345V11.2756H0.24707V6.41797Z" fill="#E00034"/>
<path d="M15.7915 2.5318H2.19012C1.67479 2.5318 1.18057 2.73651 0.816176 3.10091C0.451784 3.4653 0.24707 3.95952 0.24707 4.47485L0.24707 6.4179H17.7345V4.47485C17.7345 3.95952 17.5298 3.4653 17.1654 3.10091C16.801 2.73651 16.3068 2.5318 15.7915 2.5318Z" fill="#0098C3"/>
<path d="M8.91547 10.4659C8.64567 10.4659 8.38014 10.3985 8.14302 10.2698C7.9059 10.1411 7.70469 9.95523 7.5577 9.72899C7.4107 9.50276 7.32257 9.24337 7.30131 8.97442C7.28006 8.70546 7.32635 8.43545 7.43599 8.18894C7.54562 7.94242 7.71513 7.72721 7.92909 7.56286C8.14306 7.39852 8.3947 7.29025 8.66115 7.24789C8.9276 7.20554 9.20041 7.23044 9.45479 7.32034C9.70917 7.41023 9.93705 7.56227 10.1177 7.76264C9.88532 7.41718 9.54808 7.1555 9.15572 7.01618C8.76335 6.87686 8.33661 6.86726 7.93838 6.9888C7.54014 7.11033 7.19148 7.35658 6.94377 7.69124C6.69606 8.02591 6.56241 8.43129 6.5625 8.84766C6.56259 9.26403 6.69643 9.66935 6.94429 10.0039C7.19215 10.3385 7.54092 10.5845 7.93921 10.7059C8.3375 10.8273 8.76423 10.8175 9.15654 10.678C9.54884 10.5385 9.88596 10.2767 10.1182 9.93108C9.96652 10.0997 9.78102 10.2344 9.57379 10.3266C9.36657 10.4187 9.14226 10.4662 8.91547 10.4659Z" fill="white"/>
<path d="M11.7442 8.84591L11.1632 8.63995L11.4275 8.08326L10.8708 8.348L10.6638 7.76752L10.4579 8.34849L10.4564 8.34752L9.90071 8.08423L10.1659 8.64092L9.58496 8.84785L10.1659 9.05382L9.90168 9.6105L10.4559 9.34673L10.4584 9.34576L10.6653 9.92624L10.8713 9.34527L11.4284 9.60953L11.1632 9.05284L11.7442 8.84591Z" fill="white"/>
<path d="M2.19012 15.1616H15.7915C16.3068 15.1616 16.801 14.9569 17.1654 14.5925C17.5298 14.2281 17.7345 13.7339 17.7345 13.2185V11.2755H0.24707V13.2185C0.24707 13.7339 0.451784 14.2281 0.816176 14.5925C1.18057 14.9569 1.67479 15.1616 2.19012 15.1616Z" fill="#00AE65"/>
</g>
<defs>
<clipPath id="clip0_57_5384">
<rect width="17.4874" height="17.4874" fill="white" transform="translate(0.24707 0.103027)"/>
</clipPath>
</defs>
</svg>
