<svg width="26" height="26" viewBox="0 0 26 26" fill="none" xmlns="http://www.w3.org/2000/svg">
<rect width="26" height="26" rx="7.09091" fill="#60F486"/>
<path d="M5.02246 10.3915V16.9887C5.02246 17.6939 5.30261 18.3702 5.80129 18.8689C6.29997 19.3676 6.97632 19.6477 7.68155 19.6477H18.3179C19.0231 19.6477 19.6995 19.3676 20.1982 18.8689C20.6969 18.3702 20.977 17.6939 20.977 16.9887V9.01139C20.977 8.30615 20.6969 7.6298 20.1982 7.13112C19.6995 6.63245 19.0231 6.35229 18.3179 6.35229H7.68155C6.97632 6.35229 6.29997 6.63245 5.80129 7.13112C5.30261 7.6298 5.02246 8.30615 5.02246 9.01139V10.3915ZM7.68155 7.68184H18.3179C18.6705 7.68184 19.0087 7.82192 19.258 8.07126C19.5074 8.32059 19.6475 8.65877 19.6475 9.01139V9.99525L12.9997 13.5744L6.35201 9.99525V9.01139C6.35201 8.65877 6.49208 8.32059 6.74142 8.07126C6.99076 7.82192 7.32893 7.68184 7.68155 7.68184ZM6.35201 11.5056L12.6846 14.9146C12.7815 14.9667 12.8897 14.994 12.9997 14.994C13.1097 14.994 13.218 14.9667 13.3148 14.9146L19.6475 11.5056V16.9887C19.6475 17.3413 19.5074 17.6795 19.258 17.9288C19.0087 18.1781 18.6705 18.3182 18.3179 18.3182H7.68155C7.32893 18.3182 6.99076 18.1781 6.74142 17.9288C6.49208 17.6795 6.35201 17.3413 6.35201 16.9887V11.5056Z" fill="white"/>
</svg>
