<svg width="34" height="34" viewBox="0 0 34 34" fill="none" xmlns="http://www.w3.org/2000/svg">
<g filter="url(#filter0_d_211_4419)">
<rect x="4" width="26" height="26" rx="7.09091" fill="#60F486"/>
<path d="M22.909 20.6818H22.8086C11.1972 20.014 9.54858 10.2168 9.31813 7.22675C9.29956 6.99428 9.32704 6.76042 9.39901 6.53859C9.47097 6.31675 9.586 6.11129 9.73751 5.93399C9.88901 5.75669 10.074 5.61102 10.2819 5.50534C10.4898 5.39966 10.7165 5.33603 10.949 5.31812H14.2049C14.4416 5.31789 14.6729 5.38874 14.8689 5.52148C15.0649 5.65423 15.2165 5.84277 15.304 6.06266L16.2022 8.27266C16.2887 8.48748 16.3102 8.72298 16.2639 8.9499C16.2177 9.17681 16.1058 9.38515 15.9422 9.54902L14.6836 10.8195C14.8802 11.9367 15.4152 12.9666 16.2163 13.7699C17.0174 14.5731 18.0459 15.1108 19.1627 15.3104L20.4449 14.0399C20.6113 13.8781 20.8216 13.7689 21.0496 13.7258C21.2776 13.6827 21.5133 13.7077 21.7272 13.7977L23.9549 14.6899C24.1715 14.7803 24.3563 14.933 24.4857 15.1288C24.6152 15.3245 24.6834 15.5544 24.6818 15.789V18.909C24.6818 19.3792 24.495 19.8301 24.1625 20.1625C23.8301 20.495 23.3792 20.6818 22.909 20.6818ZM11.0909 6.49993C10.9341 6.49993 10.7838 6.56219 10.673 6.67301C10.5622 6.78382 10.4999 6.93412 10.4999 7.09084V7.13812C10.7718 10.6363 12.5149 18.909 22.8736 19.4999C22.9512 19.5047 23.029 19.4942 23.1026 19.4688C23.1761 19.4435 23.2439 19.4039 23.3021 19.3523C23.3603 19.3007 23.4077 19.2381 23.4417 19.1681C23.4756 19.0981 23.4954 19.0221 23.4999 18.9445V15.789L21.2722 14.8968L19.5763 16.5808L19.2927 16.5454C14.1518 15.9013 13.4545 10.7604 13.4545 10.7072L13.419 10.4236L15.0972 8.72766L14.2109 6.49993H11.0909Z" fill="white"/>
</g>
<defs>
<filter id="filter0_d_211_4419" x="0" y="0" width="34" height="34" filterUnits="userSpaceOnUse" color-interpolation-filters="sRGB">
<feFlood flood-opacity="0" result="BackgroundImageFix"/>
<feColorMatrix in="SourceAlpha" type="matrix" values="0 0 0 0 0 0 0 0 0 0 0 0 0 0 0 0 0 0 127 0" result="hardAlpha"/>
<feOffset dy="4"/>
<feGaussianBlur stdDeviation="2"/>
<feComposite in2="hardAlpha" operator="out"/>
<feColorMatrix type="matrix" values="0 0 0 0 0 0 0 0 0 0 0 0 0 0 0 0 0 0 0.25 0"/>
<feBlend mode="normal" in2="BackgroundImageFix" result="effect1_dropShadow_211_4419"/>
<feBlend mode="normal" in="SourceGraphic" in2="effect1_dropShadow_211_4419" result="shape"/>
</filter>
</defs>
</svg>
