<svg width="288" height="307" viewBox="0 0 288 307" fill="none" xmlns="http://www.w3.org/2000/svg">
<circle cx="144" cy="162.4" r="110" fill="#432564" fill-opacity="0.1"/>
<path d="M7.00001 162.4C7.00001 86.7374 68.337 25.4004 144 25.4004C219.663 25.4004 281 86.7374 281 162.4C281 238.063 219.663 299.4 144 299.4C68.337 299.4 7.00001 238.063 7.00001 162.4Z" stroke="#432564" stroke-opacity="0.62" stroke-width="13.6684" stroke-miterlimit="3.68918" stroke-linecap="round" stroke-linejoin="round" stroke-dasharray="41.01 41.01"/>
<path d="M128.031 182.073C131.399 198.449 166.568 217.873 166.779 220.088C166.956 222.007 166.813 223.935 166.846 225.864C167.124 242.097 179.392 255.366 185.058 270.589C185.361 271.389 185.715 272.29 186.506 272.627C187.07 272.871 187.719 272.753 188.325 272.635C190.413 272.223 192.501 271.819 194.589 271.406C191.684 243.68 190.683 236.792 182.381 210.186L140.652 158.295L128.031 182.073Z" fill="#D9C7C2"/>
<path d="M129.749 178.966C133.908 184.75 138.446 190.265 143.321 195.46C148.222 200.672 153.467 205.505 158.974 210.068C161.617 212.257 164.286 214.514 166.223 217.376C168.286 220.441 169.33 224.07 170.492 227.539C172.984 235.007 175.392 242.501 177.724 250.02C180.065 257.572 182.321 265.142 184.502 272.736C184.772 273.679 185.041 274.631 185.31 275.574C185.378 275.818 185.765 275.717 185.698 275.464C183.534 267.828 181.286 260.224 178.954 252.638C176.63 245.086 174.23 237.55 171.746 230.048C170.584 226.537 169.566 222.883 167.932 219.557C166.417 216.459 164.11 213.966 161.533 211.71C158.881 209.386 156.111 207.189 153.484 204.831C150.806 202.431 148.213 199.939 145.696 197.363C140.661 192.201 135.971 186.712 131.668 180.927C131.138 180.212 130.607 179.488 130.085 178.763C129.942 178.561 129.597 178.755 129.749 178.966Z" fill="white"/>
<path d="M130.321 172.449C136.164 178.343 141.898 184.346 147.522 190.45C153.121 196.529 158.619 202.709 163.991 208.991C169.077 214.935 174.044 221.081 177.682 228.044C181.361 235.109 183.559 242.821 185.361 250.542C187.263 258.717 188.829 266.977 190.076 275.279C190.227 276.306 190.379 277.342 190.522 278.369C190.556 278.622 190.943 278.512 190.909 278.26C189.73 269.84 188.223 261.462 186.371 253.169C184.645 245.431 182.658 237.685 179.315 230.461C176.048 223.388 171.358 217.141 166.382 211.188C161.078 204.856 155.588 198.676 150.014 192.572C144.373 186.392 138.623 180.313 132.762 174.343C132.047 173.611 131.323 172.887 130.607 172.154C130.422 171.986 130.135 172.264 130.321 172.449Z" fill="white"/>
<path d="M132.704 161.857C137.73 168.399 143.447 174.377 149.232 180.254C155.016 186.131 160.893 191.94 166.256 198.221C171.594 204.477 176.402 211.23 179.863 218.715C183.896 227.446 186.043 236.902 187.735 246.332C189.529 256.318 191.103 266.337 192.77 276.348C192.981 277.586 193.183 278.824 193.393 280.07C193.435 280.322 193.823 280.213 193.78 279.96C192.097 269.857 190.455 259.753 188.729 249.658C187.112 240.228 185.243 230.747 181.648 221.847C178.532 214.126 174.019 207.121 168.799 200.663C163.596 194.231 157.778 188.345 151.968 182.468C146.133 176.566 140.29 170.647 135.053 164.197C134.371 163.364 133.706 162.513 133.049 161.663C132.897 161.452 132.552 161.646 132.704 161.857Z" fill="white"/>
<path d="M123.788 170.302C116.227 185.205 109.239 200.411 102.865 215.861C102.014 217.915 101.172 219.995 99.9516 221.856C98.8991 223.464 97.5856 224.887 96.4069 226.419C86.5137 239.293 87.844 257.32 82.8006 272.753C82.5312 273.57 82.2533 274.496 82.6659 275.245C82.9605 275.793 83.5331 276.104 84.0804 276.391C85.9664 277.376 87.8609 278.352 89.7469 279.337C104.742 255.838 117.397 230.857 127.476 204.865L123.788 170.302Z" fill="#D9C7C2"/>
<path d="M126.17 176.861C122.322 184.691 118.475 192.513 114.627 200.343C110.905 207.913 107.285 215.541 102.772 222.673C100.574 226.15 98.2672 229.56 96.2549 233.147C94.2931 236.649 92.6512 240.32 91.2115 244.067C88.2477 251.813 86.067 259.846 83.7094 267.785C81.234 276.129 78.7671 284.473 76.2916 292.809C75.9801 293.87 75.6602 294.931 75.3486 295.992C75.2729 296.236 75.6602 296.345 75.736 296.101C78.2114 287.757 80.6784 279.413 83.1538 271.078C85.5197 263.087 87.7173 255.021 90.4958 247.166C91.8598 243.318 93.3922 239.52 95.2445 235.883C97.1053 232.229 99.3197 228.777 101.542 225.333C103.791 221.847 105.946 218.32 107.899 214.665C109.878 210.961 111.714 207.18 113.566 203.417C117.414 195.586 121.262 187.764 125.109 179.934C125.581 178.974 126.052 178.023 126.524 177.063C126.625 176.827 126.288 176.625 126.17 176.861Z" fill="white"/>
<path d="M127.626 183.058C125.311 189.894 122.507 196.546 119.409 203.063C116.327 209.529 112.967 215.861 109.498 222.125C106.021 228.415 102.451 234.645 98.9486 240.918C95.4375 247.199 92.0023 253.531 88.8196 259.989C85.679 266.362 82.7911 272.871 80.3409 279.539C80.0378 280.373 79.7431 281.198 79.4484 282.04C79.3642 282.284 79.7516 282.385 79.8357 282.15C82.2017 275.33 85.056 268.695 88.1881 262.195C91.3034 255.737 94.6882 249.422 98.1655 243.158C101.651 236.877 105.23 230.646 108.724 224.365C112.226 218.075 115.645 211.744 118.794 205.277C121.901 198.895 124.755 192.37 127.146 185.685C127.441 184.851 127.736 184.017 128.014 183.184C128.098 182.923 127.71 182.813 127.626 183.058Z" fill="white"/>
<path d="M130.574 193.759C127.459 199.586 124.343 205.42 121.22 211.247C118.087 217.107 114.955 222.959 111.823 228.819C108.708 234.645 105.593 240.48 102.469 246.307C99.3536 252.133 96.2383 257.968 93.1145 263.794C89.9992 269.621 86.8839 275.456 83.7602 281.282C83.3645 282.023 82.9687 282.756 82.573 283.497C82.4551 283.724 82.8004 283.926 82.9182 283.699C86.0335 277.872 89.1488 272.037 92.2726 266.211C95.4047 260.351 98.5368 254.499 101.669 248.639C104.784 242.812 107.9 236.978 111.023 231.151C114.147 225.325 117.254 219.49 120.378 213.663C123.493 207.837 126.608 202.002 129.732 196.176C130.128 195.435 130.523 194.702 130.919 193.961C131.037 193.734 130.692 193.532 130.574 193.759Z" fill="white"/>
<path d="M104.902 93.9177C104.911 90.3141 106.165 86.7946 107.959 83.6709C109.752 80.5472 112.076 77.7602 114.425 75.0238C117.684 80.8755 117.49 88.4954 113.928 94.1703L104.902 93.9177Z" fill="#56480D"/>
<path d="M184.637 82.3491C182.54 77.8193 179.08 71.1761 174.095 71.3529C173.127 71.3866 172.142 71.5297 171.199 71.3276C170.845 74.7292 172.302 78.2739 174.954 80.4462C177.606 82.6101 181.37 83.3847 184.637 82.3491Z" fill="#56480D"/>
<path d="M167.975 101.546C171.301 98.2118 174.425 94.6587 177.296 90.9203C179.443 88.1334 187.711 75.9163 188.444 72.4726C188.999 69.8625 179.435 48.99 177.447 36.7056C177.212 35.2742 176.984 33.7671 177.473 32.4031C177.885 31.2496 178.786 30.2729 178.929 29.052C179.072 27.8312 177.692 26.4335 176.74 27.2081C176.799 26.223 176.85 25.1958 176.479 24.278C176.1 23.3603 175.166 22.6025 174.189 22.7709C174.433 21.9289 174.349 20.9943 173.945 20.2197C173.128 20.1103 172.278 20.3292 171.621 20.8175C172.219 19.5546 170.383 18.2663 169.087 18.7799C167.79 19.2936 167.15 20.7333 166.695 22.0552C166.249 23.3771 165.778 24.8337 164.607 25.5915C163.125 25.1958 160.936 25.2379 160.751 26.7619C160.675 27.3765 161.029 27.949 161.366 28.4626C163.168 31.1738 165.197 33.725 167.428 36.0994C168.245 36.9666 169.104 37.8422 169.575 38.9368C170.013 39.9556 170.08 41.0923 170.139 42.2037C170.72 53.1914 172.21 71.277 171.848 72.3295C171.495 73.3399 161.854 90.6172 157.838 95.3407L167.975 101.546Z" fill="#FBD1B9"/>
<path d="M132.645 92.158C128.528 89.91 118.323 79.4274 112.909 75.5627C111.545 74.5861 103.672 52.6105 101.862 47.1882C101.408 45.8242 100.944 44.4013 101.096 42.9615C101.306 41.0166 102.628 39.3073 102.696 37.3455C102.772 35.1143 100.928 32.9925 98.7553 32.8157C98.6122 31.898 98.0396 31.0644 97.2566 30.6097C95.8421 29.8015 94.0823 30.273 92.5331 30.7613C91.6406 31.0392 90.5376 31.9148 91.0933 32.6726C89.6451 31.7548 85.772 36.0489 86.4456 37.6571C85.5868 37.7244 85.0059 38.6759 85.0059 39.5599C85.0143 40.444 85.4353 41.2607 85.8478 42.0353C87.5318 45.2685 90.7818 46.2199 91.7501 49.7394C92.7773 53.4778 93.1814 57.3508 93.7287 61.1902C94.4696 66.3515 95.4884 71.4707 96.7766 76.5226C97.3492 78.7875 97.9891 81.044 99.0163 83.1321C101.012 87.182 104.346 90.3478 107.663 93.3537C114.576 99.6179 121.707 105.63 129.041 111.372L132.645 92.158Z" fill="#FBD1B9"/>
<path d="M149.477 83.6794C143.751 87.5441 117.995 77.4235 114.594 74.8976C112.043 90.2047 104.802 93.5474 105.122 93.9347C109.988 99.9548 120.597 105.722 127.097 109.924C128.133 110.597 135.517 133.078 131.896 148.293C144.383 148.798 161.307 147.602 160.675 147.627C157.307 151.534 165.862 132.303 169.061 115.253C169.474 113.064 168.623 104.636 169.053 104.064C176.176 94.7009 178.668 92.478 184.646 82.3407C178.634 82.4922 176.125 78.2066 171.158 71.3866L149.477 83.6794Z" fill="#9A8728"/>
<path d="M126.608 91.8634C127.206 93.5979 127.804 95.3323 128.402 97.0668C128.435 97.1678 128.478 97.2689 128.553 97.3446C128.646 97.4288 128.781 97.4541 128.899 97.4709C130.625 97.7235 132.384 97.8077 134.127 97.7235C134.077 95.5091 133.732 93.3116 133.1 91.1898C130.945 91.2993 128.789 91.4087 126.634 91.5182L126.608 91.8634Z" fill="#F7D8C9"/>
<path d="M155.674 93.8503C155.649 96.2752 155.657 98.6917 155.708 101.117C157.392 101.234 159.076 101.277 160.759 101.218C160.953 101.209 161.172 101.192 161.307 101.058C161.433 100.931 161.458 100.746 161.475 100.569C161.77 97.8076 161.964 95.0291 162.048 92.259C160.541 92.158 159.042 91.9054 157.585 91.5012L155.674 93.8503Z" fill="#F7D8C9"/>
<path d="M163.369 74.4767C164.548 81.263 164.127 88.3187 162.157 94.9198C162.081 95.1724 161.988 95.4418 161.778 95.6018C161.576 95.7533 161.315 95.7702 161.062 95.787C158.966 95.9049 156.869 95.8628 154.781 95.6691C154.511 95.6439 154.208 95.6018 154.023 95.3997C153.872 95.2229 153.846 94.9703 153.821 94.7346C153.206 86.9547 151.842 79.2422 149.763 71.7234C154.208 71.6224 158.654 71.5213 163.091 71.4203L163.369 74.4767Z" fill="#D9C7C2"/>
<path d="M141.84 49.0321C146.471 41.9174 155.665 38.179 163.538 40.8649C171.418 43.5508 176.908 52.9051 174.955 61.2828C174.264 64.2297 172.766 66.8987 171.082 69.3489C162.957 81.1534 160.986 76.4467 153.105 79.0821L141.84 49.0321Z" fill="#C69C6D"/>
<path d="M120.697 33.7419C118.163 35.6279 113.919 34.2471 112.985 31.2244C112.791 30.6014 112.749 29.8436 113.195 29.3637C113.642 28.8837 114.669 29.0774 114.686 29.7341C113.389 30.5677 111.562 30.4666 110.358 29.5152C109.145 28.5554 108.64 26.8041 109.154 25.3474C107.411 24.4718 106.241 22.4763 106.561 20.5566C106.88 18.6369 108.842 17.0708 110.754 17.3992C108.952 17.3571 107.352 15.6563 107.419 13.8545C107.487 12.0527 109.204 10.4782 111.006 10.5624C110.846 8.71845 111.191 6.68087 112.564 5.43475C113.936 4.18863 116.513 4.28125 117.329 5.93994C117.119 4.4749 118.163 2.93409 119.603 2.58046C121.042 2.22683 122.676 3.1109 123.164 4.517C123.543 3.16142 125 2.20999 126.389 2.40365C127.778 2.60572 128.915 3.92762 128.898 5.33372C129.875 3.7929 131.382 2.45416 133.201 2.27735C135.011 2.09212 137.006 3.45611 137.006 5.27478C138.017 3.94446 140.256 3.835 141.401 5.05586C142.547 6.27673 142.286 8.49954 140.896 9.42571C142.159 9.24048 143.338 10.3603 143.599 11.6064C143.868 12.8525 143.431 14.1492 142.833 15.2774C143.911 16.8688 143.793 19.1674 142.563 20.6408C143.506 20.624 144.416 21.2807 144.702 22.1732C144.98 23.0741 144.609 24.135 143.826 24.657C144.466 26.602 143.431 28.8248 141.763 30.0204C140.096 31.216 137.949 31.5444 135.903 31.477L120.697 33.7419Z" fill="#C69C6D"/>
<path d="M146.959 29.2458C151.405 26.9977 155.851 24.7496 160.296 22.5015C160.7 22.2995 161.113 22.089 161.559 21.9964C163.243 21.6343 164.784 22.931 166.022 24.1181C166.232 24.3202 166.451 24.5475 166.485 24.8338C166.577 25.5579 165.508 25.8273 164.843 25.5495C164.178 25.2716 163.546 24.7159 162.831 24.8254C162.999 25.9873 162.452 27.1661 161.652 28.0249C160.852 28.8837 159.825 29.4899 158.806 30.0793C155.177 32.1927 151.523 34.3229 147.591 35.7963C146.833 34.0029 146.227 32.1506 145.789 30.2477L146.959 29.2458Z" fill="#F7D8C9"/>
<path d="M117.448 36.8656C113.937 35.9226 110.485 34.7607 107.117 33.4051C105.627 32.8073 104.137 32.159 102.545 31.9401C100.954 31.7212 99.2196 31.9906 98.0156 33.0431C98.9081 33.2283 99.7922 33.422 100.685 33.6072C100.845 34.5502 99.6827 35.5353 100.23 36.3184C100.348 36.4867 100.533 36.6046 100.718 36.7141C106.242 40.0567 112.034 42.9447 118.029 45.3527C118.56 43.6772 118.593 41.8501 118.122 40.1578L117.448 36.8656Z" fill="#F7D8C9"/>
<path d="M149.115 49.5121C148.727 47.8618 148.348 46.2199 147.961 44.5697C147.624 43.1299 145.982 41.7238 147.346 41.1765C150.504 39.9051 150.942 38.7769 150.967 38.8779C149.611 35.2406 148.256 31.5948 146.9 27.9575C137.403 33.9945 125.876 35.8468 115.259 33.043C115.225 37.0256 115.191 41.0081 115.158 44.9991C115.149 45.6895 115.166 46.4304 115.537 46.9693C115.814 47.365 116.244 47.5839 116.656 47.786C117.978 48.4259 119.292 49.0658 120.614 49.7057C121.018 53.8903 121.414 58.0833 121.818 62.268C121.877 62.9163 121.952 63.5983 122.298 64.1203C122.761 64.836 123.594 65.0802 124.36 65.257C132.452 67.1177 141.006 66.2673 148.685 62.8573C149.081 62.6805 149.502 62.47 149.704 62.0575C149.881 61.6954 149.855 61.2576 149.83 60.8366C149.552 56.8541 149.274 52.88 148.997 48.8974L149.115 49.5121Z" fill="#6A9899"/>
<path d="M139.145 53.7978L135.415 52.0381L131.853 54.1177L132.367 50.0257L129.285 47.2809L133.335 46.5063L135.002 42.7258L136.989 46.3379L141.09 46.7505L138.269 49.7647L139.145 53.7978Z" fill="#346060"/>
<path d="M139.154 12.2462C139.761 14.9742 140.367 17.7022 140.973 20.4302C143.07 19.4956 145.856 20.9354 146.311 23.1919C146.766 25.4484 144.745 27.848 142.455 27.7975C143.28 32.4199 140.586 37.4296 136.283 39.2988C131.981 41.168 126.483 39.7114 123.67 35.9478C122.062 37.9938 118.501 38.0022 116.884 35.9646C115.268 33.927 116.076 30.4581 118.433 29.3551C117.398 26.4335 116.354 23.5034 115.318 20.5817C115.192 20.2197 115.057 19.8408 115.108 19.4619C115.175 18.9567 115.537 18.5442 115.907 18.1905C118.779 15.4036 122.584 13.787 126.373 12.4988C130.6 11.0674 135.433 10.0234 139.365 12.1283L139.154 12.2462Z" fill="#F7D8C9"/>
<path d="M187.373 292.43C187.314 292.548 217.785 278.158 217.979 278.192C212.557 278.824 199.708 278.739 199.195 278.293C198.883 278.024 197.266 267.55 195.524 263.416C192.156 264.502 186.691 267.331 183.593 269.031C183.584 269.031 186.355 287.328 187.373 292.43Z" fill="#C69C6D"/>
<path d="M203.909 281.644C203.589 280.078 204.254 278.428 205.559 277.519C205.972 277.232 205.492 276.609 205.079 276.895C203.555 277.956 202.764 279.935 203.134 281.762C203.235 282.259 204.01 282.141 203.909 281.644Z" fill="#4F657F"/>
<path d="M201.534 281.417C201.4 279.792 202.562 278.125 204.153 277.721C204.355 277.67 204.515 277.502 204.481 277.274C204.456 277.081 204.246 276.896 204.035 276.946C202.014 277.468 200.583 279.447 200.76 281.535C200.802 282.032 201.577 281.914 201.534 281.417Z" fill="#4F657F"/>
<path d="M199.085 281.265C199.144 279.564 199.969 277.956 201.333 276.938C201.738 276.634 201.258 276.02 200.854 276.314C199.33 277.451 198.37 279.27 198.311 281.173C198.294 281.686 199.069 281.779 199.085 281.265Z" fill="#4F657F"/>
<path d="M197.4 272.745C196.356 272.357 195.422 271.726 194.689 270.892C194.319 270.48 193.999 270.025 193.746 269.528C193.595 269.234 193.056 268.324 193.359 268.021C193.62 267.752 194.218 268.114 194.454 268.257C194.908 268.535 195.329 268.871 195.7 269.25C196.441 270.025 196.988 270.976 197.257 272.012C197.358 272.416 197.99 272.475 198.032 271.995C198.116 270.968 198.335 269.966 198.689 269.006C198.866 268.526 199.068 268.063 199.303 267.609C199.505 267.221 199.733 266.792 200.069 266.497C200.33 266.27 200.701 266.135 201.029 266.32C201.433 266.548 201.147 267.053 201.004 267.364C200.6 268.257 200.103 269.099 199.522 269.89C198.865 270.791 198.108 271.616 197.266 272.349C196.887 272.677 197.367 273.3 197.746 272.972C198.655 272.18 199.48 271.296 200.179 270.32C200.533 269.831 200.853 269.326 201.147 268.804C201.434 268.299 201.737 267.76 201.913 267.204C202.073 266.724 202.057 266.211 201.678 265.849C201.358 265.537 200.869 265.411 200.432 265.478C199.329 265.647 198.739 266.927 198.327 267.819C197.729 269.107 197.367 270.505 197.249 271.919C197.51 271.911 197.771 271.911 198.023 271.903C197.762 270.892 197.308 269.958 196.643 269.149C196.028 268.4 195.186 267.634 194.26 267.297C193.856 267.145 193.376 267.086 192.989 267.322C192.509 267.609 192.424 268.181 192.551 268.686C192.803 269.705 193.435 270.69 194.134 271.456C194.95 272.357 195.969 273.056 197.106 273.477C197.586 273.654 197.88 272.921 197.4 272.745Z" fill="#4F657F"/>
<path d="M187.736 273.688C188.469 272.416 190.616 272.357 191.415 273.587C192.215 274.816 191.289 276.752 189.833 276.904C188.376 277.055 187.071 275.355 187.593 273.982L187.736 273.688Z" fill="#F5E6DF"/>
<path d="M186.194 291.874C191.347 289.475 196.5 287.075 201.661 284.684C206.797 282.293 211.933 279.91 217.069 277.519C219.974 276.171 222.879 274.816 225.775 273.469C226.23 273.258 225.927 272.534 225.464 272.745C220.311 275.144 215.158 277.544 209.997 279.935C204.861 282.326 199.725 284.709 194.589 287.1C191.684 288.447 188.779 289.803 185.883 291.15C185.428 291.369 185.74 292.085 186.194 291.874Z" fill="#F5E6DF"/>
<path d="M208.666 277.451C207.109 278.1 206.536 280.255 207.538 281.602C207.841 282.006 208.456 281.526 208.153 281.122C207.446 280.171 207.892 278.622 208.97 278.175C209.441 277.982 209.13 277.258 208.666 277.451Z" fill="#F5E6DF"/>
<path d="M185.512 286.705C187.449 286.578 189.327 287.85 190.009 289.651C190.185 290.123 190.909 289.811 190.733 289.34C189.924 287.184 187.685 285.778 185.403 285.921C184.898 285.964 185.016 286.738 185.512 286.705Z" fill="#F5E6DF"/>
<path d="M73.9681 289.534C73.8502 289.601 107.142 294.83 107.277 294.973C102.444 292.447 91.86 285.147 91.6832 284.49C91.5822 284.095 96.1288 274.521 97.0129 270.126C93.6198 269.133 87.507 268.4 83.9875 268.055C83.996 268.047 75.9972 284.743 73.9681 289.534Z" fill="#C69C6D"/>
<path d="M93.7034 289.913C94.3181 288.439 95.7915 287.446 97.3912 287.429C97.8964 287.42 97.8459 286.637 97.3407 286.646C95.4799 286.671 93.7118 287.858 92.9961 289.576C92.8025 290.039 93.5098 290.376 93.7034 289.913Z" fill="#4F657F"/>
<path d="M91.8671 288.388C92.667 286.966 94.5699 286.25 96.1107 286.806C96.3128 286.881 96.5317 286.831 96.6327 286.62C96.7169 286.444 96.6495 286.166 96.4475 286.098C94.4857 285.391 92.1871 286.233 91.1599 288.052C90.9157 288.481 91.623 288.826 91.8671 288.388Z" fill="#4F657F"/>
<path d="M89.9315 286.89C90.9334 285.509 92.5163 284.65 94.2256 284.574C94.7307 284.549 94.6802 283.766 94.175 283.791C92.2806 283.876 90.4619 284.844 89.3421 286.376C89.0389 286.78 89.6283 287.294 89.9315 286.89Z" fill="#4F657F"/>
<path d="M93.3243 278.891C92.6844 277.982 92.2634 276.938 92.1203 275.835C92.0529 275.287 92.0361 274.723 92.1034 274.176C92.1455 273.848 92.2129 272.795 92.6254 272.711C92.9959 272.635 93.2822 273.267 93.4 273.519C93.619 274.008 93.7873 274.521 93.8715 275.043C94.0484 276.096 93.9642 277.19 93.6021 278.201C93.459 278.588 93.9558 279.001 94.2504 278.63C94.8988 277.83 95.6397 277.123 96.4733 276.525C96.8858 276.231 97.3236 275.961 97.7699 275.717C98.1572 275.506 98.5866 275.279 99.0244 275.229C99.3696 275.186 99.7485 275.279 99.9169 275.616C100.119 276.028 99.6054 276.289 99.3107 276.466C98.4772 276.98 97.5847 277.392 96.6669 277.729C95.6144 278.108 94.5283 278.361 93.4169 278.495C92.9201 278.554 92.9622 279.337 93.4674 279.278C94.663 279.135 95.8418 278.866 96.97 278.453C97.5341 278.251 98.0814 278.007 98.6203 277.738C99.1423 277.477 99.6896 277.207 100.153 276.854C100.548 276.55 100.826 276.113 100.725 275.599C100.641 275.161 100.304 274.782 99.9085 274.589C98.8982 274.109 97.7026 274.833 96.8522 275.346C95.6313 276.079 94.5536 277.03 93.6527 278.133C93.8716 278.276 94.0905 278.42 94.301 278.563C94.6546 277.586 94.7978 276.55 94.7051 275.506C94.6209 274.538 94.3515 273.435 93.7789 272.635C93.5263 272.282 93.1643 271.962 92.7096 271.936C92.1539 271.903 91.7666 272.332 91.5814 272.82C91.2194 273.806 91.1857 274.976 91.3288 276.003C91.4972 277.207 91.9435 278.352 92.6507 279.346C92.9707 279.742 93.619 279.304 93.3243 278.891Z" fill="#4F657F"/>
<path d="M84.8045 274.227C86.1264 273.587 87.9282 274.749 87.9029 276.214C87.8693 277.679 86.0169 278.765 84.7287 278.066C83.432 277.367 83.3142 275.229 84.5182 274.395L84.8045 274.227Z" fill="#F5E6DF"/>
<path d="M73.3115 288.405C78.9191 289.323 84.535 290.241 90.1426 291.15C95.7333 292.06 101.324 292.977 106.906 293.887C110.064 294.4 113.23 294.922 116.387 295.436C116.884 295.52 117.035 294.745 116.538 294.67C110.931 293.752 105.315 292.834 99.7074 291.925C94.1167 291.016 88.526 290.098 82.9437 289.188C79.7863 288.675 76.6205 288.153 73.4631 287.639C72.9579 287.555 72.8063 288.33 73.3115 288.405Z" fill="#F5E6DF"/>
<path d="M99.9925 289.121C98.3422 288.784 96.6582 290.241 96.7256 291.925C96.7424 292.43 97.5255 292.38 97.5086 291.874C97.4581 290.696 98.6958 289.66 99.8409 289.896C100.338 289.988 100.489 289.222 99.9925 289.121Z" fill="#F5E6DF"/>
<path d="M75.6534 283.749C77.3205 284.734 78.1709 286.839 77.7078 288.717C77.59 289.205 78.3561 289.357 78.474 288.869C79.0213 286.637 77.952 284.212 75.9818 283.042C75.5608 282.789 75.224 283.497 75.6534 283.749Z" fill="#F5E6DF"/>
<path d="M152.987 111.102C152.937 111.153 170.728 109.494 170.812 109.545C168 108.88 161.609 106.505 161.432 106.194C161.331 106 162.418 100.494 162.291 98.1192C160.414 98.0519 157.18 98.4729 155.328 98.7591C155.328 98.7591 153.4 108.374 152.987 111.102Z" fill="#87C3A9"/>
<path d="M163.175 108.72C163.302 107.878 163.925 107.179 164.741 106.96C165.002 106.893 164.868 106.497 164.615 106.564C163.664 106.817 162.914 107.659 162.763 108.636C162.729 108.905 163.133 108.989 163.175 108.72Z" fill="#4F657F"/>
<path d="M162.031 108.172C162.258 107.339 163.142 106.716 164.001 106.8C164.111 106.808 164.22 106.758 164.245 106.64C164.262 106.539 164.195 106.404 164.085 106.396C162.982 106.286 161.913 107.019 161.627 108.088C161.559 108.349 161.963 108.433 162.031 108.172Z" fill="#4F657F"/>
<path d="M160.844 107.659C161.181 106.817 161.879 106.169 162.747 105.908C162.999 105.832 162.873 105.436 162.62 105.512C161.661 105.806 160.852 106.539 160.473 107.474C160.372 107.726 160.743 107.911 160.844 107.659Z" fill="#4F657F"/>
<path d="M161.541 103.112C161.095 102.733 160.742 102.245 160.523 101.698C160.413 101.428 160.337 101.142 160.295 100.847C160.27 100.67 160.169 100.123 160.371 100.022C160.548 99.938 160.784 100.224 160.876 100.342C161.053 100.561 161.205 100.805 161.314 101.066C161.541 101.588 161.642 102.161 161.592 102.725C161.575 102.944 161.878 103.087 161.979 102.86C162.207 102.363 162.493 101.9 162.847 101.487C163.023 101.277 163.209 101.083 163.411 100.906C163.579 100.746 163.773 100.578 163.992 100.494C164.16 100.426 164.37 100.426 164.497 100.578C164.657 100.763 164.421 100.965 164.295 101.091C163.933 101.462 163.529 101.79 163.099 102.085C162.611 102.413 162.08 102.691 161.525 102.902C161.272 102.994 161.407 103.39 161.651 103.297C162.249 103.07 162.821 102.775 163.343 102.413C163.604 102.237 163.857 102.043 164.101 101.832C164.337 101.63 164.581 101.42 164.775 101.176C164.943 100.965 165.027 100.704 164.901 100.46C164.8 100.241 164.581 100.098 164.345 100.047C163.764 99.9295 163.242 100.46 162.872 100.83C162.341 101.361 161.912 101.992 161.592 102.674C161.718 102.716 161.853 102.767 161.979 102.809C162.03 102.262 161.971 101.706 161.786 101.184C161.617 100.696 161.331 100.165 160.935 99.8285C160.758 99.6854 160.531 99.5675 160.295 99.6096C160.009 99.6685 159.858 99.938 159.832 100.207C159.773 100.763 159.908 101.369 160.119 101.875C160.363 102.472 160.742 103.003 161.238 103.424C161.466 103.592 161.744 103.281 161.541 103.112Z" fill="#4F657F"/>
<path d="M156.548 101.824C157.146 101.319 158.224 101.681 158.4 102.439C158.577 103.197 157.769 103.996 157.011 103.811C156.253 103.626 155.917 102.54 156.422 101.95L156.548 101.824Z" fill="#F5E6DF"/>
<path d="M152.498 110.614C155.504 110.353 158.502 110.092 161.507 109.831C164.496 109.57 167.486 109.309 170.483 109.048C172.175 108.897 173.868 108.753 175.56 108.602C175.829 108.577 175.804 108.164 175.535 108.189C172.529 108.45 169.532 108.711 166.526 108.972C163.537 109.233 160.548 109.494 157.55 109.755C155.858 109.907 154.165 110.05 152.473 110.202C152.204 110.219 152.229 110.639 152.498 110.614Z" fill="#F5E6DF"/>
<path d="M166.308 107.49C165.415 107.533 164.741 108.501 164.994 109.36C165.07 109.621 165.466 109.486 165.39 109.233C165.213 108.636 165.71 107.945 166.333 107.911C166.594 107.895 166.569 107.482 166.308 107.49Z" fill="#F5E6DF"/>
<path d="M153.096 107.912C154.081 108.198 154.789 109.175 154.805 110.193C154.805 110.463 155.226 110.437 155.218 110.168C155.21 108.947 154.342 107.844 153.18 107.499C152.919 107.432 152.835 107.836 153.096 107.912Z" fill="#F5E6DF"/>
<path d="M136.442 106.977C136.492 107.027 118.701 105.369 118.617 105.419C121.429 104.754 127.82 102.38 127.997 102.068C128.098 101.874 127.012 96.3679 127.138 93.9935C129.016 93.9262 132.249 94.3471 134.101 94.6334C134.101 94.625 136.029 104.249 136.442 106.977Z" fill="#87C3A9"/>
<path d="M126.254 104.594C126.128 103.752 125.505 103.053 124.688 102.834C124.427 102.767 124.562 102.371 124.815 102.439C125.766 102.691 126.515 103.533 126.667 104.51C126.701 104.771 126.296 104.855 126.254 104.594Z" fill="#4F657F"/>
<path d="M127.39 104.047C127.162 103.213 126.278 102.59 125.42 102.674C125.31 102.683 125.201 102.632 125.175 102.514C125.159 102.413 125.226 102.279 125.335 102.27C126.438 102.161 127.508 102.893 127.794 103.963C127.87 104.224 127.466 104.299 127.39 104.047Z" fill="#4F657F"/>
<path d="M128.585 103.533C128.248 102.691 127.55 102.043 126.682 101.782C126.421 101.706 126.556 101.31 126.809 101.386C127.769 101.681 128.577 102.413 128.956 103.348C129.057 103.592 128.686 103.777 128.585 103.533Z" fill="#4F657F"/>
<path d="M127.888 98.9781C128.335 98.5992 128.688 98.1108 128.907 97.5635C129.017 97.2941 129.092 97.0078 129.135 96.7131C129.16 96.5363 129.261 95.989 129.059 95.888C128.882 95.8038 128.646 96.0901 128.554 96.208C128.377 96.4269 128.225 96.671 128.116 96.9321C127.888 97.4541 127.787 98.0266 127.838 98.5907C127.855 98.8097 127.552 98.9528 127.451 98.7255C127.223 98.2287 126.937 97.7656 126.583 97.353C126.407 97.1426 126.221 96.9489 126.028 96.7721C125.859 96.6121 125.666 96.4437 125.447 96.3595C125.278 96.2922 125.068 96.2922 124.942 96.4437C124.782 96.6289 125.017 96.831 125.144 96.9573C125.506 97.3278 125.91 97.6562 126.339 97.9508C126.828 98.2792 127.358 98.5571 127.914 98.7676C128.166 98.8602 128.032 99.2559 127.787 99.1633C127.19 98.936 126.617 98.6413 126.095 98.2792C125.834 98.1024 125.581 97.9087 125.337 97.6983C125.101 97.4962 124.857 97.2857 124.664 97.0415C124.495 96.831 124.411 96.57 124.537 96.3174C124.638 96.0985 124.857 95.9554 125.093 95.9048C125.674 95.787 126.196 96.3174 126.567 96.6879C127.097 97.2183 127.526 97.8498 127.846 98.5318C127.72 98.5739 127.585 98.6244 127.459 98.6665C127.408 98.1192 127.467 97.5635 127.653 97.0415C127.821 96.5532 128.107 96.0227 128.503 95.6859C128.68 95.5428 128.907 95.4249 129.143 95.467C129.429 95.526 129.581 95.7954 129.606 96.0648C129.665 96.6205 129.53 97.2267 129.32 97.7319C129.076 98.3297 128.697 98.8602 128.2 99.2812C127.956 99.458 127.678 99.1549 127.888 98.9781Z" fill="#4F657F"/>
<path d="M132.871 97.6984C132.273 97.1932 131.196 97.5552 131.019 98.313C130.842 99.0708 131.65 99.8707 132.408 99.6854C133.166 99.5002 133.503 98.414 132.997 97.8247L132.871 97.6984Z" fill="#F5E6DF"/>
<path d="M136.929 106.48C133.923 106.219 130.926 105.958 127.92 105.697C124.931 105.436 121.942 105.175 118.945 104.914C117.252 104.763 115.56 104.619 113.868 104.468C113.598 104.443 113.623 104.03 113.893 104.055C116.899 104.316 119.896 104.577 122.902 104.838C125.891 105.099 128.88 105.36 131.877 105.621C133.57 105.773 135.262 105.916 136.955 106.068C137.216 106.093 137.199 106.505 136.929 106.48Z" fill="#F5E6DF"/>
<path d="M123.121 103.365C124.014 103.407 124.687 104.375 124.435 105.234C124.359 105.495 123.963 105.36 124.039 105.108C124.216 104.51 123.719 103.819 123.096 103.786C122.835 103.76 122.852 103.348 123.121 103.365Z" fill="#F5E6DF"/>
<path d="M136.332 103.786C135.347 104.072 134.639 105.049 134.623 106.068C134.623 106.337 134.202 106.312 134.21 106.042C134.219 104.821 135.086 103.718 136.248 103.373C136.509 103.297 136.593 103.71 136.332 103.786Z" fill="#F5E6DF"/>
<path d="M129.674 64.8276C126.517 64.2382 122.837 63.7583 120.404 65.6695C118.173 67.4209 117.971 70.4604 118.29 73.1126C119.158 80.2778 122.551 86.9631 125.894 93.5136C128.352 93.5473 130.811 93.5726 133.278 93.6062C133.522 93.6062 133.791 93.6063 133.985 93.4715C134.33 93.2358 134.263 92.7643 134.17 92.3854C133.151 88.487 132.124 84.5887 131.105 80.6904C133.724 80.2441 146.825 78.0802 149.486 78.215C148.189 74.7376 148.517 71.6981 147.221 68.2207C146.749 66.9578 146.741 65.88 145.756 64.8865C144.771 63.893 130.625 64.6339 129.253 65.1307L129.674 64.8276Z" fill="#D9C7C2"/>
<path d="M146.151 47.8196C143.397 52.3747 140.653 56.9297 137.899 61.4932C136.148 64.3981 134.329 67.8501 135.517 71.0328C136.746 74.3081 143.372 76.8761 143.372 76.8761C142.631 79.3768 140.425 87.4766 140.038 90.0614C143.423 91.8296 147.296 92.6547 151.102 92.419C151.48 92.3937 151.901 92.3516 152.179 92.0906C152.474 91.8127 152.55 91.3833 152.6 90.9792C153.257 86.062 153.72 81.1112 153.981 76.152C153.998 75.8152 154.032 75.4363 154.284 75.209C154.604 74.9143 155.109 74.9985 155.539 75.0995C157.686 75.5795 160.119 75.6552 161.904 74.367C163.689 73.0788 164.219 70.0224 162.434 68.7342C162.047 68.4479 161.542 68.2122 161.441 67.7407C161.374 67.4039 161.559 67.0671 161.736 66.764C164.455 62.15 167.175 57.536 169.894 52.9219C164.859 49.2004 159.361 46.102 153.585 43.6939C152.996 43.4497 152.348 43.2056 151.725 43.3403C151.236 43.4497 150.832 43.7697 150.453 44.0896C148.769 45.521 147.228 47.1123 145.856 48.8468L146.151 47.8196Z" fill="#FBD1B9"/>
<path d="M160.228 70.0225C158.266 67.6986 157.971 64.3813 158.283 61.3417C158.586 58.3106 159.394 55.3132 159.268 52.2653C156.245 54.6817 152.296 55.9278 148.432 55.6668C151.126 54.4039 153.45 52.3495 155.024 49.8235C151.926 50.6487 148.558 50.4298 145.594 49.2257C147.362 48.5185 143.54 51.979 141.216 55.8268C142.411 51.8274 144.483 48.0975 147.244 44.9738C148.095 44.0139 149.063 43.0793 150.301 42.7341C152.052 42.2458 153.871 43.0625 155.504 43.8539C160.649 46.3462 165.801 48.8553 170.55 52.0379C171.569 52.7199 172.638 53.5535 172.849 54.7575C173.059 55.9615 172.318 57.1066 171.611 58.1001C168.428 62.5794 165.077 66.9409 161.566 71.1592C160.842 70.8645 160.194 70.3761 159.706 69.7615L160.228 70.0225Z" fill="#C69C6D"/>
<path opacity="0.3" d="M143.381 76.8678L150.167 78.6949L142.707 79.4779L143.381 76.8678Z" fill="#A46E4A"/>
<path d="M146.932 59.9357C146.73 60.6429 146.309 61.2407 145.728 61.7207C145.476 61.9312 145.122 62.1417 144.794 62.2932C144.507 62.4195 144.095 62.5374 143.741 62.5879C143.775 62.5795 143.665 62.5963 143.648 62.5963C143.598 62.6047 143.547 62.6047 143.489 62.6047C143.387 62.6132 143.278 62.6132 143.177 62.6047C142.933 62.5963 142.798 62.5795 142.571 62.5205C142.327 62.4616 142.057 62.6384 142.066 62.9078C142.091 64.3139 142.647 65.6695 143.623 66.6799C143.985 67.0504 144.549 66.4862 144.187 66.1158C143.362 65.257 142.882 64.1035 142.865 62.9078C142.697 63.0341 142.529 63.1689 142.36 63.2952C144.128 63.6993 145.998 62.9078 147.067 61.4681C147.362 61.0723 147.581 60.6177 147.715 60.1462C147.85 59.6494 147.075 59.4389 146.932 59.9357Z" fill="#A46E4A"/>
<path d="M141.604 58.0243C141.663 57.9822 141.722 57.9486 141.781 57.9149C141.781 57.9149 141.89 57.8644 141.831 57.8896C141.856 57.8812 141.882 57.8728 141.907 57.8644C141.974 57.8391 142.05 57.8223 142.126 57.8054C142.16 57.797 142.193 57.7886 142.227 57.7886C142.168 57.797 142.244 57.7886 142.261 57.7886C142.328 57.7802 142.395 57.7802 142.471 57.7886C142.505 57.7886 142.538 57.7886 142.572 57.797C142.505 57.7886 142.597 57.8054 142.606 57.8054C142.682 57.8223 142.749 57.8391 142.825 57.8644C142.85 57.8728 142.875 57.8812 142.901 57.8896C142.842 57.8644 142.951 57.9149 142.951 57.9149C143.01 57.9486 143.061 57.9822 143.119 58.0159C143.178 58.0496 143.119 58.0075 143.145 58.0328C143.17 58.0496 143.195 58.0749 143.221 58.1001C143.271 58.1422 143.313 58.1927 143.355 58.2433C143.439 58.3359 143.338 58.218 143.38 58.2685C143.397 58.2938 143.414 58.319 143.439 58.3527C143.473 58.4117 143.507 58.4622 143.532 58.5211C143.591 58.6221 143.515 58.4622 143.557 58.5716C143.566 58.6053 143.583 58.6306 143.591 58.6642C143.608 58.7232 143.625 58.7905 143.641 58.8495C143.65 58.8747 143.65 58.9337 143.65 58.8747C143.65 58.9168 143.658 58.9505 143.658 58.9926C143.667 59.2031 143.835 59.4052 144.054 59.3883C144.265 59.3799 144.458 59.2115 144.45 58.9926C144.424 58.2685 144.012 57.5613 143.364 57.2245C142.69 56.8708 141.831 56.9045 141.2 57.3423C141.023 57.4602 140.939 57.696 141.057 57.8896C141.158 58.0496 141.419 58.1422 141.604 58.0243Z" fill="black"/>
<path d="M151.245 63.3289C151.303 63.2868 151.362 63.2531 151.421 63.2195C151.421 63.2195 151.531 63.1689 151.472 63.1942C151.497 63.1858 151.522 63.1773 151.548 63.1689C151.615 63.1437 151.691 63.1268 151.767 63.11C151.8 63.1016 151.834 63.0932 151.868 63.0932C151.809 63.1016 151.884 63.0932 151.901 63.0932C151.969 63.0847 152.036 63.0847 152.112 63.0932C152.145 63.0932 152.179 63.0932 152.213 63.1016C152.145 63.0932 152.238 63.11 152.246 63.11C152.322 63.1268 152.39 63.1437 152.465 63.1689C152.491 63.1773 152.516 63.1858 152.541 63.1942C152.482 63.1689 152.592 63.2195 152.592 63.2195C152.651 63.2531 152.701 63.2868 152.76 63.3205C152.819 63.3542 152.76 63.3121 152.785 63.3373C152.811 63.3542 152.836 63.3794 152.861 63.4047C152.912 63.4468 152.954 63.4973 152.996 63.5478C153.08 63.6404 152.979 63.5226 153.021 63.5731C153.038 63.5983 153.055 63.6236 153.08 63.6573C153.114 63.7162 153.147 63.7667 153.173 63.8257C153.232 63.9267 153.156 63.7667 153.198 63.8762C153.206 63.9099 153.223 63.9351 153.232 63.9688C153.248 64.0277 153.265 64.0951 153.282 64.154C153.29 64.1793 153.29 64.2382 153.29 64.1793C153.29 64.2214 153.299 64.2551 153.299 64.2972C153.307 64.5077 153.476 64.7097 153.695 64.6929C153.905 64.6845 154.099 64.5161 154.09 64.2972C154.065 63.5731 153.653 62.8658 153.004 62.529C152.331 62.1754 151.472 62.2091 150.84 62.6469C150.664 62.7648 150.579 63.0005 150.697 63.1942C150.798 63.3626 151.068 63.4552 151.245 63.3289Z" fill="black"/>
<path d="M142.48 70.2668C143.027 71.193 144.442 71.2603 145.351 70.6794C146.261 70.0984 146.791 69.0964 147.279 68.1282C145.772 68.928 143.869 68.928 142.362 68.1282L142.48 70.2668Z" fill="white"/>
<path d="M142.134 70.4689C142.622 71.2687 143.574 71.5382 144.458 71.4203C145.451 71.2772 146.209 70.612 146.773 69.8205C147.101 69.3575 147.371 68.8439 147.624 68.3387C147.809 67.9766 147.438 67.6062 147.076 67.7914C145.687 68.5155 143.952 68.5155 142.563 67.7914C142.311 67.6567 141.949 67.8166 141.965 68.1366C141.999 68.8523 142.041 69.5595 142.075 70.2752C142.083 70.4941 142.252 70.6709 142.471 70.6709C142.681 70.6709 142.883 70.4857 142.866 70.2752C142.833 69.5595 142.791 68.8523 142.757 68.1366C142.555 68.2545 142.353 68.3639 142.159 68.4818C143.809 69.349 145.83 69.349 147.48 68.4818C147.295 68.2966 147.118 68.1198 146.933 67.9345C146.537 68.7091 146.133 69.509 145.476 70.09C145.333 70.2163 145.182 70.3257 145.013 70.4099C144.938 70.452 144.862 70.4857 144.82 70.5025C144.736 70.5362 144.643 70.5615 144.55 70.5867C144.466 70.612 144.382 70.6288 144.298 70.6373C144.247 70.6457 144.289 70.6373 144.298 70.6373C144.272 70.6373 144.256 70.6457 144.23 70.6457C144.18 70.6457 144.129 70.6541 144.079 70.6541C143.986 70.6541 143.894 70.6541 143.801 70.6457C143.784 70.6457 143.759 70.6457 143.742 70.6373C143.75 70.6373 143.793 70.6457 143.742 70.6373C143.691 70.6288 143.649 70.6204 143.599 70.612C143.245 70.5278 142.976 70.3594 142.807 70.0731C142.555 69.6269 141.864 70.0226 142.134 70.4689Z" fill="#A46E4A"/>
<path d="M153.637 56.7867C153.375 56.7699 153.199 57.0393 153.317 57.275C153.384 57.4182 153.493 57.5445 153.611 57.6455C153.872 57.856 154.201 57.957 154.521 58.0581C155.421 58.3359 156.314 58.6138 157.215 58.8916C157.232 58.7738 157.148 58.6643 157.063 58.5801C156.356 57.8223 155.472 57.2414 154.495 56.8962C154.217 56.7867 153.914 56.7109 153.637 56.7867Z" fill="#C69C6D"/>
<path d="M147.742 53.4861C147.978 53.5955 148.003 53.9155 147.793 54.067C147.666 54.1597 147.506 54.2186 147.355 54.2523C147.026 54.3112 146.69 54.2439 146.361 54.1765C145.444 53.9828 144.526 53.7976 143.6 53.604C143.642 53.4945 143.768 53.444 143.886 53.4019C144.871 53.0819 145.932 52.9977 146.951 53.1661C147.229 53.2082 147.532 53.2756 147.742 53.4861Z" fill="#C69C6D"/>
<path d="M125.312 22.6952C125.699 22.6026 126.028 22.9562 125.927 23.3351C125.859 23.5709 125.741 23.7898 125.581 23.9666C125.245 24.3539 124.781 24.5981 124.335 24.8254C123.072 25.4822 121.801 26.1389 120.538 26.7956C120.479 26.6188 120.58 26.442 120.681 26.282C121.531 24.9601 122.702 23.8487 124.066 23.0657C124.453 22.8552 124.874 22.6531 125.312 22.6952Z" fill="#C69C6D"/>
<path d="M132.41 19.8158C132.023 19.8831 131.854 20.3378 132.098 20.6493C132.25 20.8345 132.444 20.9945 132.662 21.0956C133.117 21.3229 133.639 21.365 134.144 21.3987C135.567 21.5081 136.99 21.6176 138.413 21.727C138.396 21.5418 138.236 21.4155 138.085 21.3145C136.78 20.4304 135.273 19.8663 133.715 19.6726C133.269 19.6305 132.797 19.6137 132.41 19.8158Z" fill="#C69C6D"/>
<path d="M130.17 28.2774C131.543 28.3364 132.915 28.4542 134.271 28.6479C134.591 28.6984 134.928 28.7321 135.248 28.8079C135.34 28.8331 135.433 28.85 135.492 28.9173C135.534 28.9594 135.534 29.0268 135.534 29.1194C135.525 29.3299 135.408 29.6077 135.315 29.8098C135.172 30.1382 135.029 30.4581 134.885 30.7865C134.566 31.519 134.246 32.2431 133.926 32.9756C133.841 33.1693 133.867 33.405 134.069 33.5229C134.237 33.624 134.532 33.5819 134.616 33.3798C134.928 32.6725 135.239 31.9653 135.542 31.2496C135.702 30.8875 135.862 30.5171 136.022 30.155C136.157 29.8519 136.283 29.5488 136.317 29.212C136.351 28.8752 136.258 28.5216 135.997 28.2943C135.736 28.0585 135.391 28.008 135.062 27.9575C134.296 27.8312 133.53 27.7301 132.764 27.6544C131.905 27.5617 131.038 27.5028 130.17 27.4691C129.952 27.4607 129.775 27.6628 129.775 27.8649C129.766 28.1006 129.952 28.269 130.17 28.2774Z" fill="#A46E4A"/>
<path d="M129.74 35.0385C131.028 36.1583 132.957 36.3014 134.455 35.5268C134.868 35.3163 135.238 35.0216 135.55 34.668C135.693 34.508 135.71 34.2638 135.55 34.1039C135.407 33.9607 135.129 33.9439 134.986 34.1039C134.405 34.769 133.571 35.1479 132.721 35.2069C132.249 35.2405 131.87 35.2069 131.433 35.0721C131.02 34.9543 130.624 34.7438 130.313 34.4743C130.153 34.3312 129.909 34.3144 129.749 34.4743C129.589 34.6175 129.572 34.8953 129.74 35.0385Z" fill="#A46E4A"/>
<path d="M142.293 25.4905C142.967 24.6737 143.649 23.8486 144.323 23.0319C144.457 22.8719 144.491 22.6193 144.323 22.4678C144.179 22.3331 143.902 22.2994 143.758 22.4678C143.085 23.2845 142.403 24.1096 141.729 24.9263C141.595 25.0863 141.561 25.3389 141.729 25.4905C141.872 25.6252 142.15 25.6673 142.293 25.4905Z" fill="#A46E4A"/>
<path d="M143.331 24.7749C143.39 24.7917 143.449 24.8085 143.507 24.8338C143.474 24.817 143.44 24.8085 143.415 24.7917C143.499 24.8254 143.583 24.8759 143.659 24.9348C143.634 24.918 143.609 24.8927 143.575 24.8759C143.651 24.9348 143.718 25.0022 143.777 25.078C143.76 25.0527 143.735 25.0275 143.718 24.9938C143.777 25.0695 143.819 25.1537 143.861 25.2379C143.844 25.2043 143.836 25.1706 143.819 25.1453C143.844 25.2043 143.861 25.2632 143.878 25.3221C143.895 25.4148 143.979 25.5158 144.063 25.5579C144.147 25.6084 144.274 25.6253 144.375 25.6C144.467 25.5663 144.568 25.5074 144.61 25.4148C144.661 25.3137 144.678 25.2127 144.653 25.1032C144.535 24.5728 144.08 24.1181 143.558 24.0002C143.457 23.975 143.348 23.9834 143.246 24.0423C143.162 24.0929 143.087 24.1855 143.061 24.2781C143.036 24.3791 143.044 24.497 143.103 24.5896C143.154 24.6822 143.23 24.758 143.331 24.7749Z" fill="#A46E4A"/>
<path d="M118.13 33.2283C118.315 33.2451 118.475 33.2704 118.694 33.3209C118.905 33.3714 119.115 33.4388 119.326 33.5146C119.444 33.5567 119.452 33.5651 119.561 33.6156C119.654 33.6577 119.755 33.7082 119.848 33.7587C120.041 33.8598 120.227 33.9776 120.403 34.1039C120.572 34.2302 120.858 34.1376 120.951 33.9608C121.06 33.7503 120.993 33.5482 120.808 33.4135C120.025 32.8494 119.09 32.521 118.13 32.4284C117.92 32.4116 117.718 32.6305 117.734 32.8241C117.743 33.0683 117.911 33.2114 118.13 33.2283Z" fill="#A46E4A"/>
<path d="M118.921 34.4155C118.938 34.3818 118.963 34.3565 118.988 34.3228C118.963 34.3565 118.938 34.3818 118.921 34.4155C118.997 34.3144 119.081 34.2302 119.182 34.1545C119.157 34.1713 119.132 34.1966 119.098 34.2134C119.199 34.1376 119.308 34.0703 119.426 34.0197C119.393 34.0366 119.359 34.045 119.334 34.0618C119.452 34.0113 119.578 33.9776 119.704 33.9608C119.67 33.9692 119.637 33.9692 119.595 33.9776C119.654 33.9692 119.713 33.9692 119.78 33.9608C119.99 33.9608 120.192 33.7756 120.176 33.5651C120.167 33.3462 119.999 33.1609 119.78 33.1693C119.157 33.1778 118.584 33.4977 118.239 34.0197C118.121 34.1966 118.197 34.466 118.382 34.567C118.567 34.6681 118.795 34.6007 118.921 34.4155Z" fill="#A46E4A"/>
<path d="M118.458 29.3299C119.35 26.0715 119.392 22.5857 118.592 19.302C119.544 20.3545 121.295 20.5481 122.449 19.7314C123.602 18.9147 123.998 17.1887 123.324 15.951C122.954 17.8201 125.143 19.5715 126.97 19.0242C128.797 18.4769 129.732 16.153 129.05 14.3681C129.841 15.4289 131.239 15.9931 132.544 15.791C133.849 15.5889 135.011 14.6206 135.449 13.3745C134.649 13.8965 134.354 15.0669 134.809 15.9089C135.263 16.7508 136.408 17.1381 137.284 16.7508C136.627 17.7696 136.922 19.1926 137.722 20.1019C138.522 21.0112 139.701 21.4912 140.879 21.7774C141.898 18.5695 141.738 15.008 140.442 11.9095C140.138 11.1854 139.76 10.4697 139.179 9.94769C138.673 9.4846 138.034 9.19833 137.377 8.98784C134.64 8.13745 131.685 8.71841 128.915 9.42567C124.756 10.4781 120.655 11.7916 116.647 13.3408C115.536 13.7703 114.399 14.2418 113.557 15.0837C111.276 17.3571 112.033 21.1544 112.951 24.2444C113.65 26.6019 114.585 29.2373 116.841 30.2308L118.458 29.3299Z" fill="#C69C6D"/>
<path d="M126.827 29.9193C126.827 30.5423 126.322 31.0559 125.699 31.0559C125.076 31.0559 124.57 30.5507 124.57 29.9193C124.57 29.2962 125.076 28.7826 125.699 28.7826C126.322 28.7826 126.827 29.2962 126.827 29.9193Z" fill="black"/>
<path d="M138.682 26.1895C138.682 26.8126 138.177 27.3262 137.554 27.3262C136.931 27.3262 136.426 26.821 136.426 26.1895C136.426 25.5665 136.931 25.0529 137.554 25.0529C138.177 25.0529 138.682 25.5665 138.682 26.1895Z" fill="black"/>
<path d="M121.751 39.5179C121.515 42.0017 121.288 44.4855 121.052 46.9694C120.984 47.6766 120.917 48.3755 120.85 49.0827C120.825 49.3353 121.229 49.3353 121.245 49.0827C121.481 46.5989 121.709 44.1151 121.944 41.6313C122.012 40.924 122.079 40.2252 122.146 39.5179C122.172 39.2569 121.768 39.2569 121.751 39.5179Z" fill="#346060"/>
<path d="M143.668 34.0955C144.62 36.2425 145.352 38.4906 145.849 40.7892C145.908 41.0418 146.287 40.9323 146.236 40.6797C145.731 38.3475 144.982 36.0741 144.013 33.8934C143.904 33.6577 143.567 33.8597 143.668 34.0955Z" fill="#346060"/>
<path d="M116.867 37.6571C116.573 40.1325 116.354 42.6163 116.228 45.1085C116.194 45.8242 116.16 46.5315 116.135 47.2471C116.126 47.5082 116.522 47.5082 116.531 47.2471C116.615 44.7549 116.783 42.2627 117.027 39.7788C117.095 39.0716 117.179 38.3559 117.263 37.6486C117.297 37.4045 116.893 37.4045 116.867 37.6571Z" fill="#346060"/>
<path d="M144.996 29.3467C146.217 31.8474 147.353 34.3902 148.381 36.9834C148.675 37.716 148.961 38.4569 149.231 39.1978C149.324 39.4336 149.702 39.3325 149.618 39.0884C148.633 36.4446 147.547 33.8429 146.36 31.2917C146.023 30.576 145.686 29.8603 145.341 29.1531C145.232 28.9173 144.886 29.1194 144.996 29.3467Z" fill="#346060"/>
<path d="M173.33 52.2568C172.909 52.5009 172.816 51.6337 173.12 51.2464C175.241 48.5352 178.542 46.7839 181.977 46.5566C185.412 46.3293 188.923 47.6259 191.374 50.0424C192.94 51.5832 194.076 53.5197 195.71 54.9932C197.335 56.4666 199.768 57.4181 201.73 56.4498C200.997 59.0599 198.648 60.988 196.08 61.8553C193.512 62.7141 190.725 62.6636 188.022 62.4278C186.625 62.3099 185.21 62.1331 183.93 61.5522C182.693 60.988 181.649 60.0703 180.588 59.2199C178.39 57.4602 176.024 55.9194 173.524 54.6227L173.33 52.2568Z" fill="#C69C6D"/>
<path d="M132.343 137.044C142.64 138.298 153.173 137.919 163.336 135.941C182.6 160.35 191.138 191.604 186.667 221.401C184.082 222.327 181.497 223.253 178.912 224.18C178.693 223.152 178.837 222.058 179.317 221.106C178.921 223.051 178.533 224.988 178.138 226.933C171.629 227.455 165.121 227.968 158.612 228.49C158.688 227.16 158.772 225.83 158.848 224.508C157.518 227.817 153.729 229.888 149.915 230.461C146.101 231.025 142.202 230.351 138.405 229.686C138.498 228.095 138.59 226.512 138.683 224.921C137.689 226.301 137.033 227.884 136.788 229.518C132.149 230.09 127.417 230.031 122.803 229.332C122.879 227.901 122.946 226.47 123.022 225.038C121.986 227.413 118.964 228.667 116.16 228.65C113.356 228.625 110.687 227.598 108.111 226.579C108.203 224.609 108.296 222.639 108.38 220.669C104.364 221.83 99.9688 221.873 95.9189 220.795C109.323 193.852 123.3 165.528 132.318 137.111L132.343 137.044Z" fill="#C69C6D"/>
<path d="M138.539 88.2429C139.406 86.0032 140.274 83.7636 141.141 81.5239C145.418 81.5408 149.704 81.5576 153.981 81.5744C154.158 81.5744 154.36 81.5829 154.469 81.726C154.554 81.827 154.554 81.9786 154.554 82.1133C154.545 86.079 154.242 90.0447 153.636 93.9683C153.602 94.1872 153.568 94.4061 153.451 94.5914C153.274 94.8776 152.954 95.0292 152.634 95.1386C151.868 95.3997 151.051 95.467 150.251 95.5175C148.011 95.6607 145.738 95.6775 143.557 95.1639C141.377 94.6503 139.272 93.5557 137.874 91.796L138.539 88.2429Z" fill="#9A8728"/>
<path d="M136.215 144.158C134.262 149.092 132.3 154.035 130.346 158.969C128.393 163.903 126.431 168.845 124.478 173.779C122.524 178.713 120.563 183.655 118.609 188.589C116.656 193.523 114.694 198.466 112.741 203.4C110.787 208.334 108.825 213.276 106.872 218.21C106.628 218.825 106.384 219.431 106.148 220.046C106.055 220.281 106.443 220.391 106.535 220.155C108.489 215.221 110.45 210.279 112.404 205.345C114.357 200.411 116.319 195.468 118.272 190.534C120.226 185.6 122.188 180.658 124.141 175.724C126.094 170.79 128.056 165.848 130.01 160.914C131.963 155.98 133.925 151.037 135.878 146.103C136.122 145.489 136.366 144.883 136.602 144.268C136.695 144.024 136.308 143.923 136.215 144.158Z" fill="#873D15"/>
<path d="M143.507 149.724C143.027 154.818 142.37 159.895 141.537 164.947C140.712 169.965 139.71 174.958 138.539 179.909C137.369 184.86 136.03 189.777 134.531 194.635C133.024 199.493 131.357 204.309 129.522 209.049C127.669 213.849 125.657 218.572 123.476 223.228C123.215 223.792 122.946 224.357 122.676 224.921C122.567 225.148 122.912 225.359 123.022 225.123C125.228 220.517 127.274 215.836 129.151 211.087C131.037 206.338 132.755 201.522 134.313 196.647C135.87 191.755 137.268 186.813 138.489 181.82C139.71 176.836 140.762 171.801 141.638 166.74C142.505 161.731 143.204 156.696 143.726 151.635C143.793 150.987 143.852 150.347 143.919 149.699C143.928 149.471 143.532 149.471 143.507 149.724Z" fill="#873D15"/>
<path d="M151.598 155.028C151.615 159.836 151.48 164.635 151.185 169.434C150.89 174.225 150.427 179.016 149.813 183.782C149.19 188.598 148.407 193.389 147.464 198.154C146.529 202.869 145.443 207.551 144.205 212.19C142.968 216.829 141.57 221.426 140.021 225.981C139.827 226.546 139.633 227.11 139.44 227.674C139.355 227.918 139.743 228.019 139.827 227.783C141.418 223.228 142.858 218.614 144.146 213.966C145.435 209.31 146.563 204.621 147.531 199.889C148.499 195.157 149.316 190.4 149.973 185.617C150.629 180.86 151.126 176.086 151.463 171.304C151.8 166.488 151.985 161.663 152.002 156.839C152.002 156.241 152.002 155.643 152.002 155.045C151.994 154.767 151.598 154.767 151.598 155.028Z" fill="#873D15"/>
<path d="M159.377 158.733C160.068 167.018 160.556 175.32 160.859 183.63C161.154 191.898 161.255 200.175 161.17 208.443C161.12 213.082 161.011 217.73 160.834 222.369C160.825 222.63 161.221 222.622 161.229 222.369C161.541 214.059 161.65 205.74 161.575 197.43C161.49 189.153 161.221 180.885 160.75 172.625C160.488 167.986 160.16 163.355 159.781 158.733C159.748 158.48 159.352 158.48 159.377 158.733Z" fill="#873D15"/>
<path d="M171.688 161.579C173.052 165.418 174.264 169.308 175.325 173.24C176.386 177.172 177.295 181.146 178.045 185.154C178.794 189.162 179.4 193.195 179.838 197.245C180.276 201.295 180.562 205.361 180.688 209.437C180.815 213.512 180.781 217.587 180.587 221.654C180.562 222.159 180.537 222.656 180.512 223.161C180.495 223.422 180.899 223.413 180.907 223.161C181.143 219.077 181.21 214.977 181.126 210.885C181.042 206.81 180.789 202.743 180.385 198.685C179.981 194.635 179.425 190.593 178.71 186.585C177.994 182.578 177.127 178.587 176.108 174.646C175.081 170.681 173.902 166.757 172.563 162.892C172.403 162.421 172.235 161.941 172.067 161.469C171.991 161.234 171.603 161.343 171.688 161.579Z" fill="#873D15"/>
<path d="M130.834 142.045C133.04 142.424 135.246 142.794 137.461 143.114C139.684 143.434 141.915 143.704 144.154 143.872C146.36 144.041 148.575 144.108 150.789 144.032C152.97 143.956 155.159 143.729 157.298 143.3C159.436 142.879 161.541 142.247 163.545 141.388C163.798 141.279 164.042 141.169 164.294 141.06C164.53 140.951 164.328 140.605 164.092 140.715C162.122 141.616 160.059 142.289 157.946 142.752C155.833 143.224 153.669 143.485 151.505 143.594C149.316 143.704 147.127 143.67 144.937 143.527C142.715 143.384 140.492 143.14 138.286 142.828C136.097 142.525 133.908 142.163 131.727 141.792C131.457 141.75 131.188 141.7 130.919 141.649C130.691 141.616 130.582 142.003 130.834 142.045Z" fill="#873D15"/>
<path d="M140.376 123.572C143.053 121.922 145.865 120.49 148.77 119.295C151.675 118.099 154.681 117.139 157.737 116.424C159.446 116.02 161.181 115.7 162.924 115.455C163.176 115.422 163.067 115.034 162.814 115.068C159.682 115.506 156.584 116.196 153.569 117.139C150.572 118.074 147.642 119.244 144.83 120.642C143.238 121.433 141.681 122.301 140.165 123.227C139.963 123.362 140.157 123.707 140.376 123.572Z" fill="#56480D"/>
<path d="M144.745 124.953C146.597 123.673 148.559 122.553 150.605 121.619C152.668 120.684 154.807 119.926 157.004 119.371C158.234 119.059 159.488 118.807 160.743 118.621C160.995 118.588 160.886 118.2 160.633 118.234C158.385 118.571 156.171 119.101 154.024 119.834C151.877 120.566 149.789 121.484 147.802 122.579C146.682 123.202 145.587 123.875 144.535 124.608C144.333 124.759 144.535 125.105 144.745 124.953Z" fill="#56480D"/>
<path d="M137.966 133.28C138.227 134.282 138.479 135.284 138.74 136.286C138.808 136.538 139.187 136.429 139.128 136.176C138.867 135.174 138.614 134.173 138.353 133.171C138.286 132.926 137.898 133.027 137.966 133.28Z" fill="#56480D"/>
<path d="M139.886 133.6C140.24 134.333 140.409 135.149 140.383 135.958C140.375 136.219 140.779 136.219 140.779 135.958C140.804 135.074 140.611 134.198 140.232 133.398C140.114 133.162 139.769 133.364 139.886 133.6Z" fill="#56480D"/>
<path d="M157.029 132.918C156.919 133.735 156.801 134.543 156.692 135.36C156.675 135.469 156.717 135.57 156.835 135.604C156.928 135.629 157.062 135.57 157.079 135.461C157.189 134.644 157.307 133.836 157.416 133.019C157.433 132.91 157.391 132.809 157.273 132.775C157.18 132.75 157.046 132.809 157.029 132.918Z" fill="#56480D"/>
<path d="M158.932 133.465C158.839 133.92 158.738 134.375 158.645 134.821C158.62 134.93 158.679 135.04 158.789 135.065C158.89 135.09 159.016 135.031 159.033 134.922C159.125 134.467 159.226 134.013 159.319 133.566C159.344 133.457 159.285 133.347 159.176 133.322C159.075 133.297 158.957 133.356 158.932 133.465Z" fill="#56480D"/>
<path d="M151.8 134.594C151.8 135.141 151.8 135.68 151.8 136.227C151.8 136.488 152.196 136.488 152.196 136.227C152.196 135.68 152.196 135.141 152.196 134.594C152.204 134.341 151.8 134.341 151.8 134.594Z" fill="#56480D"/>
<path d="M165.264 90.1289C166.535 93.8251 167.478 97.6224 168.093 101.479C168.27 102.573 168.413 103.668 168.531 104.771C168.556 105.023 168.96 105.023 168.926 104.771C168.505 100.847 167.739 96.9657 166.645 93.1768C166.342 92.1159 166.005 91.0635 165.643 90.0194C165.567 89.7836 165.18 89.8847 165.264 90.1289Z" fill="#56480D"/>
<path d="M142.546 82.0123C142.142 82.9722 141.957 84.0162 141.99 85.0602C141.999 85.3128 142.403 85.3213 142.386 85.0602C142.352 84.0499 142.537 83.0479 142.925 82.1133C142.967 82.0123 142.883 81.8944 142.782 81.8692C142.681 81.8439 142.588 81.9197 142.546 82.0123Z" fill="#56480D"/>
<path d="M144.265 82.8963C144.222 83.713 144.189 84.5213 144.147 85.338C144.138 85.5991 144.534 85.5906 144.542 85.338C144.584 84.5213 144.618 83.713 144.66 82.8963C144.669 82.6353 144.273 82.6353 144.265 82.8963Z" fill="#56480D"/>
<path d="M146.69 82.8458C146.581 83.6626 146.463 84.4708 146.353 85.2876C146.336 85.397 146.378 85.4981 146.496 85.5317C146.589 85.557 146.724 85.4981 146.74 85.3886C146.85 84.5719 146.968 83.7636 147.077 82.9469C147.094 82.8374 147.052 82.7364 146.934 82.7027C146.842 82.6774 146.707 82.7364 146.69 82.8458Z" fill="#56480D"/>
<path d="M148.533 82.6185C148.533 83.4352 148.533 84.2519 148.533 85.0686C148.533 85.3296 148.929 85.3296 148.929 85.0686C148.929 84.2519 148.929 83.4352 148.929 82.6185C148.937 82.3575 148.533 82.3575 148.533 82.6185Z" fill="#56480D"/>
<path d="M150.713 82.3406C150.713 83.2499 150.713 84.1508 150.713 85.0601C150.713 85.3212 151.109 85.3212 151.109 85.0601C151.109 84.1508 151.109 83.2499 151.109 82.3406C151.109 82.088 150.713 82.088 150.713 82.3406Z" fill="#56480D"/>
<path d="M152.331 82.6185C152.406 83.2584 152.482 83.8898 152.558 84.5297C152.575 84.6392 152.642 84.7318 152.76 84.7318C152.861 84.7318 152.971 84.6392 152.962 84.5297C152.886 83.8898 152.811 83.2584 152.735 82.6185C152.718 82.509 152.651 82.4164 152.533 82.4164C152.432 82.4164 152.314 82.509 152.331 82.6185Z" fill="#56480D"/>
<path d="M169.247 74.9061C169.878 74.544 170.518 74.182 171.149 73.8115C171.368 73.6852 171.175 73.34 170.947 73.4663C170.316 73.8284 169.676 74.1904 169.044 74.5609C168.826 74.6956 169.028 75.0408 169.247 74.9061Z" fill="#56480D"/>
<path d="M170.584 75.9586C171.216 75.5965 171.856 75.2345 172.487 74.8724C172.715 74.7461 172.513 74.4009 172.285 74.5272C171.654 74.8893 171.014 75.2513 170.382 75.6134C170.163 75.7397 170.366 76.0849 170.584 75.9586Z" fill="#56480D"/>
<path d="M171.444 77.836C172.261 77.2045 173.077 76.5646 173.894 75.9331C173.978 75.8658 173.961 75.7226 173.894 75.6469C173.81 75.5627 173.7 75.5795 173.608 75.6469C172.791 76.2783 171.974 76.9182 171.158 77.5497C171.073 77.6171 171.09 77.7602 171.158 77.836C171.242 77.9202 171.351 77.9033 171.444 77.836Z" fill="#56480D"/>
<path d="M172.824 79.4946C173.371 79.04 173.91 78.5853 174.457 78.1306C174.541 78.0633 174.525 77.9201 174.457 77.8444C174.373 77.7602 174.255 77.777 174.171 77.8444C173.624 78.299 173.085 78.7537 172.537 79.2084C172.453 79.2757 172.47 79.4189 172.537 79.4946C172.622 79.5788 172.74 79.5704 172.824 79.4946Z" fill="#56480D"/>
<path d="M174.482 81.1618C174.936 80.7156 175.4 80.2609 175.854 79.8147C175.93 79.7389 175.93 79.6042 175.854 79.5284C175.778 79.4526 175.652 79.4526 175.568 79.5284C175.113 79.9746 174.65 80.4293 174.196 80.8756C174.12 80.9513 174.12 81.086 174.196 81.1618C174.28 81.2376 174.406 81.2376 174.482 81.1618Z" fill="#56480D"/>
<path d="M175.797 82.4669C176.345 82.0123 176.892 81.566 177.431 81.1113C177.515 81.044 177.498 80.9009 177.431 80.8251C177.347 80.7409 177.229 80.7577 177.145 80.8251C176.597 81.2797 176.05 81.726 175.511 82.1807C175.427 82.248 175.444 82.3911 175.511 82.4669C175.595 82.5511 175.713 82.5343 175.797 82.4669Z" fill="#56480D"/>
<path d="M177.455 83.5867C177.876 83.1741 178.407 82.8963 178.988 82.7868C179.097 82.77 179.156 82.6353 179.131 82.5427C179.097 82.4332 178.988 82.3827 178.887 82.3995C178.247 82.5258 177.649 82.8458 177.177 83.3004C176.992 83.4857 177.27 83.7635 177.455 83.5867Z" fill="#56480D"/>
<path d="M178.761 84.4119C179.308 84.0499 179.847 83.6878 180.394 83.3258C180.487 83.2668 180.52 83.149 180.47 83.0563C180.419 82.9637 180.285 82.9216 180.2 82.9806C179.653 83.3426 179.114 83.7047 178.567 84.0667C178.474 84.1256 178.441 84.2435 178.491 84.3361C178.533 84.4288 178.668 84.4709 178.761 84.4119Z" fill="#56480D"/>
<path d="M180.157 85.7508C180.611 85.2035 181.066 84.6646 181.521 84.1173C181.588 84.0331 181.605 83.9153 181.521 83.8311C181.453 83.7637 181.31 83.7469 181.234 83.8311C180.78 84.3783 180.325 84.9172 179.87 85.4645C179.803 85.5487 179.786 85.6666 179.87 85.7508C179.946 85.8181 180.089 85.8265 180.157 85.7508Z" fill="#56480D"/>
<path d="M106.536 93.522C107.024 93.9514 107.512 94.3724 108.009 94.8018C108.093 94.8691 108.211 94.886 108.295 94.8018C108.371 94.726 108.38 94.5913 108.295 94.5155C107.807 94.0861 107.319 93.6651 106.822 93.2357C106.738 93.1684 106.62 93.1515 106.536 93.2357C106.46 93.3115 106.451 93.4462 106.536 93.522Z" fill="#56480D"/>
<path d="M107.705 91.8717C107.747 92.6379 108.202 93.362 108.892 93.7157C108.985 93.7662 109.111 93.7409 109.162 93.6399C109.212 93.5473 109.187 93.4126 109.086 93.3705C108.522 93.0842 108.135 92.5032 108.101 91.8717C108.092 91.7623 108.017 91.6697 107.899 91.6697C107.806 91.6697 107.705 91.7623 107.705 91.8717Z" fill="#56480D"/>
<path d="M109.398 90.5499C109.701 91.3077 110.341 91.8971 111.124 92.116C111.368 92.1833 111.477 91.796 111.233 91.7287C110.593 91.5519 110.029 91.0551 109.785 90.4405C109.743 90.3394 109.65 90.2721 109.541 90.2973C109.44 90.331 109.356 90.4489 109.398 90.5499Z" fill="#56480D"/>
<path d="M110.619 88.6556C111.259 88.7903 111.857 89.0345 112.404 89.3881C112.623 89.5228 112.825 89.1776 112.606 89.0429C112.034 88.6724 111.394 88.4114 110.729 88.2767C110.619 88.2514 110.51 88.3104 110.484 88.4198C110.459 88.5124 110.518 88.6387 110.619 88.6556Z" fill="#56480D"/>
<path d="M111.949 85.9696C112.555 86.298 113.153 86.6264 113.759 86.9632C113.987 87.0895 114.189 86.7443 113.962 86.618C113.355 86.2896 112.758 85.9612 112.151 85.6328C111.924 85.4981 111.722 85.8433 111.949 85.9696Z" fill="#56480D"/>
<path d="M113.026 84.0919C113.725 84.4961 114.432 84.9002 115.131 85.3043C115.358 85.4306 115.552 85.0854 115.333 84.9591C114.634 84.555 113.927 84.1508 113.228 83.7467C113.009 83.6204 112.807 83.9656 113.026 84.0919Z" fill="#56480D"/>
<path d="M113.811 81.9702C114.443 82.4249 115.083 82.8795 115.714 83.3342C115.799 83.3931 115.933 83.351 115.984 83.2584C116.043 83.1574 116.001 83.0479 115.908 82.989C115.277 82.5343 114.637 82.0796 114.005 81.625C113.921 81.566 113.786 81.6081 113.736 81.7008C113.685 81.8018 113.727 81.9112 113.811 81.9702Z" fill="#56480D"/>
<path d="M114.408 79.9579C115.09 80.3115 115.781 80.6567 116.463 81.0104C116.69 81.1282 116.892 80.783 116.665 80.6651C115.983 80.3115 115.292 79.9663 114.61 79.6127C114.383 79.4948 114.181 79.84 114.408 79.9579Z" fill="#56480D"/>
<path d="M115.056 77.2551C115.056 77.2551 115.115 77.2299 115.082 77.2383C115.098 77.2299 115.115 77.2298 115.132 77.2214C115.166 77.213 115.208 77.1962 115.242 77.1877C115.258 77.1793 115.284 77.1793 115.3 77.1793C115.334 77.1709 115.3 77.1793 115.317 77.1793C115.351 77.1793 115.393 77.1709 115.427 77.1709C115.46 77.1709 115.503 77.1709 115.536 77.1793C115.545 77.1793 115.587 77.1878 115.553 77.1793C115.57 77.1793 115.595 77.1877 115.612 77.1877C115.688 77.2046 115.764 77.2214 115.831 77.2551C115.806 77.2467 115.839 77.2635 115.848 77.2635C115.865 77.2719 115.881 77.2804 115.898 77.2888C115.932 77.3056 115.974 77.3309 116.008 77.3477C116.025 77.3561 116.033 77.3646 116.05 77.373C116.058 77.3814 116.084 77.3982 116.067 77.3814C116.1 77.4067 116.134 77.4319 116.159 77.4656C116.185 77.4909 116.21 77.5161 116.227 77.5414C116.227 77.5414 116.269 77.5919 116.243 77.5666C116.252 77.5835 116.26 77.5919 116.269 77.6087C116.311 77.6761 116.345 77.7435 116.361 77.794C116.395 77.895 116.496 77.9624 116.606 77.9371C116.707 77.9118 116.782 77.794 116.749 77.6929C116.479 76.9436 115.553 76.5647 114.837 76.9183C114.736 76.9688 114.711 77.1036 114.762 77.1877C114.837 77.2804 114.955 77.2972 115.056 77.2551Z" fill="#56480D"/>
<path d="M129.816 108.156C129.555 108.955 129.075 109.654 128.435 110.193C128.351 110.26 128.359 110.404 128.435 110.479C128.519 110.564 128.637 110.547 128.721 110.479C129.412 109.898 129.925 109.124 130.203 108.265C130.279 108.021 129.892 107.911 129.816 108.156Z" fill="#56480D"/>
<path d="M177.161 92.2844C177.523 92.6464 177.885 93.0085 178.247 93.3705C178.323 93.4463 178.458 93.4463 178.534 93.3705C178.61 93.2948 178.61 93.1685 178.534 93.0843C178.172 92.7222 177.81 92.3602 177.448 91.9981C177.372 91.9223 177.237 91.9223 177.161 91.9981C177.086 92.0823 177.086 92.2002 177.161 92.2844Z" fill="#9A8728"/>
<path d="M178.372 90.5667C179.054 91.0803 179.736 91.5939 180.418 92.1075C180.502 92.1749 180.645 92.1244 180.687 92.0317C180.746 91.9307 180.704 91.8212 180.612 91.7623C179.93 91.2487 179.248 90.7351 178.566 90.2215C178.481 90.1541 178.338 90.2046 178.296 90.2973C178.246 90.3983 178.288 90.4993 178.372 90.5667Z" fill="#9A8728"/>
<path d="M110.494 97.4287C109.938 98.1444 109.382 98.8601 108.827 99.5757C108.759 99.6599 108.742 99.7778 108.827 99.862C108.894 99.9294 109.045 99.9462 109.113 99.862C109.669 99.1463 110.224 98.4307 110.78 97.715C110.847 97.6308 110.864 97.5129 110.78 97.4287C110.704 97.3614 110.561 97.3445 110.494 97.4287Z" fill="#9A8728"/>
<path d="M111.815 98.0183C111.444 98.5571 111.074 99.096 110.695 99.6349C110.636 99.7275 110.678 99.8538 110.771 99.9043C110.872 99.9632 110.981 99.9211 111.04 99.8285C111.411 99.2896 111.781 98.7508 112.16 98.2119C112.219 98.1193 112.177 97.993 112.084 97.9425C111.992 97.8835 111.882 97.9256 111.815 98.0183Z" fill="#9A8728"/>
<path d="M112.69 99.3569C112.152 99.8958 111.832 100.628 111.79 101.395C111.773 101.656 112.177 101.647 112.185 101.395C112.219 100.738 112.505 100.106 112.968 99.6348C113.154 99.458 112.867 99.1717 112.69 99.3569Z" fill="#9A8728"/>
<path d="M135.718 82.1386C135.811 82.5007 135.912 82.8627 136.005 83.2248C136.03 83.3258 136.148 83.4016 136.249 83.3679C136.35 83.3342 136.417 83.2332 136.392 83.1237C136.299 82.7617 136.198 82.3996 136.106 82.0376C136.08 81.9366 135.962 81.8608 135.861 81.8945C135.76 81.9197 135.693 82.0292 135.718 82.1386Z" fill="#9A8728"/>
<path d="M137.715 81.9365C137.328 82.3406 137.109 82.8795 137.092 83.4352C137.092 83.5446 137.184 83.6373 137.294 83.6373C137.403 83.6373 137.496 83.5446 137.496 83.4352C137.504 82.9889 137.681 82.5427 138.001 82.2227C138.077 82.147 138.077 82.0207 138.001 81.9365C137.925 81.8607 137.791 81.8607 137.715 81.9365Z" fill="#9A8728"/>
<path d="M112.664 76.3628C112.538 78.7708 111.654 81.1367 110.172 83.0396C109.751 83.5785 109.28 84.0837 108.774 84.5383C108.581 84.7151 108.867 84.993 109.061 84.8246C110.913 83.1575 112.218 80.901 112.782 78.4761C112.942 77.7857 113.043 77.0784 113.077 76.3628C113.077 76.1017 112.681 76.1017 112.664 76.3628Z" fill="#CC9C87"/>
<path d="M98.1175 39.4926C98.7995 38.3223 99.4731 37.1604 100.155 35.99C100.492 35.4175 100.82 34.8449 101.157 34.2724C101.443 33.7756 101.713 33.2452 102.058 32.7989C102.209 32.6053 102.395 32.4116 102.58 32.2853C102.698 32.2096 102.748 32.1843 102.866 32.1506C102.976 32.1254 103.06 32.1085 103.144 32.1254C103.068 32.0664 102.984 31.9991 102.908 31.9401C103.186 32.4621 103.195 33.0684 103.119 33.6409C103.035 34.2808 102.858 34.9207 102.698 35.5438C102.344 36.9162 101.957 38.2802 101.519 39.6273C101.266 40.402 100.997 41.1766 100.719 41.9428C100.643 42.1448 100.803 42.3806 100.997 42.4311C101.216 42.4901 101.418 42.3553 101.485 42.1533C101.982 40.7893 102.437 39.4168 102.841 38.0192C103.043 37.3203 103.237 36.6131 103.422 35.9058C103.59 35.2575 103.767 34.6008 103.868 33.9356C103.969 33.2873 104.003 32.6053 103.784 31.9738C103.733 31.8222 103.675 31.6623 103.59 31.5275C103.472 31.3339 103.245 31.3086 103.043 31.3171C102.748 31.3255 102.462 31.4181 102.218 31.5612C101.721 31.8643 101.359 32.3443 101.064 32.8326C100.686 33.4557 100.332 34.0872 99.9614 34.7186C99.1195 36.1752 98.2691 37.6234 97.4271 39.0801C97.1661 39.5347 97.8565 39.9389 98.1175 39.4926Z" fill="#CC9C87"/>
<path d="M160.666 27.5786C161.492 26.9639 162.376 26.4251 163.302 25.9704C164.211 25.5242 165.188 25.12 166.181 24.8927C166.628 24.7917 167.15 24.7496 167.554 24.9095C167.907 25.0527 168.194 25.3558 168.286 25.6841C168.328 25.8357 168.328 25.9788 168.253 26.1388C168.177 26.3156 168.034 26.4672 167.891 26.5935C167.537 26.9218 167.133 27.1913 166.729 27.4523C165.777 28.0585 164.75 28.5384 163.664 28.8668C163.175 29.0184 163.386 29.7846 163.874 29.6414C164.952 29.3131 165.996 28.85 166.956 28.2522C167.436 27.9575 167.907 27.6291 168.337 27.2671C168.741 26.9218 169.069 26.4756 169.103 25.9199C169.128 25.4063 168.85 24.9011 168.48 24.5643C168.051 24.1854 167.512 24.0086 166.948 24.0002C166.341 23.9918 165.744 24.1518 165.171 24.3454C164.624 24.5222 164.093 24.7327 163.563 24.9685C162.392 25.4821 161.289 26.1304 160.262 26.8882C160.085 27.0145 160.001 27.2334 160.119 27.4355C160.212 27.6038 160.49 27.7049 160.666 27.5786Z" fill="#CC9C87"/>
<path d="M167.284 20.6913C167.032 21.3396 166.535 21.8616 166.257 22.5015C166.004 23.0825 165.979 23.714 166.24 24.3034C166.501 24.8927 167.082 25.2548 167.73 25.1201C168.101 25.0443 168.446 24.8254 168.758 24.6317C169.069 24.4381 169.372 24.2276 169.667 24.0002C170.324 23.4866 170.905 22.8888 171.41 22.2321C171.646 21.9206 171.174 21.4491 170.863 21.6848C170.214 22.1647 169.667 22.7541 169.246 23.453C168.85 24.1097 168.53 24.8843 168.497 25.6589C168.463 26.4251 168.859 27.2334 169.667 27.3766C170.425 27.5113 171.208 27.1071 171.713 26.5683C172.26 25.9789 172.631 25.1622 173.346 24.7749C173.212 24.5475 173.077 24.3118 172.942 24.0844C172.328 24.4886 171.806 24.9854 171.359 25.5747C170.922 26.1473 170.559 26.8293 170.4 27.5365C170.231 28.2691 170.332 29.1026 170.938 29.6162C171.216 29.852 171.578 30.0035 171.949 29.9783C172.353 29.9446 172.698 29.7425 173.01 29.4983C173.363 29.2205 173.675 28.8921 174.003 28.589C174.365 28.2522 174.719 27.9238 175.081 27.5871C174.896 27.4018 174.702 27.2082 174.517 27.0229C173.927 27.6039 173.321 28.2101 172.925 28.9511C172.555 29.6331 172.336 30.475 172.605 31.2328C172.858 31.9232 173.38 32.5042 174.079 32.7568C174.761 33.0094 175.477 32.7568 175.931 32.2011C176.167 31.9148 176.344 31.5949 176.554 31.2917C176.58 31.2581 176.596 31.2244 176.622 31.1907C176.672 31.1149 176.605 31.2075 176.655 31.1486C176.714 31.0813 176.773 31.0139 176.841 30.955C176.925 30.8792 176.807 30.9802 176.857 30.9381C176.891 30.9129 176.925 30.8876 176.967 30.8708C176.975 30.8623 177.085 30.8202 177.009 30.8455C177.06 30.8287 177.11 30.8118 177.161 30.8034C177.371 30.7529 177.497 30.5087 177.438 30.3151C177.379 30.0961 177.161 29.9867 176.95 30.0372C176.319 30.1719 175.965 30.7192 175.645 31.2328C175.569 31.3507 175.493 31.4601 175.418 31.578C175.342 31.6875 175.443 31.5528 175.392 31.6117C175.376 31.637 175.35 31.6622 175.325 31.6875C175.275 31.7464 175.216 31.8053 175.157 31.8559C175.098 31.9148 174.98 31.9822 174.921 32.0074C174.862 32.0327 174.795 32.0495 174.727 32.0579C174.795 32.0495 174.736 32.0579 174.719 32.0579C174.668 32.0579 174.618 32.0579 174.567 32.0579C174.55 32.0579 174.492 32.0495 174.559 32.0579C174.517 32.0495 174.483 32.0411 174.441 32.0327C174.374 32.0158 174.315 31.999 174.256 31.9737C174.273 31.9822 174.315 31.999 174.239 31.9653C174.205 31.9485 174.163 31.9316 174.129 31.9064C174.079 31.8727 173.986 31.8138 173.961 31.7969C173.751 31.637 173.582 31.4349 173.456 31.1823C173.338 30.955 173.271 30.6939 173.287 30.4245C173.304 30.1046 173.405 29.7762 173.548 29.4899C173.911 28.749 174.508 28.1596 175.089 27.5871C175.46 27.225 174.896 26.6693 174.525 27.0229C173.978 27.5365 173.431 28.0501 172.875 28.5553C172.656 28.7574 172.446 28.9679 172.176 29.111C172.075 29.1615 171.974 29.1868 171.856 29.1868C171.78 29.1868 171.662 29.1531 171.578 29.1026C171.41 29.0016 171.258 28.8079 171.191 28.6227C171.098 28.3448 171.115 28.0417 171.174 27.7639C171.309 27.1829 171.604 26.6272 171.949 26.1389C172.328 25.6084 172.808 25.1453 173.355 24.7917C173.784 24.5139 173.405 23.8571 172.951 24.1013C172.328 24.4381 171.932 25.019 171.519 25.5747C171.157 26.0547 170.753 26.4841 170.164 26.6104C169.97 26.6525 169.726 26.6188 169.583 26.5009C169.389 26.3409 169.313 26.1052 169.305 25.8694C169.28 25.2632 169.532 24.6233 169.827 24.0844C170.181 23.4361 170.677 22.8467 171.267 22.4005C171.082 22.2153 170.905 22.0384 170.719 21.8532C169.962 22.8383 168.968 23.6803 167.865 24.2444C167.756 24.3034 167.629 24.3539 167.503 24.3707C167.469 24.3707 167.436 24.3707 167.402 24.3707C167.385 24.3707 167.326 24.3623 167.394 24.3707C167.368 24.3707 167.343 24.3623 167.318 24.3539C167.309 24.3539 167.208 24.3118 167.276 24.3455C167.234 24.3202 167.192 24.3034 167.15 24.2697C167.208 24.3118 167.107 24.2276 167.091 24.2107C167.074 24.1939 167.057 24.1771 167.04 24.1518C167.082 24.2023 167.04 24.1518 167.032 24.1434C166.998 24.0929 166.964 24.0339 166.939 23.975C166.931 23.9666 166.905 23.9076 166.931 23.9666C166.922 23.9413 166.914 23.9161 166.905 23.8908C166.889 23.8403 166.872 23.7898 166.863 23.7392C166.863 23.7308 166.83 23.5793 166.838 23.6466C166.83 23.5793 166.83 23.5119 166.821 23.4445C166.821 23.3856 166.821 23.3351 166.83 23.2846C166.838 23.2004 166.83 23.2509 166.83 23.2677C166.838 23.2425 166.838 23.2172 166.846 23.192C166.872 23.0657 166.914 22.9478 166.973 22.8299C167.276 22.1647 167.764 21.609 168.042 20.927C168.118 20.725 167.958 20.4892 167.764 20.4387C167.554 20.3545 167.368 20.4892 167.284 20.6913Z" fill="#CC9C87"/>
<path d="M172.177 28.7743C170.552 30.3741 169.945 32.8579 170.501 35.0554C170.661 35.6785 170.914 36.2763 171.259 36.8236C171.377 37.0088 171.613 37.0762 171.806 36.9667C171.991 36.8573 172.067 36.6047 171.949 36.4194C170.872 34.7271 170.83 32.479 171.739 30.7109C172.008 30.1888 172.328 29.751 172.741 29.3469C173.103 28.9764 172.539 28.4123 172.177 28.7743Z" fill="#CC9C87"/>
<path d="M166.838 29.1869C168.32 29.7173 169.347 31.2581 169.322 32.8158C169.314 33.3294 170.114 33.3294 170.122 32.8158C170.156 30.8793 168.867 29.0606 167.049 28.4123C166.847 28.3365 166.611 28.4965 166.56 28.6901C166.493 28.909 166.628 29.1111 166.838 29.1869Z" fill="#CC9C87"/>
<path d="M93.5362 40.9491C94.7991 42.1784 95.6243 43.8539 95.7842 45.6137C95.8011 45.8326 95.9527 46.0094 96.18 46.0094C96.3821 46.0094 96.6009 45.8242 96.5757 45.6137C96.3989 43.6434 95.5232 41.7658 94.0919 40.385C93.7298 40.023 93.1657 40.5871 93.5362 40.9491Z" fill="#CC9C87"/>
<path d="M85.6053 40.7135C86.2789 41.345 86.9609 41.9764 87.6345 42.6079C87.946 42.9026 88.2576 43.2141 88.5943 43.4752C88.9143 43.7278 89.2931 43.9298 89.7141 43.913C90.0846 43.8961 90.4551 43.7362 90.6656 43.4162C90.935 43.0289 90.8087 42.5658 90.6403 42.1701C90.3035 41.3955 89.9162 40.6461 89.4868 39.9304C88.9985 39.1053 88.4512 38.3223 87.8618 37.5729C87.6766 37.7582 87.4829 37.9518 87.2977 38.137C87.9376 38.819 88.6112 39.4674 89.31 40.082C89.6636 40.3935 90.0257 40.7135 90.413 40.9913C90.7582 41.2355 91.1708 41.4207 91.6002 41.4123C92.0128 41.4039 92.4253 41.2271 92.6779 40.8903C92.9642 40.5114 92.9221 40.0231 92.7537 39.6021C92.4253 38.7517 91.9959 37.9265 91.5413 37.1267C91.0361 36.2342 90.4804 35.3754 89.8657 34.5587C89.7394 34.3903 89.5205 34.2976 89.3184 34.4155C89.1416 34.5166 89.0574 34.7776 89.1753 34.9628C90.2194 36.571 91.5244 38.0107 93.0399 39.1895C93.242 39.3411 93.4525 39.4758 93.7051 39.4926C93.9409 39.5095 94.1682 39.4253 94.3366 39.2569C94.6313 38.979 94.7239 38.5328 94.7239 38.137C94.7155 37.2446 94.4966 36.3605 94.1261 35.5522C93.722 34.6681 93.1073 33.8598 92.3579 33.2452C92.2064 33.1189 91.9959 33.0852 91.8359 33.2115C91.6844 33.3294 91.6254 33.5567 91.7349 33.7251C92.2653 34.5755 92.8463 35.3922 93.4694 36.1668C93.7809 36.5626 94.1092 36.9414 94.446 37.3119C94.7407 37.6403 95.0354 37.9602 95.4059 38.2044C95.7595 38.4402 96.1889 38.6001 96.6183 38.5412C97.0477 38.4738 97.3845 38.1202 97.4687 37.6992C97.5698 37.2277 97.435 36.7225 97.3508 36.251C97.2582 35.729 97.1488 35.207 97.0309 34.6849C96.7699 33.5399 96.45 32.4116 96.0711 31.3086C96.0037 31.1066 95.7932 30.9718 95.5827 31.0308C95.3806 31.0813 95.2375 31.3171 95.3049 31.5191C95.9195 33.321 96.391 35.1733 96.6857 37.0593C96.7025 37.1856 96.7194 37.3708 96.7026 37.4887C96.6941 37.5561 96.6773 37.615 96.6352 37.6655C96.652 37.6487 96.5762 37.7245 96.5762 37.7245C96.6352 37.674 96.4668 37.775 96.551 37.7413C96.5173 37.7497 96.492 37.7582 96.4584 37.7666C96.3994 37.775 96.5426 37.775 96.4331 37.7666C96.4331 37.7666 96.2984 37.7582 96.3742 37.7666C96.3405 37.7582 96.3068 37.7497 96.2731 37.7413C96.1048 37.6992 96.0037 37.6403 95.8437 37.5477C95.5406 37.354 95.2964 37.0677 95.0438 36.7983C94.7323 36.4531 94.4292 36.1079 94.1429 35.7458C93.5199 34.9712 92.9473 34.1629 92.4169 33.321C92.2064 33.4809 91.9959 33.6409 91.7854 33.8093C92.9389 34.7439 93.7304 36.1331 93.8903 37.6066C93.9072 37.7918 93.924 37.9855 93.924 38.1707C93.924 38.3307 93.9156 38.3981 93.8483 38.5664C93.8735 38.5075 93.7725 38.7433 93.7977 38.6591C93.7893 38.6675 93.7893 38.6675 93.7809 38.6759C93.764 38.6927 93.7641 38.6927 93.7893 38.6675C93.7809 38.6759 93.7725 38.6843 93.7557 38.6843C93.7978 38.6675 93.7978 38.6675 93.7557 38.6843C93.8314 38.6759 93.7641 38.6927 93.7472 38.6843C93.7556 38.6843 93.7051 38.6759 93.6967 38.6675C93.6125 38.6338 93.5283 38.558 93.4609 38.4991C92.7958 37.9686 92.1727 37.3961 91.6002 36.773C90.9519 36.0742 90.3709 35.3333 89.8489 34.5334C89.6215 34.6681 89.3858 34.8028 89.1585 34.9375C90.1436 36.2594 90.994 37.674 91.6928 39.1642C91.7686 39.3242 91.8444 39.4926 91.9117 39.661C91.9875 39.8294 92.0717 40.0231 92.0717 40.2083C92.0717 40.2841 92.0548 40.3178 92.038 40.3599C91.9959 40.4356 92.0043 40.4188 91.9454 40.4693C91.9622 40.4609 91.9959 40.4356 91.9201 40.4862C91.8864 40.5114 91.8444 40.5283 91.8107 40.5451C91.8275 40.5367 91.8528 40.5282 91.7854 40.5535C91.7433 40.5703 91.7012 40.5788 91.6591 40.5872C91.7265 40.5788 91.5834 40.5956 91.5918 40.5872C91.5665 40.5872 91.5328 40.5872 91.5075 40.5872C91.3897 40.5788 91.5749 40.6124 91.4318 40.5788C91.3981 40.5703 91.356 40.5619 91.3223 40.5535C91.1371 40.4946 90.9771 40.3935 90.8171 40.2841C90.4972 40.0652 90.2109 39.7957 89.9163 39.5431C89.2006 38.9201 88.5101 38.2549 87.8534 37.5561C87.7018 37.3961 87.4408 37.4045 87.2892 37.5561C87.1209 37.7245 87.1545 37.9518 87.2892 38.1202C88.1986 39.2821 88.9816 40.5535 89.63 41.8838C89.7057 42.0438 89.7815 42.2122 89.8573 42.3722C89.9162 42.5069 90.0004 42.65 90.0173 42.8016C90.0257 42.8353 90.0173 42.8858 90.0173 42.9195C90.0173 42.9279 90.0004 42.9868 90.0089 42.9531C90.0173 42.911 89.9668 43.0121 90.0089 42.9616C89.992 42.9784 89.9752 43.0037 89.9583 43.0205C89.9415 43.0373 89.9078 43.0542 89.8825 43.071C89.9246 43.0542 89.8067 43.0963 89.8152 43.0963C89.7983 43.0963 89.6889 43.1215 89.7563 43.1131C89.6973 43.1215 89.6384 43.1215 89.5879 43.1131C89.6552 43.1215 89.5542 43.1047 89.5458 43.0963C89.5037 43.0879 89.4531 43.071 89.4195 43.0542C89.3016 43.0037 89.1837 42.9195 89.0827 42.8353C88.7795 42.5911 88.5017 42.3048 88.207 42.0354C87.5334 41.4039 86.8515 40.7724 86.1779 40.1409C85.799 39.7957 85.2348 40.3599 85.6053 40.7135Z" fill="#CC9C87"/>
<path d="M160.776 25.2969C161.408 24.9937 162.174 25.0274 162.78 25.381C162.999 25.5073 163.201 25.1621 162.982 25.0358C162.25 24.6064 161.34 24.5812 160.582 24.9516C160.481 25.0022 160.456 25.1369 160.507 25.2211C160.557 25.3221 160.675 25.3474 160.776 25.2969Z" fill="#CC9C87"/>
<path d="M100.558 31.679C99.3285 31.78 98.1666 32.4957 97.5604 33.5819C97.2657 34.1207 97.0973 34.8027 97.2994 35.4005C97.4678 35.9057 97.8719 36.2425 98.4108 36.293C98.916 36.3435 99.4633 36.0825 99.5811 35.5521C99.6401 35.2995 99.2528 35.1984 99.1938 35.4426C99.118 35.7794 98.7813 35.9057 98.4613 35.8889C98.0487 35.872 97.7625 35.5858 97.653 35.19C97.392 34.1965 98.175 33.1609 98.9497 32.6388C99.4296 32.3189 99.9769 32.1084 100.558 32.0663C100.81 32.0579 100.819 31.6621 100.558 31.679Z" fill="#CC9C87"/>
<path d="M111.091 39.2484C111.453 39.5178 111.816 39.7957 112.178 40.0651C112.262 40.124 112.405 40.0819 112.447 39.9893C112.506 39.8883 112.464 39.7872 112.371 39.7199C112.009 39.4505 111.647 39.1726 111.285 38.9032C111.201 38.8442 111.058 38.8863 111.016 38.979C110.965 39.08 110.999 39.181 111.091 39.2484Z" fill="#CC9C87"/>
<path d="M152.087 31.056C152.727 30.6098 153.367 30.1636 154.007 29.7173C154.091 29.6584 154.133 29.5405 154.083 29.4479C154.032 29.3637 153.897 29.3132 153.813 29.3721C153.173 29.8183 152.533 30.2646 151.894 30.7108C151.809 30.7698 151.767 30.8876 151.818 30.9803C151.86 31.0729 151.995 31.1234 152.087 31.056Z" fill="#CC9C87"/>
<path d="M131.508 3.74233C132.215 1.92367 133.798 0.273396 135.895 0.416532C136.796 0.47547 137.638 0.930136 138.135 1.68791C138.589 2.38675 138.724 3.24556 138.665 4.06228C138.631 4.49169 138.547 4.91267 138.412 5.31682C138.278 5.72939 138.084 6.20089 137.789 6.52926C137.478 6.88289 137.006 6.86605 136.636 6.60504C136.232 6.32719 136.097 5.80517 136.089 5.34208C136.063 3.49816 137.427 1.73001 139.103 1.07327C140.846 0.391272 142.925 0.888037 144.222 2.22678C144.382 2.38675 144.525 2.56357 144.66 2.7488C144.811 2.95929 145.157 2.75722 145.005 2.54673C143.793 0.845939 141.528 -0.012875 139.499 0.525988C137.52 1.04801 135.954 2.84984 135.718 4.88741C135.651 5.4347 135.701 6.0325 135.996 6.504C136.257 6.91657 136.728 7.21126 137.225 7.20284C137.806 7.19442 138.16 6.7566 138.412 6.28509C138.64 5.8641 138.808 5.40102 138.918 4.93793C139.128 4.02018 139.128 3.01823 138.791 2.13416C138.438 1.21641 137.739 0.500729 136.804 0.189199C135.769 -0.16443 134.59 -0.00445524 133.647 0.517569C132.687 1.04801 131.946 1.91525 131.449 2.8751C131.323 3.11927 131.214 3.37186 131.112 3.63287C131.028 3.87705 131.416 3.97808 131.508 3.74233Z" fill="#C69C6D"/>
<path d="M125.884 16.2372C126.12 17.7443 127.273 19.2262 128.848 19.4704C130.245 19.6893 131.862 18.7631 132.131 17.3233C132.3 16.4561 131.946 15.4963 131.155 15.0584C131.045 14.9995 130.894 15.05 130.86 15.1763C130.65 16.1193 131.23 16.995 132.022 17.4665C132.965 18.0222 134.068 17.9127 135.053 17.5423C135.676 17.3065 136.257 16.9781 136.838 16.6498C137.065 16.5235 136.863 16.1783 136.636 16.3046C135.752 16.8097 134.809 17.3486 133.782 17.4412C132.931 17.517 132.056 17.2139 131.542 16.5151C131.281 16.1614 131.146 15.7236 131.247 15.2774C131.146 15.3195 131.054 15.3531 130.953 15.3952C131.559 15.732 131.845 16.4561 131.761 17.1213C131.677 17.7359 131.281 18.2748 130.776 18.62C130.254 18.9736 129.614 19.1589 128.982 19.0831C128.326 18.9989 127.719 18.6452 127.265 18.1737C126.726 17.618 126.381 16.8855 126.263 16.1193C126.229 15.8752 125.85 15.9846 125.884 16.2372Z" fill="#C69C6D"/>
<path d="M118.93 12.5157C119.132 11.4717 119.545 10.4866 120.159 9.61932C120.395 9.28254 120.715 8.92049 121.102 8.77735C121.54 8.61738 121.978 8.76051 122.365 8.98784C123.148 9.45093 123.813 10.2676 124.024 11.1517C124.209 11.9095 123.982 12.8609 123.274 13.2819C123.19 13.3324 123.258 13.2567 123.274 13.2988C123.283 13.3156 123.232 13.2735 123.232 13.2651C123.165 13.1977 123.114 13.0883 123.064 12.9956C122.963 12.8104 122.896 12.6504 122.837 12.4399C122.71 12.019 122.668 11.6232 122.702 11.177C122.752 10.3434 123.106 9.48461 123.679 8.86155C124.899 7.54807 126.92 7.11866 128.587 7.65753C129.37 7.91012 130.111 8.40688 130.456 9.1815C130.861 10.0824 130.583 11.1349 130.221 12.0021C130.12 12.2547 129.993 12.4905 129.876 12.7346C129.774 12.9283 129.825 13.1725 130.019 13.2819C130.195 13.3829 130.465 13.3324 130.566 13.1388C131.13 12.0526 131.602 10.8318 131.399 9.58565C131.231 8.48266 130.431 7.61543 129.446 7.14392C127.484 6.20933 124.942 6.5798 123.35 8.06167C122.55 8.80261 122.062 9.8214 121.927 10.9075C121.86 11.4211 121.894 11.96 122.02 12.4652C122.087 12.7262 122.18 12.9788 122.289 13.223C122.416 13.484 122.567 13.7618 122.803 13.9387C123.384 14.3596 124.024 13.7955 124.361 13.3409C124.681 12.9114 124.84 12.381 124.874 11.8506C124.95 10.7055 124.318 9.61933 123.502 8.86155C123.064 8.4574 122.533 8.08693 121.936 7.96064C121.313 7.83434 120.723 7.98589 120.227 8.3732C119.78 8.72683 119.435 9.21518 119.149 9.70352C118.829 10.2424 118.568 10.8233 118.383 11.4211C118.29 11.7074 118.214 12.0021 118.164 12.2968C118.122 12.5073 118.223 12.7262 118.441 12.7851C118.635 12.8441 118.888 12.7262 118.93 12.5157Z" fill="#C69C6D"/>
<path d="M115.006 15.7658C114.147 15.3617 113.229 15.6817 112.547 16.2795C111.848 16.9025 111.469 17.8203 111.368 18.738C111.267 19.6726 111.537 20.6072 112.135 21.3229C112.69 21.988 113.532 22.4343 114.4 22.4595C115.999 22.5016 117.279 21.0871 117.565 19.5968C117.725 18.7717 117.641 17.8876 117.043 17.2561C116.749 16.953 116.344 16.7425 115.915 16.8267C115.418 16.9278 115.149 17.4077 115.107 17.8708C115.023 18.7464 115.654 19.5716 116.395 19.9505C117.287 20.4051 118.315 20.2872 119.19 19.8663C119.401 19.7652 119.603 19.6473 119.797 19.5126C119.973 19.3863 120.058 19.159 119.94 18.9654C119.839 18.7885 119.569 18.6959 119.392 18.8222C118.786 19.2432 118.02 19.5632 117.279 19.42C116.707 19.3106 116.151 18.9233 115.974 18.3928C115.881 18.115 115.839 17.8287 116.041 17.6182C116.025 17.635 116.008 17.635 116.067 17.6098C115.999 17.6435 116.1 17.6014 116.117 17.5929C116.083 17.6014 116.075 17.6182 116.117 17.5929C116.126 17.5929 116.142 17.5929 116.151 17.5929C116.109 17.5845 116.109 17.5845 116.151 17.5929C116.243 17.6182 116.345 17.6771 116.429 17.7613C116.639 17.9634 116.757 18.2076 116.808 18.5023C116.816 18.5444 116.816 18.578 116.824 18.6538C116.833 18.7296 116.833 18.797 116.833 18.8727C116.833 19.0159 116.816 19.2095 116.808 19.2937C116.707 19.8999 116.454 20.4472 116.075 20.8682C115.865 21.104 115.696 21.2471 115.435 21.3902C115.292 21.466 115.233 21.4997 115.115 21.5418C115.048 21.567 114.981 21.5839 114.913 21.6007C114.871 21.6091 114.829 21.6176 114.787 21.626C114.778 21.626 114.661 21.6428 114.728 21.6344C113.406 21.7944 112.244 20.6493 112.151 19.3442C112.093 18.5612 112.337 17.6855 112.85 17.0962C113.086 16.8267 113.389 16.5826 113.692 16.4647C113.869 16.3973 114.021 16.3637 114.172 16.3637C114.324 16.3637 114.458 16.3805 114.593 16.4478C114.787 16.5405 115.023 16.5068 115.14 16.3047C115.25 16.1363 115.199 15.8585 115.006 15.7658Z" fill="#C69C6D"/>
<path d="M134.32 10.2424C134.312 10.3097 134.329 10.1918 134.337 10.175C134.345 10.1329 134.354 10.0992 134.371 10.0655C134.379 10.0487 134.387 10.0319 134.387 10.015C134.362 10.074 134.387 10.015 134.396 10.0066C134.413 9.9645 134.438 9.93082 134.463 9.88873C134.472 9.87189 134.539 9.77927 134.505 9.82979C134.531 9.79611 134.556 9.77085 134.581 9.74559C134.615 9.71191 134.648 9.67823 134.682 9.65297C134.741 9.60246 134.691 9.63613 134.758 9.59404C134.825 9.54352 134.901 9.50142 134.977 9.45932C134.994 9.4509 135.078 9.41722 135.027 9.43406C135.078 9.41722 135.128 9.40038 135.179 9.38354C135.213 9.37512 135.255 9.3667 135.297 9.35828C135.322 9.34986 135.347 9.34986 135.373 9.34144C135.364 9.34144 135.314 9.34986 135.364 9.34144C135.457 9.33302 135.541 9.33302 135.634 9.33302C135.65 9.33302 135.676 9.33302 135.693 9.34144C135.676 9.34144 135.625 9.3246 135.701 9.34144C135.735 9.34986 135.777 9.35828 135.81 9.3667C135.836 9.37512 135.928 9.4088 135.911 9.40038C135.895 9.39196 135.979 9.43406 136.004 9.4509C136.122 9.52668 136.215 9.61929 136.29 9.72875C136.307 9.76243 136.332 9.79611 136.349 9.82979C136.358 9.84663 136.366 9.86347 136.375 9.88031C136.4 9.93924 136.358 9.82979 136.375 9.88873C136.408 9.97292 136.425 10.0571 136.45 10.1413C136.45 10.1582 136.459 10.175 136.459 10.2003C136.459 10.1918 136.45 10.1413 136.459 10.1918C136.467 10.2339 136.467 10.2845 136.467 10.3266C136.467 10.3687 136.467 10.4023 136.467 10.4444C136.467 10.4697 136.45 10.596 136.467 10.5286C136.45 10.6212 136.433 10.7139 136.4 10.8065C136.391 10.8233 136.391 10.8402 136.383 10.857C136.341 10.9665 136.4 10.8233 136.375 10.8823C136.358 10.9244 136.332 10.958 136.316 11.0001C136.29 11.0422 136.265 11.0843 136.231 11.1264C136.265 11.0759 136.189 11.1685 136.172 11.1854C136.139 11.219 136.105 11.2443 136.071 11.278C136.021 11.3201 136.114 11.2527 136.063 11.2864C136.038 11.3032 136.012 11.3201 135.979 11.3369C135.667 11.5222 135.76 11.96 136.071 12.0694C136.627 12.2631 137.217 12.2631 137.797 12.2547C138.067 12.2547 138.387 12.2547 138.623 12.2799C138.791 12.2968 139.027 12.3641 139.212 12.4315C139.33 12.482 139.557 12.6083 139.65 12.6925C139.683 12.7262 139.726 12.7599 139.759 12.7935C139.776 12.8104 139.785 12.8272 139.801 12.8441C139.843 12.8946 139.776 12.8104 139.818 12.8609C139.843 12.903 139.869 12.9451 139.894 12.9872C139.902 13.004 139.911 13.0209 139.919 13.0461C139.944 13.1051 139.902 13.004 139.928 13.063C139.995 13.2482 139.995 13.3829 139.936 13.5513C139.894 13.686 139.793 13.8376 139.683 13.9555C139.364 14.3007 138.926 14.528 138.479 14.7385C138.286 14.8311 138.235 15.109 138.336 15.2858C138.454 15.4879 138.69 15.5215 138.884 15.4289C139.751 15.0248 140.862 14.3175 140.761 13.2145C140.652 12.0526 139.431 11.5306 138.404 11.4716C137.696 11.4295 136.964 11.539 136.282 11.3032C136.316 11.5474 136.349 11.7916 136.375 12.0358C137.25 11.5137 137.486 10.3097 137.031 9.43406C136.543 8.47421 135.314 8.30581 134.446 8.84468C133.933 9.16463 133.604 9.66139 133.537 10.2508C133.512 10.4697 133.739 10.6465 133.933 10.6465C134.152 10.6381 134.295 10.4528 134.32 10.2424Z" fill="#C69C6D"/>
<path d="M174.618 53.1073C177.018 51.6254 180.108 51.3813 182.709 52.4674C185.53 53.6462 187.416 56.2563 190.06 57.7297C191.584 58.5801 193.352 59.0937 195.086 58.6812C195.583 58.5633 195.373 57.7887 194.876 57.9066C193.428 58.2518 191.946 57.8308 190.666 57.1488C189.31 56.4247 188.165 55.4143 187.003 54.4208C185.841 53.4273 184.629 52.4422 183.215 51.8191C181.867 51.2213 180.385 50.9434 178.912 51.0024C177.262 51.0697 175.628 51.5412 174.222 52.4169C173.776 52.6863 174.172 53.3852 174.618 53.1073Z" fill="#C69C6D"/>
<path d="M179.4 55.0439C181.766 56.8288 184.317 58.3612 187.003 59.6158C187.778 59.9778 188.561 60.3146 189.361 60.6346C189.563 60.7188 189.799 60.5504 189.849 60.3567C189.908 60.1294 189.773 59.9441 189.571 59.8684C186.86 58.7906 184.267 57.4182 181.842 55.8016C181.151 55.3385 180.469 54.8586 179.813 54.3619C179.644 54.2356 179.366 54.3366 179.265 54.505C179.131 54.7071 179.223 54.9176 179.4 55.0439Z" fill="#C69C6D"/>
<path d="M186.457 51.3981C188.225 51.6675 189.934 52.2148 191.517 53.0399C191.711 53.141 191.955 53.0905 192.065 52.8968C192.166 52.72 192.115 52.4506 191.921 52.3495C190.28 51.4907 188.503 50.9013 186.668 50.6235C186.457 50.5898 186.238 50.674 186.179 50.9013C186.12 51.095 186.238 51.3644 186.457 51.3981Z" fill="#C69C6D"/>
<path d="M160.161 52.1981C163.495 52.1812 166.821 52.1728 170.155 52.156C171.089 52.156 172.016 52.1475 172.95 52.1475C173.464 52.1475 173.464 51.3477 172.95 51.3477C169.616 51.3645 166.29 51.3729 162.956 51.3898C162.021 51.3898 161.095 51.3982 160.161 51.3982C159.647 51.3982 159.647 52.1981 160.161 52.1981Z" fill="#C69C6D"/>
<path d="M162.787 52.7369C161.347 55.6754 160.775 59.0348 161.187 62.2849C161.305 63.211 161.49 64.1204 161.76 65.0128C161.911 65.5012 162.678 65.2991 162.535 64.8024C161.634 61.8049 161.642 58.5717 162.535 55.5743C162.779 54.7408 163.099 53.9325 163.478 53.1494C163.57 52.9558 163.528 52.72 163.334 52.6021C163.158 52.4927 162.88 52.5432 162.787 52.7369Z" fill="#C69C6D"/>
<path d="M164.413 53.7725C164.295 56.5847 164.177 59.3969 164.051 62.209C164.043 62.428 164.245 62.6048 164.447 62.6048C164.674 62.6048 164.834 62.4195 164.842 62.209C164.96 59.3969 165.078 56.5847 165.205 53.7725C165.213 53.5536 165.011 53.3767 164.809 53.3767C164.581 53.3683 164.421 53.5536 164.413 53.7725Z" fill="#C69C6D"/>
<path d="M167.106 56.492C167.106 57.494 167.106 58.4875 167.106 59.4894C167.106 60.0031 167.906 60.0031 167.906 59.4894C167.906 58.4875 167.906 57.494 167.906 56.492C167.906 55.9784 167.106 55.9784 167.106 56.492Z" fill="#C69C6D"/>
<path d="M154.495 44.3761C156.507 45.3191 158.284 46.7588 159.597 48.5523C159.976 49.0659 160.321 49.6131 160.624 50.1773C160.868 50.6319 161.559 50.2278 161.315 49.7731C160.203 47.7019 158.561 45.9337 156.6 44.6371C156.061 44.2834 155.488 43.9635 154.899 43.6856C154.705 43.593 154.469 43.6351 154.352 43.8288C154.251 44.0056 154.293 44.2834 154.495 44.3761Z" fill="#C69C6D"/>
<path d="M158.772 43.4667C160.507 44.9149 161.845 46.8093 162.603 48.9395C162.679 49.1416 162.873 49.2763 163.092 49.2174C163.285 49.1669 163.445 48.9311 163.369 48.729C162.746 46.9693 161.761 45.3443 160.482 43.9803C160.119 43.593 159.741 43.2394 159.336 42.8942C159.168 42.7594 158.932 42.7342 158.772 42.8942C158.629 43.0457 158.604 43.3236 158.772 43.4667Z" fill="#C69C6D"/>
<path d="M163.235 44.5696C164.523 45.2516 165.457 46.4641 165.794 47.8786C165.845 48.0891 166.08 48.2154 166.283 48.1564C166.501 48.0975 166.611 47.8786 166.56 47.6681C166.182 46.0599 165.095 44.6454 163.63 43.8792C163.437 43.7782 163.192 43.8287 163.083 44.0223C162.99 44.1992 163.041 44.4686 163.235 44.5696Z" fill="#C69C6D"/>
<path d="M156.44 73.1378C157.914 72.7253 159.446 72.5737 160.979 72.6832C161.198 72.7 161.374 72.4895 161.374 72.2875C161.374 72.0601 161.189 71.9001 160.979 71.8917C159.387 71.7823 157.771 71.9507 156.23 72.3801C155.733 72.5064 155.944 73.281 156.44 73.1378Z" fill="#A46E4A"/>
<path d="M158.46 72.7506C158.645 73.0201 158.822 73.2979 159.007 73.5674C159.066 73.6516 159.142 73.7189 159.243 73.7526C159.335 73.7778 159.47 73.7694 159.554 73.7105C159.639 73.6515 159.714 73.5758 159.74 73.4747C159.765 73.3737 159.756 73.2558 159.697 73.1632C159.512 72.8938 159.335 72.6159 159.15 72.3465C159.091 72.2623 159.015 72.1949 158.914 72.1613C158.822 72.136 158.687 72.1444 158.603 72.2034C158.519 72.2623 158.443 72.3381 158.418 72.4391C158.392 72.5401 158.401 72.658 158.46 72.7506Z" fill="#A46E4A"/>
<path d="M126.549 68.5826C127.846 72.0431 128.958 75.5626 129.884 79.141C130.145 80.1513 130.389 81.1701 130.625 82.1889C130.675 82.3994 130.911 82.5257 131.113 82.4668C131.332 82.4078 131.441 82.1889 131.391 81.9784C130.574 78.3748 129.564 74.8216 128.377 71.3274C128.04 70.3339 127.686 69.3572 127.316 68.3721C127.24 68.17 127.046 68.0353 126.827 68.0943C126.634 68.1448 126.474 68.3805 126.549 68.5826Z" fill="#A8938E"/>
<path d="M154.992 93.8756C156.895 93.6735 158.797 93.4631 160.7 93.261C160.911 93.2357 161.096 93.0926 161.096 92.8653C161.096 92.6632 160.911 92.4443 160.7 92.4695C158.797 92.6716 156.895 92.8821 154.992 93.0842C154.781 93.1094 154.596 93.2526 154.596 93.4799C154.588 93.6735 154.773 93.8925 154.992 93.8756Z" fill="#A8938E"/>
<path d="M124.892 92.2001C127.469 91.7707 130.096 91.6865 132.689 91.9307C132.908 91.9475 133.085 91.7286 133.085 91.535C133.085 91.2992 132.899 91.1561 132.689 91.1392C130.02 90.8867 127.326 90.9961 124.673 91.4424C124.463 91.476 124.345 91.7455 124.395 91.9307C124.463 92.1412 124.682 92.2338 124.892 92.2001Z" fill="#A8938E"/>
</svg>
