<svg width="363" height="288" viewBox="0 0 363 288" fill="none" xmlns="http://www.w3.org/2000/svg">
<circle cx="179" cy="144" r="110" fill="#432564" fill-opacity="0.1"/>
<path d="M42 144C42 68.337 103.337 7.00001 179 7.00001C254.663 7.00001 316 68.337 316 144C316 219.663 254.663 281 179 281C103.337 281 42 219.663 42 144Z" stroke="#432564" stroke-opacity="0.62" stroke-width="13.6684" stroke-miterlimit="3.68918" stroke-linecap="round" stroke-linejoin="round" stroke-dasharray="41.01 41.01"/>
<path d="M113.136 86.0183C112.291 86.5177 111.588 87.0926 111.216 87.5765C106.277 93.9886 103.543 101.439 100.77 109.032C98.582 115.023 96.3943 121.016 94.2067 127.007C93.9647 127.67 93.7202 128.38 93.8867 129.067C94.0714 129.824 94.7165 130.365 95.3226 130.854C97.2502 132.404 99.6668 134.051 101.995 133.221C103.514 132.68 104.487 131.226 105.299 129.834C109.044 123.422 111.732 116.391 113.222 109.115C114.224 104.227 114.694 99.2042 116.349 94.4985C116.981 92.6984 120.147 87.0406 118.474 85.4486C117.249 84.2806 114.892 84.983 113.136 86.0183Z" fill="#C4D3D3"/>
<path d="M57.2122 106.202L53.6406 92.6619C53.6406 92.6619 54.304 85.9402 58.3776 92.6619C62.4512 99.3836 75.0388 143.327 75.0388 143.327L71.5739 147.115L67.0658 148.077L57.2122 106.202Z" fill="#C8D6A1"/>
<path d="M41.2996 91.3273C43.8489 91.707 46.3981 92.0868 48.9474 92.4666C49.361 92.529 49.7252 86.3926 50.0035 85.927C50.3729 85.3079 51.5669 85.1726 52.199 84.7798C53.0548 84.2518 53.7936 83.5312 54.3919 82.7248C57.0426 79.1584 56.5301 74.8585 56.7929 70.6314C56.8631 69.5129 56.9281 68.3579 56.603 67.2966C56.0307 65.4367 54.3789 64.2557 52.7401 63.4779C48.5546 61.4983 43.5627 61.2928 39.4761 63.5586C38.3888 64.1621 37.3483 64.958 36.6797 66.0792C35.634 67.8299 35.7381 69.9083 35.5898 71.8592C35.4259 74.0183 35.6991 76.3257 36.3 78.4223C36.9035 80.5319 38.0064 82.5505 39.7206 83.9188C42.1034 85.8229 40.7638 88.6297 41.2996 91.3273Z" fill="#EACDB0"/>
<path d="M37.0013 74.0391C36.7984 73.6801 36.6111 73.3159 36.5304 72.9127C36.2417 71.4612 37.8961 71.3675 38.3045 70.1267C38.5932 69.2527 38.5282 67.8454 39.5843 67.4916C40.4714 67.1951 41.361 68.0535 42.2949 68.0015C43.2365 67.9468 43.8556 67.0338 44.4773 66.3158C45.0991 65.5979 46.2072 64.9918 46.9226 65.6135C47.1411 65.8034 47.2737 66.0791 47.5026 66.2586C48.0619 66.6982 48.8553 66.3783 49.5472 66.2222C50.9233 65.91 52.6298 66.602 52.9107 68.0015C52.9575 68.2408 52.9653 68.4905 53.0538 68.7168C53.3373 69.4218 54.2426 69.5544 54.9891 69.6429C55.7357 69.7339 56.6488 70.0773 56.6826 70.8369C56.719 71.6017 55.7825 72.2077 55.9464 72.9569C56.0244 73.3081 56.3262 73.5526 56.5343 73.8466C56.9011 74.3642 56.9635 75.09 56.6904 75.6649C56.5005 76.0629 56.1675 76.388 56.0374 76.8094C55.7149 77.8447 56.8881 78.8696 57.9546 78.75C59.0211 78.6303 59.8561 77.7589 60.4258 76.8406C60.8836 76.1045 61.2478 75.2356 61.0813 74.3824C61.0007 73.9636 60.7952 73.576 60.738 73.152C60.6521 72.5043 60.9253 71.867 61.1698 71.2609C61.6068 70.1814 61.971 68.9718 61.7785 67.796C61.6874 67.2341 61.6458 66.8283 61.6172 66.3236C61.5886 65.8372 61.6744 65.4808 61.3571 65.0386C60.9721 64.5028 60.3894 64.0501 60.2957 63.3946C60.1657 62.4816 61.0475 61.6934 61.0527 60.7699C61.0553 60.3381 60.8628 59.9271 60.6287 59.5681C59.9134 58.4704 58.7558 57.6822 57.4838 57.4221C56.9037 57.305 56.282 57.2842 55.7721 56.9798C54.8383 56.4206 54.6197 55.1329 53.842 54.3655C53.0746 53.6112 51.9014 53.4863 50.8323 53.5409C49.7632 53.5956 48.6706 53.7855 47.6379 53.5019C46.1136 53.0831 44.8571 51.6706 43.2808 51.7695C41.1191 51.9021 40.063 54.6959 38.0132 55.4113C36.6709 55.8795 35.0555 55.3931 33.8693 56.1838C32.1629 57.3232 32.3788 60.2991 31.614 62.0419C30.5293 64.5106 29.9544 66.3809 30.9377 69.0628C31.2212 69.838 31.5854 70.6574 31.3799 71.4586C31.2914 71.8098 31.0989 72.1219 30.9793 72.4627C30.5605 73.6593 31.1015 74.9963 31.8793 75.99C32.6571 76.9837 33.669 77.7719 34.4208 78.7864C34.7746 79.265 35.0763 79.7957 35.5237 80.1859C35.9738 80.5761 36.6319 80.7972 37.1625 80.5319C36.9336 80.1417 36.9648 79.6084 37.238 79.2468C37.4617 78.9503 37.8207 78.7682 37.9897 78.4404C38.1016 78.2245 38.1146 77.9722 38.1146 77.7277C38.1094 76.6585 37.8415 75.592 37.342 74.6504C37.2354 74.4449 37.1157 74.242 37.0013 74.0391Z" fill="#AAA599"/>
<path d="M38.3762 51.8605C37.8924 51.3766 37.2082 51.0072 36.5449 51.1581C36.2666 51.2205 36.0117 51.3714 35.7333 51.439C34.8021 51.6628 33.9358 50.9448 33.0228 50.6535C32.0213 50.3335 30.8637 50.5676 30.0573 51.2492C29.5162 51.707 29.1287 52.5186 29.4928 53.1299C29.5891 53.2938 29.7296 53.4238 29.8258 53.5877C30.1926 54.2094 29.7842 55.034 29.2093 55.4658C28.6344 55.8976 27.9165 56.0953 27.326 56.5037C26.2178 57.2711 25.6924 58.8085 26.1008 60.1039C26.5066 61.3994 27.8098 62.3462 29.1521 62.3228C29.8102 62.3124 30.4969 62.0965 31.1082 62.341C31.4386 62.4737 31.7065 62.7286 32.0083 62.9185C33.0644 63.5818 34.4821 63.3945 35.5538 62.7572C36.6256 62.1199 37.4215 61.1028 38.1499 60.0805C38.4334 59.6825 38.7274 59.2195 38.6442 58.7356C38.371 57.1489 36.9065 57.2841 38.3554 55.765C39.5052 54.558 39.6404 53.1221 38.3762 51.8605Z" fill="#AAA599"/>
<path d="M320.579 263.134L320.722 267.304L312.434 271.721L308.069 267.674L312.143 263.381L320.433 258.964L320.579 263.134Z" fill="#3A3029"/>
<path d="M308.324 159.791L324.218 162.657L314.718 204.918L320.971 261.779L312.663 263.675L290.869 195.048L290.807 174.537L292.43 162.397L308.324 159.791Z" fill="#59595B"/>
<path d="M272.147 139.815L271.608 193.035L281.876 261.633L289.682 261.62L294.513 198.3L305.097 134.972L272.147 139.815Z" fill="#59595B"/>
<path d="M289.637 260.702L289.642 264.872L281.206 269.055L276.977 264.893L281.191 260.718L289.637 260.702Z" fill="#3A3029"/>
<path d="M43.5727 173.97L43.9889 210.627L36.1486 257.882L30.176 257.872L26.4744 214.254L18.374 170.627L43.5727 173.97Z" fill="#CAB5A1"/>
<path d="M30.1878 257.099L30.1826 260.601L36.3659 264.113L39.4692 260.616L36.3789 257.11L30.1878 257.099Z" fill="#3A3029"/>
<path d="M64.6905 175.614L65.1067 212.274L57.2664 259.526L51.2939 259.516L47.5923 215.898L39.4893 172.271L64.6905 175.614Z" fill="#CAB5A1"/>
<path d="M51.3057 258.743L51.2979 262.245L57.4837 265.756L60.5844 262.26L57.4967 258.754L51.3057 258.743Z" fill="#3A3029"/>
<path d="M330.365 161.544C330.69 163.887 330.169 179.625 330.955 179.911C327.243 179.334 323.508 178.91 319.762 178.642C309.903 177.934 299.969 178.291 290.185 179.698C285.755 180.335 281.07 180.902 276.867 182.497C274.806 183.28 272.827 184.258 270.829 185.184C270.317 185.421 264.94 187.46 264.945 187.549C264.7 180.666 263.176 174.006 262.377 167.163C261.568 160.243 261.152 153.277 261.134 146.311C261.103 135.396 264.812 125.649 267.257 115.069C268.472 109.817 269.518 104.492 271.406 99.4277C272.884 95.4607 275.66 89.5974 279.574 87.4722C280.901 86.7516 282.428 86.5253 283.921 86.3068C288.447 85.6487 292.976 84.9906 297.503 84.3324C299.152 84.0931 300.871 83.8564 302.461 84.3636C304.841 85.1232 306.396 87.3499 307.772 89.4361C313.94 98.793 318.38 109.138 321.455 119.98C323.06 125.641 324.598 131.322 325.942 137.047C327.446 143.436 328.718 149.882 329.582 156.385C329.68 157.106 330.032 159.122 330.365 161.544Z" fill="#C69C6D"/>
<path d="M293.58 113.28C293.749 116.237 294.459 119.132 295.164 122.007C299.456 139.5 307.931 160.363 312.226 177.856C300.502 177.856 286.434 180.2 271.49 184.872C271.159 178.169 270.746 164.972 270.415 158.269C270.202 153.971 269.991 149.658 270.293 145.382C270.782 138.483 272.595 131.835 274.4 125.245C277.733 113.074 281.065 100.9 284.4 88.7286C284.579 88.0783 284.767 87.4046 285.178 86.9025C285.669 86.3016 286.403 86.0337 287.108 85.8074C290.515 84.7122 294.384 83.6691 297.955 83.8486C299.253 87.3864 296.758 94.0899 295.952 97.6146C294.781 102.747 293.268 107.879 293.58 113.28Z" fill="#FFFFF1"/>
<path d="M279.973 59.0454C279.083 61.3216 278.862 63.824 279.109 66.2536C279.174 66.8987 279.239 67.6479 278.776 68.1031C278.279 68.5895 278.898 69.4089 278.396 68.9277C277.894 68.4465 276.183 66.7739 276.016 66.0975C275.629 64.5159 275.394 62.8953 275.314 61.2695C275.244 59.8544 275.316 58.3561 276.071 57.1569C276.518 56.4468 277.176 55.8979 277.824 55.362C278.763 54.5868 279.736 53.8012 280.888 53.4085C282.876 52.7269 284.236 53.2758 282.642 54.9666C281.505 56.1736 280.581 57.4873 279.973 59.0454Z" fill="#BAB6B7"/>
<path d="M296.689 84.5796C293.918 85.2559 291.145 85.9296 288.375 86.606C287.592 84.2414 286.978 81.8144 286.544 79.351C284.036 79.2912 281.042 78.9218 279.827 76.4818C279.445 75.7118 279.307 74.8352 279.174 73.9793C278.625 70.4312 278.079 66.8856 277.53 63.3375C277.34 62.1097 277.153 60.8455 277.405 59.6437C277.85 57.534 279.549 56.0669 281.279 55.0472C285.69 52.4433 291.171 51.715 295.903 53.8038C297.162 54.3579 298.387 55.1304 299.238 56.2984C300.549 58.0985 300.773 60.5255 300.944 62.8016C301.103 64.9009 301.262 67.0001 301.42 69.0993C301.602 71.5133 301.647 74.3175 299.977 75.8523C299.09 76.6665 297.836 76.976 297.113 77.9697C295.841 79.7152 296.925 82.3373 296.689 84.5796Z" fill="#EACDB0"/>
<path d="M278.841 76.1382C279.603 78.2843 280.985 80.2379 282.964 81.216C285.209 82.3241 287.784 82.0484 290.214 81.7492C291.543 81.5853 292.872 81.4215 294.199 81.2602C297.56 80.8466 300.83 79.9231 302.037 76.1434C302.593 74.4006 302.567 72.4704 302.18 70.6547C302.073 70.1553 301.933 69.6454 301.631 69.2474C301.329 68.8468 300.827 68.5815 300.372 68.7142C299.789 68.8833 299.527 69.5752 299.217 70.1293C298.543 71.3363 297.157 72.1583 295.882 71.7525C295.505 71.6328 295.162 71.4169 294.818 71.201C294.678 71.1126 294.537 71.0215 294.397 70.9383C292.99 70.1085 291.379 69.8718 289.808 69.8952C288.445 69.916 286.403 69.7131 285.578 70.9981C285.097 71.7447 284.619 72.4938 284.137 73.2404C283.94 73.5474 283.737 73.8621 283.456 74.0806C283.167 74.3069 282.811 74.4188 282.454 74.4786C281.557 74.6269 280.485 74.359 280.046 73.4927C279.853 73.1156 279.809 72.6785 279.731 72.2571C279.653 71.8383 279.523 71.3987 279.218 71.1204C278.05 70.0538 278.045 72.0256 278.102 72.6889C278.206 73.8647 278.448 75.0301 278.841 76.1382ZM288.058 75.4099C289.223 75.9666 290.336 75.8131 291.463 75.285C292.04 75.0145 292.446 75.99 291.868 76.2605C290.511 76.8978 289.098 77.0565 287.699 76.388C287.116 76.1096 287.472 75.1289 288.058 75.4099Z" fill="#BAB6B7"/>
<path d="M274.773 53.5202C274.411 52.6929 274.112 51.8423 273.87 50.9735C274.731 51.14 275.636 51.0854 276.471 50.8174C276.399 50.3076 276.326 49.7951 276.253 49.2853C276.193 48.8613 281.895 47.7193 282.358 47.6126C286.676 46.6111 290.622 45.6851 294.92 47.4488C298.59 48.9575 301.194 51.6316 302.284 55.4477C303.325 59.0947 302.822 64.1334 301.124 67.5385C300.991 66.5474 301.217 64.1256 300.846 63.2177C300.565 62.2943 300.104 61.4333 299.532 60.6607C298.387 59.1155 296.79 57.9085 295.034 57.1385C292.238 55.9107 289.135 55.4971 286.099 55.5205C283.318 55.5413 279.944 55.6792 277.359 56.7952C276.115 57.331 275.949 57.6874 274.973 56.4986C274.801 56.2879 273.311 53.7595 273.418 53.7439C273.868 53.6684 274.32 53.5956 274.773 53.5202Z" fill="#BAB6B7"/>
<path d="M196.937 254.097V261.053L201.572 265.689H205.17C206.712 265.689 207.716 264.065 207.024 262.687L206.208 261.053L203.89 256.418L201.572 251.782L196.937 254.097Z" fill="#3A3029"/>
<path d="M220.121 251.78V258.736L224.757 263.371L228.601 262.089C230.029 261.613 230.459 259.8 229.392 258.733L227.074 254.098L224.757 249.462L220.121 251.78Z" fill="#3A3029"/>
<path d="M181.666 177.529L189.798 219.662L195.232 256.418H205.902L208.571 219.069L216.575 171.052L181.666 177.529Z" fill="#928475"/>
<path d="M122.346 257.388L122.567 263.246L118.808 267.299L115.778 267.413C114.48 267.463 113.583 266.126 114.121 264.942L114.758 263.54L116.564 259.563L118.369 255.585L122.346 257.388Z" fill="#404F5A"/>
<path d="M130.709 187.034L127.27 228.16L123.855 259.287L114.87 259.625L111.442 228.256L107.149 187.918L130.709 187.034Z" fill="#62717A"/>
<path d="M145.302 253.502L145.583 259.357L141.868 263.449L138.84 263.595C137.542 263.657 136.632 262.331 137.157 261.142L137.779 259.735L139.543 255.736L141.306 251.738L145.302 253.502Z" fill="#404F5A"/>
<path d="M152.921 183.062L148.244 224.274L146.832 255.385L137.85 255.817L132.304 224.828L129.372 184.199L152.921 183.062Z" fill="#62717A"/>
<path d="M232.158 173.819V221.074L228.397 253.559L217.737 254.009L213.905 221.737L207.251 177.529L232.158 173.819Z" fill="#928475"/>
<path d="M204.098 86.2912C206.894 86.5617 209.693 86.8348 212.489 87.108C212.919 84.642 213.173 82.1343 213.249 79.6215C215.686 79.2001 218.553 78.3989 219.391 75.795C219.653 74.9756 219.664 74.0808 219.671 73.2093C219.703 69.5987 219.737 65.9882 219.768 62.3776C219.778 61.129 219.783 59.8413 219.367 58.6838C218.636 56.6495 216.771 55.4347 214.94 54.6674C210.27 52.7138 204.823 52.7814 200.505 55.5414C199.355 56.275 198.271 57.2218 197.607 58.5069C196.585 60.489 196.71 62.9369 196.863 65.226C197.007 67.3382 197.15 69.4505 197.29 71.5627C197.454 73.9923 197.808 76.7887 199.652 78.0763C200.633 78.7605 201.9 78.8853 202.745 79.7698C204.235 81.3279 203.549 84.0905 204.098 86.2912Z" fill="#EACDB0"/>
<path d="M207.16 61.2721C205.441 63.6133 203.513 65.7125 201.008 67.1979C199.468 68.1083 197.86 68.5115 197.798 70.6367C197.738 72.6579 199.073 74.869 200.724 75.8913C201.008 76.0656 201.318 76.2269 201.507 76.5052C201.882 77.0541 201.609 77.8709 201.073 78.2559C200.537 78.6409 199.835 78.6825 199.185 78.6123C197.21 78.3964 195.413 77.2648 194.031 75.8107C191.115 72.7412 189.89 68.2228 190.371 63.9749C190.847 59.7868 192.853 55.6664 195.798 52.7477C198.519 50.0528 201.206 47.2564 205.266 47.0561C207.553 46.9443 211.572 48.2631 211.686 51.1479C211.806 54.1784 208.788 58.8972 207.16 61.2721Z" fill="#BFBEBE"/>
<path d="M214.015 60.4006C215.615 61.6076 217.485 62.7365 218.153 64.5808C218.445 65.3898 218.471 66.2612 218.471 67.1197C218.468 68.6518 218.39 70.184 218.234 71.7083C218.073 73.2951 217.761 75.1004 216.671 76.3724C216.229 76.8875 213.078 79.0752 215.778 79.4602C216.567 79.572 217.303 79.083 217.912 78.5861C222.737 74.6634 225.697 68.5114 225.034 62.4712C224.633 58.832 222.831 55.3515 220.102 52.8074C217.61 50.4845 212.797 47.7089 209.325 49.7665C204.697 52.5109 211.614 58.5901 214.015 60.4006Z" fill="#BFBEBE"/>
<path d="M216.636 84.1714H193.857L171.077 191.565C171.077 191.565 216.639 198.074 245.927 191.565L229.655 90.6824L216.636 84.1714Z" fill="#C2969C"/>
<path d="M247.144 94.9846L192.864 92.8988L190.088 165.148L244.367 167.234L247.144 94.9846Z" fill="#6188A3"/>
<path opacity="0.26" d="M194.251 162.194L195.063 162.225L242.939 165.552L244.31 97.1776L242.057 97.7317L194.251 162.194Z" fill="black"/>
<path d="M244.318 97.1795L195.513 95.3041L192.944 162.149L241.749 164.025L244.318 97.1795Z" fill="#FFFFF1"/>
<path opacity="0.05" d="M195.252 95.0367L230.354 96.3868L194.061 124.509L195.252 95.0367Z" fill="black"/>
<path opacity="0.12" d="M230.528 96.2975L209.332 95.483L209.256 97.4664L230.452 98.2809L230.528 96.2975Z" fill="black"/>
<path d="M226.408 90.1254L226.081 90.1124L226.088 89.8913C226.169 87.8077 224.288 86.044 221.89 85.953L218.729 85.8307C216.331 85.7397 214.32 87.3524 214.24 89.4361L214.232 89.6572L213.904 89.6442C211.506 89.5531 209.495 91.1659 209.414 93.2496L209.253 97.4636L230.448 98.2778L230.609 94.0638C230.688 91.9801 228.807 90.2165 226.408 90.1254ZM222.943 90.0786L217.359 89.8653C216.789 89.8445 216.339 89.3606 216.36 88.791C216.38 88.2213 216.867 87.7739 217.437 87.7947L223.022 88.008C223.591 88.0288 224.041 88.5126 224.02 89.0823C223.997 89.652 223.513 90.0994 222.943 90.0786Z" fill="#C4D3D3"/>
<g opacity="0.47">
<path d="M208.426 114.51C206.038 114.419 203.65 114.325 201.259 114.234C201.056 114.226 200.88 114.39 200.872 114.593C200.781 116.976 200.69 119.359 200.596 121.739C200.588 121.939 200.752 122.119 200.955 122.127C203.343 122.218 205.731 122.311 208.121 122.402C208.231 122.408 208.317 122.371 208.376 122.311C208.382 122.309 208.384 122.303 208.389 122.301C208.392 122.298 208.395 122.296 208.397 122.293C208.46 122.236 208.504 122.153 208.509 122.043C208.6 119.661 208.691 117.278 208.785 114.898C208.793 114.695 208.629 114.518 208.426 114.51ZM207.778 121.643C205.637 121.559 203.499 121.479 201.358 121.396C201.441 119.263 201.522 117.127 201.605 114.994C203.746 115.077 205.884 115.158 208.025 115.241C207.942 117.374 207.859 119.51 207.778 121.643Z" fill="#8C9498"/>
<path d="M207.918 127.724C205.53 127.633 203.142 127.54 200.751 127.449C200.549 127.441 200.372 127.605 200.364 127.808C200.273 130.191 200.182 132.573 200.088 134.953C200.08 135.154 200.244 135.333 200.447 135.341C202.835 135.432 205.223 135.526 207.614 135.617C207.723 135.622 207.809 135.586 207.871 135.526C207.876 135.523 207.879 135.518 207.884 135.515C207.887 135.513 207.889 135.51 207.892 135.508C207.954 135.45 207.999 135.367 208.004 135.258C208.095 132.875 208.186 130.492 208.28 128.112C208.285 127.909 208.118 127.732 207.918 127.724ZM207.27 134.857C205.129 134.774 202.991 134.693 200.85 134.61C200.934 132.477 201.014 130.341 201.097 128.208C203.238 128.292 205.377 128.372 207.517 128.455C207.434 130.589 207.351 132.724 207.27 134.857Z" fill="#8C9498"/>
<path d="M207.409 140.939C205.021 140.848 202.633 140.754 200.243 140.663C200.04 140.655 199.863 140.819 199.855 141.022C199.764 143.405 199.673 145.788 199.579 148.168C199.572 148.368 199.735 148.548 199.938 148.555C202.326 148.646 204.714 148.74 207.105 148.831C207.214 148.836 207.3 148.8 207.36 148.74C207.365 148.737 207.368 148.732 207.373 148.73C207.375 148.727 207.378 148.724 207.381 148.722C207.443 148.665 207.487 148.581 207.492 148.472C207.584 146.089 207.675 143.707 207.768 141.326C207.776 141.124 207.612 140.947 207.409 140.939ZM206.762 148.072C204.621 147.988 202.482 147.908 200.342 147.824C200.425 145.691 200.505 143.556 200.589 141.423C202.73 141.506 204.868 141.587 207.009 141.67C206.925 143.803 206.845 145.936 206.762 148.072Z" fill="#8C9498"/>
</g>
<path d="M203.569 117.031L205.237 116.547L206.09 118.225L214.175 112.869L215.083 113.087L205.645 120.22L203.569 117.031Z" fill="#6BAC8F"/>
<path d="M202.449 130.557L204.119 130.073L204.97 131.751L213.055 126.395L213.963 126.614L204.528 133.746L202.449 130.557Z" fill="#6BAC8F"/>
<path d="M201.82 143.059L203.488 142.575L204.341 144.253L212.426 138.897L213.334 139.116L203.899 146.246L201.82 143.059Z" fill="#6BAC8F"/>
<path opacity="0.32" d="M237.188 144.994L211.908 144.023L211.771 147.597L237.051 148.568L237.188 144.994Z" fill="#8C9498"/>
<path opacity="0.32" d="M237.726 130.999L212.446 130.027L212.309 133.601L237.589 134.573L237.726 130.999Z" fill="#8C9498"/>
<path opacity="0.32" d="M238.262 117.003L212.982 116.031L212.845 119.606L238.125 120.577L238.262 117.003Z" fill="#8C9498"/>
<path d="M274.205 93.6244L253.626 135.297L272.363 149.721L274.707 142.685L267.584 124.314L274.205 93.6244Z" fill="#C69C6D"/>
<path d="M349.391 112.98C354.22 109.37 355.208 102.528 351.597 97.6992C347.987 92.87 341.145 91.8822 336.316 95.4927C331.487 99.1032 330.499 105.945 334.11 110.774C337.72 115.603 344.562 116.591 349.391 112.98Z" fill="#35383F"/>
<path d="M348.716 108.935C351.301 105.695 350.77 100.973 347.53 98.3887C344.29 95.8041 339.568 96.3353 336.984 99.5752C334.399 102.815 334.93 107.537 338.17 110.122C341.41 112.706 346.132 112.175 348.716 108.935Z" fill="#E5DED6"/>
<path d="M343.649 108.946L340.753 108.527L335.043 148.072L337.94 148.49L343.649 108.946Z" fill="#E5DED6"/>
<path d="M344.97 105.802C345.685 104.577 345.271 103.005 344.046 102.291C342.821 101.577 341.249 101.99 340.535 103.215C339.82 104.44 340.234 106.012 341.459 106.726C342.684 107.441 344.256 107.027 344.97 105.802Z" fill="#35383F"/>
<path opacity="0.13" d="M343.972 106.771L342.76 115.165C342.76 115.165 344.44 115.142 345.374 114.874L344.409 106.477L343.972 106.771Z" fill="black"/>
<path d="M277.603 134.149C277.025 138.02 276.955 141.99 277.168 145.899C277.61 154.01 279.468 163.013 286.379 169.784C293.694 176.951 307.218 179.903 317.355 175.994C327.035 172.261 332.331 164.116 335.629 156.45C337.141 152.936 338.293 149.312 339.185 145.647C339.654 143.727 340.111 141.779 340.327 139.82C340.338 139.729 340.353 139.638 340.364 139.55C340.668 136.987 335.46 136.366 335.156 138.933C335 140.236 334.748 141.532 334.48 142.819C334.186 144.219 333.85 145.611 333.47 146.995C333.361 147.395 333.247 147.793 333.13 148.194C333.117 148.238 333.106 148.272 333.098 148.3C333.093 148.316 333.088 148.334 333.08 148.355C333.007 148.587 332.937 148.818 332.864 149.05C332.586 149.926 332.289 150.798 331.975 151.666C330.598 155.444 328.861 159.148 326.522 162.597C326.39 162.795 326.252 162.99 326.114 163.185C326.306 162.909 325.963 163.39 325.869 163.518C325.536 163.965 325.19 164.405 324.834 164.842C324.16 165.659 323.442 166.452 322.672 167.214C322.313 167.571 321.941 167.919 321.556 168.26C321.377 168.421 321.192 168.577 321.008 168.736C320.885 168.84 320.758 168.942 320.633 169.046C320.594 169.077 320.511 169.144 320.446 169.191C319.634 169.803 318.783 170.383 317.876 170.911C317.426 171.171 316.965 171.418 316.492 171.652C316.268 171.761 316.039 171.865 315.813 171.975C316.427 171.683 315.451 172.123 315.293 172.185C314.239 172.602 313.131 172.945 311.986 173.21C311.872 173.236 311.752 173.26 311.638 173.288C311.622 173.291 311.609 173.296 311.596 173.299C311.591 173.299 311.586 173.301 311.578 173.301C311.307 173.346 311.042 173.395 310.769 173.437C310.126 173.533 309.476 173.603 308.821 173.65C308.209 173.694 307.595 173.707 306.979 173.715C306.937 173.715 306.877 173.715 306.818 173.715C306.862 173.715 306.916 173.718 306.981 173.72C306.89 173.718 306.799 173.715 306.706 173.712C306.672 173.712 306.651 173.71 306.656 173.71C306.63 173.71 306.604 173.707 306.578 173.707C306.167 173.686 305.759 173.668 305.348 173.637C303.912 173.525 302.512 173.288 301.1 173.026C301.092 173.023 301.084 173.023 301.074 173.02C300.941 172.989 300.811 172.958 300.679 172.927C300.385 172.854 300.093 172.776 299.802 172.695C299.113 172.5 298.431 172.282 297.765 172.04C297.234 171.845 296.725 171.624 296.207 171.413C296.194 171.408 296.184 171.405 296.173 171.4C296.163 171.395 296.152 171.389 296.142 171.384C296.035 171.33 295.926 171.28 295.817 171.226C295.497 171.067 295.182 170.903 294.872 170.731C294.412 170.479 293.965 170.211 293.53 169.933C293.291 169.779 293.054 169.621 292.823 169.459C292.703 169.376 292.06 168.887 292.214 169.017C291.402 168.364 290.635 167.683 289.935 166.957C289.6 166.608 289.277 166.252 288.968 165.89C288.882 165.791 288.46 165.258 288.627 165.479C288.466 165.271 288.307 165.06 288.153 164.85C286.897 163.115 285.929 161.283 285.123 159.418C285.105 159.377 285.089 159.338 285.071 159.296C285.05 159.244 285.024 159.179 285.008 159.137C284.925 158.921 284.842 158.706 284.761 158.49C284.574 157.982 284.402 157.473 284.241 156.96C283.934 155.985 283.669 155.001 283.442 154.015C282.998 152.075 282.696 150.124 282.506 148.17C282.462 147.72 282.423 147.273 282.391 146.823C282.376 146.591 282.36 146.357 282.345 146.126C282.386 146.75 282.334 145.923 282.329 145.772C282.29 144.888 282.272 144.006 282.272 143.124C282.272 141.566 282.332 140.013 282.446 138.465C282.532 137.305 282.667 136.158 282.821 135.008C282.017 135.101 281.174 135.029 280.443 134.917C279.504 134.756 278.521 134.516 277.603 134.149ZM301.066 173.01C300.931 172.981 300.702 172.924 301.066 173.01V173.01ZM285.105 159.34C285.112 159.364 285.112 159.361 285.105 159.34V159.34Z" fill="#4080BB"/>
<path d="M278.281 73.9844C275.38 73.5656 272.477 73.1468 269.577 72.728C268.958 72.6395 268.357 73.0869 268.266 73.7086C267.311 80.3133 266.357 86.9206 265.405 93.5252C265.269 94.4565 265.137 95.3877 265.001 96.3216C264.788 97.7965 267.08 98.1295 267.293 96.652C268.248 90.0473 269.202 83.44 270.154 76.8354C270.235 76.2865 270.313 75.735 270.394 75.1862C272.914 75.5503 275.432 75.9145 277.953 76.2787C279.423 76.4868 279.758 74.1977 278.281 73.9844Z" fill="#E5DED6"/>
<path d="M281.522 77.8863L278.442 77.4415L279.103 72.8606L282.183 73.3054C283.013 73.4251 283.588 74.1951 283.468 75.0249L283.239 76.6012C283.122 77.4284 282.352 78.0059 281.522 77.8863Z" fill="#35383F"/>
<path d="M278.749 77.8473L276.004 77.4519C275.045 77.314 274.381 76.4244 274.519 75.4645L274.782 73.6436C274.92 72.6837 275.809 72.0204 276.769 72.1583L279.514 72.5537L278.749 77.8473Z" fill="#E5DED6"/>
<path d="M301.007 77.1111C303.907 77.5299 306.81 77.9487 309.711 78.3675C310.33 78.4559 310.78 79.0568 310.691 79.6785C309.737 86.2832 308.782 92.8904 307.83 99.4951C307.695 100.426 307.562 101.358 307.427 102.291C307.213 103.766 304.922 103.436 305.135 101.961C306.09 95.3565 307.044 88.7492 307.996 82.1445C308.077 81.5957 308.155 81.0442 308.236 80.4953C305.715 80.1311 303.197 79.767 300.676 79.4028C299.202 79.1869 299.532 76.8978 301.007 77.1111Z" fill="#E5DED6"/>
<path d="M296.795 79.9361L299.874 80.3809L300.535 75.8001L297.455 75.3552C296.625 75.2356 295.855 75.8105 295.736 76.6403L295.507 78.2166C295.387 79.0465 295.965 79.8164 296.795 79.9361Z" fill="#35383F"/>
<path d="M299.465 80.6853L302.209 81.0807C303.169 81.2186 304.059 80.5553 304.197 79.5954L304.459 77.7745C304.597 76.8146 303.934 75.925 302.974 75.7871L300.23 75.3917L299.465 80.6853Z" fill="#E5DED6"/>
<path opacity="0.13" d="M282.537 137.398C282.537 137.398 282.387 139.102 282.316 141.079L277.202 138.145L277.475 136.093L282.537 137.398Z" fill="black"/>
<path d="M264.181 96.384C263.335 100.51 263.01 104.791 262.963 108.992C262.88 116.445 263.759 124.707 268.332 130.88C273.171 137.411 282.621 140.028 290.004 136.363C297.053 132.862 301.207 125.339 303.923 118.269C305.166 115.027 306.16 111.687 306.972 108.314C307.398 106.547 307.817 104.752 308.067 102.95C308.077 102.866 308.093 102.783 308.106 102.7C308.447 100.341 304.784 99.8073 304.441 102.172C304.266 103.371 304.024 104.565 303.77 105.749C303.494 107.036 303.187 108.319 302.849 109.593C302.75 109.963 302.651 110.33 302.55 110.699C302.414 111.185 302.63 110.431 302.508 110.847C302.445 111.06 302.383 111.274 302.321 111.487C302.081 112.296 301.829 113.1 301.561 113.898C300.401 117.379 298.986 120.797 297.157 123.984C297.04 124.187 296.923 124.387 296.803 124.59C297.027 124.213 296.728 124.712 296.65 124.834C296.392 125.248 296.124 125.656 295.851 126.057C295.334 126.814 294.785 127.547 294.202 128.255C293.929 128.585 293.648 128.908 293.359 129.225C293.224 129.374 293.086 129.522 292.946 129.665C292.852 129.761 292.758 129.855 292.665 129.951C292.589 130.029 292.282 130.318 292.626 129.995C291.988 130.596 291.325 131.168 290.617 131.686C290.287 131.928 289.946 132.159 289.6 132.378C289.436 132.482 289.27 132.578 289.104 132.68C289.554 132.407 288.838 132.818 288.724 132.877C287.956 133.268 287.153 133.593 286.328 133.843C286.245 133.869 286.159 133.889 286.078 133.915C285.652 134.056 286.476 133.832 286.037 133.928C285.844 133.97 285.652 134.019 285.456 134.058C284.996 134.152 284.53 134.22 284.065 134.269C283.628 134.313 283.193 134.329 282.756 134.342C282.642 134.345 282.306 134.332 282.759 134.345C282.665 134.342 282.569 134.342 282.473 134.337C282.184 134.321 281.893 134.308 281.604 134.28C280.59 134.186 279.609 133.978 278.62 133.749C278.532 133.728 278.269 133.645 278.672 133.767C278.555 133.733 278.441 133.697 278.326 133.66C278.121 133.595 277.918 133.528 277.715 133.455C277.234 133.281 276.763 133.086 276.303 132.867C275.936 132.693 275.585 132.492 275.228 132.303C274.825 132.087 275.561 132.529 275.184 132.277C275.111 132.227 275.036 132.183 274.963 132.133C274.744 131.99 274.529 131.842 274.315 131.686C274 131.457 273.696 131.215 273.402 130.96C273.238 130.82 273.08 130.677 272.924 130.531C272.83 130.443 272.255 129.85 272.614 130.24C272.031 129.61 271.488 128.955 270.996 128.252C270.775 127.935 270.564 127.61 270.361 127.279C270.299 127.175 269.958 126.569 270.203 127.019C270.078 126.79 269.953 126.562 269.836 126.327C269.029 124.741 268.431 123.065 267.95 121.356C267.926 121.271 267.903 121.182 267.88 121.094C267.994 121.523 267.908 121.205 267.882 121.099C267.835 120.901 267.786 120.703 267.739 120.503C267.633 120.038 267.534 119.572 267.445 119.101C267.274 118.206 267.136 117.306 267.024 116.401C266.803 114.622 266.686 112.829 266.644 111.037C266.634 110.626 266.628 110.212 266.628 109.801C266.628 109.588 266.628 109.375 266.631 109.159C266.631 109.734 266.634 108.974 266.636 108.834C266.652 108.022 266.683 107.211 266.725 106.399C266.8 104.968 266.92 103.54 267.076 102.115C267.258 100.452 267.528 98.8084 267.796 97.1592C267.809 97.0786 267.828 96.9979 267.843 96.9199C268.044 95.9392 267.224 94.9585 266.275 94.8233C265.237 94.6646 264.384 95.3982 264.181 96.384Z" fill="#4080BB"/>
<path d="M300.655 128.445C300.663 128.294 300.661 128.143 300.642 127.987C300.588 127.509 300.398 126.796 300.041 126.406C300.041 126.406 298.712 125.3 298.868 125.854L299.191 127.007L295.804 125.123L292.643 125.454L290.731 128.736L291.59 132.56C293.832 133.377 296.051 134.704 298.096 132.961C298.702 132.443 299.121 131.783 299.529 131.132C300.057 130.295 300.598 129.4 300.655 128.445Z" fill="#EACDB0"/>
<path d="M294.318 134.254C295.189 132.831 296.063 131.408 296.935 129.982C297.554 128.973 298.053 127.264 298.854 126.463C299.978 126.663 300.933 127.701 301.94 128.226C303.308 128.942 304.676 129.66 306.031 130.399C308.945 120.332 309.257 109.724 309.546 99.2482C311.606 99.9791 313.242 101.618 314.384 103.48C315.526 105.343 316.231 107.434 316.925 109.505C317.404 110.931 317.883 112.353 318.359 113.779C318.58 114.434 318.801 115.095 318.876 115.782C318.973 116.643 318.837 117.512 318.702 118.37C317.308 127.189 315.901 136.067 312.935 144.49C306.715 141.529 300.579 138.395 294.536 135.089C294.385 135.005 294.222 134.907 294.177 134.743C294.13 134.574 294.227 134.402 294.318 134.254Z" fill="#C69C6D"/>
<path d="M272.613 148.072C273.214 149.115 275.745 150.205 276.59 151.032C276.793 151.23 276.996 151.438 277.254 151.55C277.522 151.667 277.823 151.669 278.115 151.659C278.828 151.636 279.535 151.55 280.232 151.399C280.352 151.373 280.477 151.342 280.565 151.256C280.643 151.18 280.68 151.071 280.713 150.967C281.067 149.867 281.421 148.764 281.775 147.663C281.163 147.073 280.552 146.48 279.941 145.889C280.107 145.39 280.271 144.89 280.438 144.391C280.438 144.526 275.441 142.903 275.061 142.825C274.983 142.809 274.897 142.794 274.824 142.822C274.728 142.859 274.673 142.96 274.629 143.051C274.119 144.076 272.132 146.766 272.53 147.892C272.551 147.952 272.579 148.012 272.613 148.072Z" fill="#EACDB0"/>
<path d="M188.958 152.52C190.238 153.727 191.317 155.147 192.137 156.708C192.275 156.968 192.41 157.241 192.631 157.436C192.86 157.639 193.159 157.738 193.453 157.821C194.168 158.027 194.902 158.167 195.643 158.243C195.771 158.256 195.906 158.266 196.02 158.209C196.122 158.159 196.195 158.063 196.26 157.969C196.965 156.989 197.672 156.005 198.377 155.025C197.958 154.239 197.542 153.454 197.123 152.671C197.449 152.226 197.774 151.784 198.099 151.339C197.222 150.858 196.343 150.379 195.466 149.898C194.936 149.606 193.677 148.576 193.084 148.636C192.488 148.696 191.486 149.989 191.055 150.402C190.334 151.089 189.637 151.794 188.958 152.52Z" fill="#EACDB0"/>
<path d="M193.854 84.1711L172.508 137.895L188.435 154.109L196.684 150.127L187.346 136.241L193.854 84.1711Z" fill="#CCA6AC"/>
<path d="M245.031 142.391C246.069 142.385 247 143.129 247.481 144.05C247.962 144.971 248.064 146.038 248.082 147.075C248.103 148.327 248.012 149.58 247.806 150.816C247.689 151.526 247.528 152.249 247.135 152.853C246.742 153.456 246.077 153.925 245.356 153.899C244.862 153.88 244.409 153.641 243.975 153.407C243.668 153.24 243.343 153.058 243.179 152.749C243.041 152.491 243.036 152.182 243.036 151.89C243.033 149.877 241.74 142.409 245.031 142.391Z" fill="#CCA6AC"/>
<path d="M247.035 144.862C246.983 144.739 246.92 144.62 246.848 144.503C246.624 144.141 246.213 143.647 245.815 143.47C245.815 143.47 244.47 143.082 244.795 143.467L245.469 144.263L242.407 144.019L240.368 145.452L240.342 148.769L242.428 151.49C244.285 151.308 246.33 151.542 247.051 149.401C247.264 148.766 247.292 148.085 247.318 147.416C247.347 146.555 247.368 145.642 247.035 144.862Z" fill="#EACDB0"/>
<path d="M55.175 86.8661H38.1262C38.1262 86.8661 15.3312 117.723 13.2241 151.747C11.1171 185.772 12.0744 202.056 12.0744 202.056C12.0744 202.056 65.9027 202.056 68.3922 201.099C70.8816 200.142 66.0926 153.337 63.2208 135.268C60.3464 117.197 55.5574 85.6539 55.175 86.8661Z" fill="#C8D6A1"/>
<path d="M68.7049 92.6696C62.7142 92.1519 55.173 95.5492 53.3756 100.983C51.5755 95.5492 42.3851 92.2039 36.3918 92.7216C20.5812 94.0899 15.2277 112.824 21.9312 125.42C25.5392 132.201 30.7236 138.127 36.3814 143.452C41.1183 147.91 53.3365 157.363 53.3756 157.332C53.412 157.363 65.6328 147.91 70.3697 143.452C76.0275 138.13 81.2119 132.201 84.8199 125.42C91.5234 112.822 84.5181 94.0378 68.7049 92.6696Z" fill="#B22759"/>
<path opacity="0.12" d="M81.7446 127.012C77.8036 132.069 73.241 136.819 68.2855 140.895C63.494 144.838 57.8804 148.272 51.7024 149.419C48.7343 149.971 45.8287 149.895 43.0791 149.221C48.123 153.358 53.6039 157.585 53.6299 157.564C53.6663 157.595 65.8872 148.142 70.6241 143.683C76.2819 138.361 81.4662 132.433 85.0742 125.651C86.2422 123.458 86.9914 121.076 87.3529 118.63C85.7141 121.567 83.81 124.361 81.7446 127.012Z" fill="black"/>
<path d="M81.4804 121.687C77.3392 121.799 73.2005 121.911 69.0593 122.022C67.5609 116.248 66.0626 110.473 64.5643 104.698C64.3484 103.863 63.1804 103.925 62.9333 104.698C59.7285 114.749 56.5211 124.803 53.3163 134.855C53.1316 135.437 52.9443 136.02 52.7596 136.6C50.5798 129.982 48.3999 123.365 46.22 116.75C45.8714 115.688 45.5203 114.627 45.1717 113.566C44.961 112.926 43.9673 112.673 43.6265 113.363C42.0424 116.578 40.4582 119.793 38.874 123.008C34.2411 123.008 29.6056 123.008 24.9727 123.008C23.8854 123.008 23.8828 124.699 24.9727 124.699C29.7799 124.699 34.5897 124.699 39.3968 124.699C39.6778 124.699 39.9977 124.543 40.1278 124.28C41.4857 121.526 42.8435 118.771 44.2014 116.016C46.4385 122.805 48.673 129.595 50.9101 136.382C51.2587 137.443 51.6099 138.504 51.9584 139.566C52.2212 140.362 53.3319 140.375 53.5894 139.566C56.7942 129.514 60.0016 119.46 63.2064 109.409C63.3599 108.928 63.5133 108.446 63.6668 107.965C64.9753 113.014 66.2863 118.061 67.5974 123.11C67.6884 123.461 68.0474 123.739 68.4116 123.732C72.7687 123.614 77.1259 123.497 81.483 123.38C82.5677 123.349 82.573 121.658 81.4804 121.687Z" fill="white"/>
<path d="M34.3722 138.163H38.0348H39.9519V140.179L42.8888 140.845L42.2281 145.306L39.4395 146.464L32.416 142.312L34.3722 138.163Z" fill="#EACDB0"/>
<path d="M28.865 134.017C26.49 132.846 23.9746 131.644 21.3317 131.806C18.6888 131.967 15.9652 134.043 16.0953 136.688C16.1655 138.122 17.05 139.42 18.1867 140.296C19.3209 141.173 20.6892 141.688 22.0522 142.135C25.8631 143.389 29.8171 144.227 33.8178 144.529C33.9271 144.536 34.0468 144.542 34.1378 144.484C34.2393 144.419 34.2835 144.297 34.3199 144.183C34.8245 142.604 36.8483 138.897 35.7064 137.448C35.1029 136.683 33.23 136.168 32.3637 135.741C31.1958 135.167 30.0304 134.594 28.865 134.017Z" fill="#C8D6A1"/>
<path d="M72.8573 141.995C72.8729 141.956 72.8859 141.917 72.9015 141.875C73.4036 140.468 72.4125 139.594 71.6399 138.538L70.1442 139.63L68.0579 137.812L65.1055 140.72C65.5321 142.481 66.1772 143.283 67.6547 144.438C70.0609 146.318 71.9182 144.477 72.8573 141.995Z" fill="#EACDB0"/>
<path d="M71.5744 147.114C72.6514 146.789 73.502 146.001 74.1055 145.117C74.6335 144.341 75.0055 143.462 75.055 142.549C75.1044 141.636 74.8104 140.689 74.1445 140.01C74.0535 139.917 73.9494 139.826 73.8167 139.789C73.5488 139.719 73.2861 139.898 73.078 140.068C71.049 141.706 67.1393 143.699 66.7803 146.42C68.2214 147.018 70.0007 147.598 71.5744 147.114Z" fill="#C8D6A1"/>
<path d="M109.496 61.163C109.6 64.8308 110.638 68.47 112.485 71.6436C112.144 68.2307 112.053 64.7632 112.682 61.3919C113.314 58.0206 114.709 54.7326 117.055 52.2302C116.782 52.5215 113.983 51.84 113.291 52.0793C112.334 52.4097 111.712 53.2057 111.171 54.0459C109.837 56.1191 109.426 58.7334 109.496 61.163Z" fill="#DDDAD7"/>
<path d="M130.612 87.5789C127.415 88.146 124.585 88.5388 121.344 88.4347C121.339 86.3407 121.11 84.2467 120.662 82.2021C120.363 80.8312 118.922 80.7583 117.806 80.4514C116.784 80.1705 115.847 79.671 115.109 78.8984C114.549 78.3131 114.123 77.616 113.743 76.9006C112.562 74.6817 112.143 72.1273 111.649 69.6873C110.658 64.7891 109.084 59.048 113.243 55.1695C115.746 52.8466 119.245 51.6292 122.6 51.2988C125.105 51.0543 127.681 51.2 130.045 52.0636C132.41 52.9246 134.545 54.5478 135.732 56.7693C137.113 59.3576 136.925 62.1332 136.673 64.9451C136.348 68.5583 137.477 71.7865 135.271 75.0017C134.478 76.1567 133.51 77.1764 132.605 78.2429C131.619 79.4031 130.88 81.1563 130.706 82.6781C130.651 83.1515 130.932 87.5217 130.612 87.5789Z" fill="#A08A78"/>
<path d="M120.117 52.7036C118.481 52.6906 116.845 52.9143 115.214 52.7348C113.583 52.5553 111.897 51.905 110.825 50.4795C115.695 49.3193 120.718 45.74 125.637 46.0157C129.554 46.2368 134.411 51.5981 136.541 55.3803C138.615 59.0611 137.868 64.1727 136.297 68.1396C135.928 66.4592 136.292 64.6851 135.922 63.0177C135.452 60.8924 133.823 59.0846 132.379 57.7371C128.943 54.5401 124.511 52.7374 120.117 52.7036Z" fill="#DDDAD7"/>
<path d="M121.133 71.3652C119.036 70.9411 116.539 71.0296 115.228 72.5826C114.32 73.6621 114.237 75.1474 114 76.5157C113.763 77.884 113.186 79.3875 111.82 79.8948C112.83 80.4124 114.065 80.4332 115.134 80.0873C116.203 79.7439 117.114 79.065 117.855 78.269C118.511 77.5666 119.08 76.742 119.97 76.3232C120.626 76.0163 121.38 75.9694 122.114 75.8914C122.847 75.8134 123.604 75.6911 124.182 75.2697C126.489 73.5893 122.61 71.6643 121.133 71.3652Z" fill="#DDDAD7"/>
<path d="M127.915 70.85C129.923 70.1139 132.405 69.8225 133.935 71.1622C134.996 72.0909 135.303 73.5476 135.743 74.8664C136.182 76.1853 136.981 77.5822 138.406 77.8787C137.488 78.5446 136.268 78.7501 135.16 78.5706C134.052 78.3912 133.048 77.8605 132.194 77.1842C131.44 76.5885 130.753 75.8575 129.809 75.5818C129.114 75.3789 128.36 75.4439 127.627 75.4777C126.893 75.5115 126.12 75.5037 125.488 75.176C122.955 73.8597 126.5 71.3703 127.915 70.85Z" fill="#DDDAD7"/>
<path d="M137.187 82.0485L116.509 84.746C116.509 84.746 103.916 97.6926 102.374 114.325C100.834 130.958 97.1582 190.062 97.1582 190.062C97.1582 190.062 127.414 197.153 151.606 190.631L163.444 185.598C163.444 185.598 154.881 126.216 151.535 115.02C148.19 103.824 137.187 82.0485 137.187 82.0485Z" fill="#C4D3D3"/>
<path d="M160.682 93.3201C140.743 98.2053 130.309 89.1632 128.899 87.8236C128.899 87.8236 128.868 87.6857 128.816 87.7429C128.762 87.6883 128.738 87.8288 128.738 87.8288C127.404 89.2413 117.475 98.8348 97.2991 95.0369C97.2991 95.0369 95.1972 131.205 107.288 145.608C120.201 160.992 130.869 165.461 130.921 165.42C130.975 165.459 141.479 160.509 153.448 144.36C164.644 129.249 160.682 93.3201 160.682 93.3201Z" fill="#066598"/>
<path d="M157.85 97.1102C139.755 101.47 130.289 93.4242 129.012 92.2328C129.012 92.2328 128.983 92.1105 128.936 92.1625C128.887 92.1157 128.864 92.238 128.864 92.238C127.651 93.497 118.638 102.042 100.333 98.671C100.333 98.671 98.4103 130.872 109.375 143.689C121.086 157.379 130.778 162.213 130.825 162.173C130.874 162.207 140.395 156.937 151.261 142.552C161.426 129.096 157.85 97.1102 157.85 97.1102Z" fill="#4498C5"/>
<g opacity="0.06">
<path d="M128.94 95.4034C128.94 95.4034 128.964 95.2734 129.016 95.3254C129.065 95.2734 129.094 95.4008 129.094 95.4008C130.408 96.6234 139.965 104.747 158.202 100.759C158.025 97.4871 157.796 95.4425 157.796 95.4425C139.702 99.8022 130.236 91.7564 128.959 90.5651C128.959 90.5651 128.93 90.4428 128.883 90.4948C128.834 90.448 128.81 90.5703 128.81 90.5703C127.598 91.8293 118.585 100.374 100.279 97.0032C100.279 97.0032 100.157 99.0556 100.149 102.331C118.59 105.33 127.697 96.6963 128.94 95.4034Z" fill="black"/>
</g>
<path opacity="0.34" d="M152.697 106.183C139.027 109.534 130.227 103.049 129.259 102.131C129.259 102.131 129.239 102.037 129.202 102.076C129.166 102.04 129.148 102.133 129.148 102.133C128.232 103.101 119.884 110.033 106.051 107.429C106.051 107.429 106.152 131.871 114.44 141.748C123.295 152.296 130.607 155.358 130.643 155.33C130.68 155.356 137.883 151.961 146.087 140.89C153.766 130.531 152.697 106.183 152.697 106.183Z" fill="white"/>
<path d="M158.403 136.194C158.408 136.142 158.413 136.093 158.416 136.041C158.564 134.238 157.131 133.525 155.895 132.529L154.488 134.277L151.478 132.802C151.478 132.802 148.932 137.128 148.932 137.131C149.983 139.058 150.989 139.794 153.078 140.684C156.483 142.133 158.08 139.394 158.403 136.194Z" fill="#A08A78"/>
<path d="M158.504 142.588C159.665 141.87 160.414 140.684 160.843 139.459C161.218 138.387 161.379 137.24 161.15 136.155C160.921 135.071 160.281 134.056 159.29 133.468C159.155 133.388 159.004 133.312 158.837 133.312C158.502 133.312 158.252 133.606 158.06 133.871C156.197 136.426 152.246 139.979 152.675 143.275C154.55 143.527 156.814 143.647 158.504 142.588Z" fill="#C4D3D3"/>
<path d="M99.199 129.777C99.2302 129.819 99.2614 129.858 99.2926 129.899C100.409 131.325 101.943 130.877 103.528 130.771L103.377 128.531L106.589 127.574C106.589 127.574 105.525 122.668 105.523 122.668C103.442 121.963 102.203 122.106 100.065 122.871C96.5821 124.111 97.2662 127.207 99.199 129.777Z" fill="#A08A78"/>
<path d="M94.7874 125.147C94.4233 126.46 94.6782 127.842 95.1932 129.033C95.6433 130.073 96.304 131.026 97.2066 131.668C98.1093 132.311 99.2694 132.62 100.396 132.381C100.552 132.347 100.711 132.3 100.833 132.188C101.08 131.959 101.064 131.574 101.025 131.249C100.661 128.109 101.153 122.816 98.6009 120.685C97.0584 121.775 95.3129 123.222 94.7874 125.147Z" fill="#C4D3D3"/>
</svg>
