<svg width="315" height="288" viewBox="0 0 315 288" fill="none" xmlns="http://www.w3.org/2000/svg">
<circle cx="144" cy="144" r="110" fill="#432564" fill-opacity="0.1"/>
<path d="M7.00001 144C7.00001 68.337 68.337 7.00001 144 7.00001C219.663 7.00001 281 68.337 281 144C281 219.663 219.663 281 144 281C68.337 281 7.00001 219.663 7.00001 144Z" stroke="#432564" stroke-opacity="0.62" stroke-width="13.6684" stroke-miterlimit="3.68918" stroke-linecap="round" stroke-linejoin="round" stroke-dasharray="41.01 41.01"/>
<path d="M108.393 84.4406C64.7406 61.8803 30.9824 103.17 30.9824 156.88C30.9824 210.022 60.4907 219.332 86.6559 219.202C116.31 219.055 143.723 206.858 140.632 154.482C138.654 120.962 129.448 81.8962 108.393 84.4406Z" fill="#D59924"/>
<path d="M106.5 199.189C106.5 199.189 110.169 199.463 112.346 202.124V212.546H106.5V199.189Z" fill="url(#paint0_linear_526_6374)"/>
<path d="M67.7779 199.189C67.7779 199.189 64.1091 199.463 61.9316 202.124V212.546H67.7779V199.189Z" fill="url(#paint1_linear_526_6374)"/>
<path d="M157.12 232.154C155.953 231.164 119.914 217.573 115.351 215.481C111.87 213.885 106.625 210.314 106.625 204.21C106.625 198.104 106.625 184.014 106.625 184.014H67.5067C67.5067 184.014 67.5067 198.104 67.5067 204.21C67.5067 210.316 62.2611 213.885 58.7807 215.481C54.2179 217.573 18.1795 231.164 17.0117 232.154C13.133 235.442 11.9209 242.016 11.9209 242.016H87.0649H162.209C162.21 242.016 160.998 235.441 157.12 232.154Z" fill="#F7F8FA"/>
<path d="M157.12 232.154C155.953 231.164 119.914 217.573 115.351 215.481C111.87 213.885 106.625 210.314 106.625 204.21C106.625 198.104 106.625 184.014 106.625 184.014H67.5067C67.5067 184.014 67.5067 198.104 67.5067 204.21C67.5067 210.316 62.2611 213.885 58.7807 215.481C54.2179 217.573 18.1795 231.164 17.0117 232.154C13.133 235.442 11.9209 242.016 11.9209 242.016H87.0649H162.209C162.21 242.016 160.998 235.441 157.12 232.154Z" fill="url(#paint2_radial_526_6374)"/>
<path d="M128.436 142.13C127.221 141.086 125.754 141.353 124.499 141.972C125.881 118.148 120.113 89.0315 87.0652 89.0315C54.0169 89.0315 48.2497 118.149 49.6317 141.972C48.3763 141.353 46.9099 141.086 45.6946 142.13C41.0442 146.128 45.6653 157.901 47.4889 160.242C49.3525 162.634 51.6717 163.496 52.9044 163.799C53.9282 167.906 54.9531 170.822 55.6187 171.93C60.7982 180.539 73.3176 195.684 76.5827 197.278C83.0458 200.434 91.3606 200.625 97.5467 197.278C100.734 195.553 113.331 180.539 118.511 171.93C119.177 170.823 120.201 167.907 121.225 163.799C122.458 163.496 124.776 162.633 126.64 160.242C128.465 157.901 133.086 146.127 128.436 142.13Z" fill="#F7F8FA"/>
<path d="M87.0658 86.683C54.5684 86.683 39.2569 120.19 52.2871 152.804C51.5674 146.143 52.023 132.831 52.5251 124.333C52.839 119.015 54.6344 113.893 57.7004 109.537L58.669 108.161C60.1354 106.078 62.5921 104.922 65.1332 105.12L81.8364 106.426C85.3115 106.698 88.8028 106.699 92.2779 106.428L109.104 105.119C111.644 104.921 114.1 106.077 115.565 108.16L116.155 108.998C119.742 114.093 121.568 120.215 121.366 126.442C121.103 134.559 120.995 145.736 121.979 152.804L125.518 138.958C128.256 121.198 123.671 86.683 87.0658 86.683Z" fill="#D59924"/>
<path d="M51.5855 148.79C50.039 124.574 98.4431 113.806 107.787 104.487C107.787 104.487 63.1697 87.893 55.6558 99.0075C48.1418 110.122 51.5855 148.79 51.5855 148.79Z" fill="#D59924"/>
<path d="M104.132 102.839C104.132 102.839 97.491 112.782 82.2964 119.526C64.2664 127.528 60.6182 136.786 60.6182 136.786C65.4893 130.463 74.2976 128.041 89.278 120.31C104.304 112.557 108.836 103.99 108.836 103.99L104.132 102.839Z" fill="#D59924"/>
<path d="M106.373 103.665C106.373 103.665 120.651 117.943 122.773 143.797C122.773 143.797 130.877 109.647 121.23 102.894C111.583 96.1407 106.373 103.665 106.373 103.665Z" fill="#D59924"/>
<path d="M113.421 96.395C97.1299 90.1765 79.3195 90.1765 63.0286 96.395C61.994 96.79 60.8512 96.2749 60.3826 95.2132C57.2971 88.2273 54.0785 81.3021 50.7301 74.4418C50.1403 73.233 50.6619 71.7449 51.8513 71.2525C75.2536 61.5827 101.196 61.5827 124.598 71.2525C125.789 71.7438 126.309 73.233 125.719 74.4418C122.371 81.3021 119.152 88.2273 116.067 95.2132C115.598 96.2749 114.455 96.79 113.421 96.395Z" fill="#C69C6D"/>
<path d="M95.0074 84.8949C98.7545 81.1478 98.7545 75.0726 95.0074 71.3255C91.2603 67.5784 85.1851 67.5784 81.438 71.3255C77.6909 75.0726 77.6909 81.1478 81.438 84.8949C85.1851 88.642 91.2603 88.642 95.0074 84.8949Z" fill="#C69C6D"/>
<path d="M93.9491 76.3899H89.9437V72.3845H86.5044V76.3899H82.499V79.8303H86.5044V83.8346H89.9437V79.8303H93.9491V76.3899Z" fill="#EBF0FA"/>
<path d="M157.844 231.92C156.672 231.117 125.53 217.869 119.159 215.256C118.929 215.162 114.686 213.298 112.299 212.391L112.347 202.124C112.347 202.124 111.525 208.301 99.805 213.546C98.8516 213.972 98.028 214.645 97.4209 215.495L87.1396 227.326L76.8573 215.495C76.2491 214.647 75.4255 213.973 74.4731 213.547C62.7547 208.303 61.9322 202.125 61.9322 202.125L61.983 213.054C60.1952 213.621 55.8435 215.474 55.5816 215.581C49.1001 218.196 17.3462 231.15 16.1557 231.92C8.3647 236.966 7 253.758 7 253.758H86.9989H167C167 253.758 165.784 237.363 157.844 231.92Z" fill="#C69C6D"/>
<path d="M143.961 86.4316L139 86L143.961 85.5643C148.38 84.8368 151.837 81.3799 152.564 76.9612L153 72L153.432 76.9612C154.159 81.3799 157.62 84.8368 162.035 85.5643L166.996 85.9959L162.035 86.4275C157.62 87.1591 154.159 90.6201 153.432 95.0346L153 99.9959L152.564 95.0346C151.837 90.6201 148.38 87.1591 143.961 86.4316Z" fill="#60F486" fill-opacity="0.25"/>
<path d="M170.91 69.1011L164 68.5L170.91 67.8931C177.065 66.8798 181.88 62.0649 182.893 55.9103L183.5 49L184.101 55.9103C185.115 62.0649 189.935 66.8798 196.084 67.8931L202.994 68.4943L196.084 69.0954C189.935 70.1145 185.115 74.9351 184.101 81.084L183.5 87.9943L182.893 81.084C181.88 74.9351 177.065 70.1145 170.91 69.1011Z" fill="#60F486" fill-opacity="0.25"/>
<path d="M134.682 37.2553L126 36.5L134.682 35.7375C142.415 34.4643 148.464 28.4149 149.738 20.6822L150.5 12L151.255 20.6822C152.528 28.4149 158.585 34.4643 166.311 35.7375L174.993 36.4928L166.311 37.2481C158.585 38.5285 152.528 44.5851 151.255 52.3106L150.5 60.9928L149.738 52.3106C148.464 44.5851 142.415 38.5285 134.682 37.2553Z" fill="#60F486" fill-opacity="0.25"/>
<path fill-rule="evenodd" clip-rule="evenodd" d="M229 72.5C218.945 72.5 206.647 76.1765 199.388 78.7027C195.847 79.9354 194.073 83.7803 195.245 87.3386L202.942 110.705C200.94 115.073 200.067 119.873 200.404 124.666C200.742 129.459 202.278 134.09 204.873 138.134C207.467 142.178 211.036 145.504 215.252 147.809C219.468 150.113 224.196 151.32 229 151.32C233.805 151.32 238.532 150.113 242.748 147.809C246.964 145.504 250.533 142.178 253.128 138.134C255.722 134.09 257.259 129.459 257.596 124.666C257.933 119.873 257.061 115.073 255.058 110.705L262.755 87.3422C263.927 83.7803 262.153 79.9354 258.613 78.7063C251.349 76.1729 239.055 72.5 229 72.5ZM208.862 117.023C222.324 111.494 235.676 111.494 249.139 117.023C249.354 117.112 249.579 117.177 249.805 117.224C250.633 120.403 250.721 123.729 250.063 126.947C249.404 130.165 248.018 133.19 246.009 135.789C244 138.388 241.422 140.492 238.473 141.939C235.524 143.387 232.283 144.14 228.998 144.14C225.714 144.14 222.472 143.387 219.524 141.939C216.575 140.492 213.997 138.388 211.988 135.789C209.979 133.19 208.592 130.165 207.934 126.947C207.276 123.729 207.364 120.403 208.192 117.224C208.421 117.178 208.645 117.111 208.862 117.023V117.023ZM232.584 90.4167H239.75V97.5833H232.584V104.75H225.417V97.5833H218.25V90.4167H225.417V83.25H232.584V90.4167Z" fill="#E56464"/>
<path fill-rule="evenodd" clip-rule="evenodd" d="M224.879 166.358L203.487 151.333C203.487 151.333 164.5 163.492 164.5 178.09V201.5H293.5V178.09C293.5 163.492 254.517 151.333 254.517 151.333L233.117 166.358C231.911 167.205 230.473 167.659 229 167.659C227.526 167.659 226.089 167.205 224.883 166.358H224.879ZM257.667 165.667H264.833V172.833H272V180H264.833V187.167H257.667V180H250.5V172.833H257.667V165.667Z" fill="#C69C6D"/>
<defs>
<linearGradient id="paint0_linear_526_6374" x1="109.424" y1="199.434" x2="109.424" y2="215.455" gradientUnits="userSpaceOnUse">
<stop stop-color="#A9BECE"/>
<stop offset="1" stop-color="white"/>
</linearGradient>
<linearGradient id="paint1_linear_526_6374" x1="64.8546" y1="199.434" x2="64.8546" y2="215.455" gradientUnits="userSpaceOnUse">
<stop stop-color="#A9BECE"/>
<stop offset="1" stop-color="white"/>
</linearGradient>
<radialGradient id="paint2_radial_526_6374" cx="0" cy="0" r="1" gradientUnits="userSpaceOnUse" gradientTransform="translate(88.0986 255.751) scale(72.5039 72.5039)">
<stop stop-color="#ADC1D0"/>
<stop offset="0.7951" stop-color="#D9E7F2"/>
</radialGradient>
</defs>
</svg>
