<svg width="24" height="24" viewBox="0 0 24 24" fill="none" xmlns="http://www.w3.org/2000/svg">
<path fill-rule="evenodd" clip-rule="evenodd" d="M24 12C24 5.3731 18.6268 0 12 0C5.3731 0 0 5.3731 0 12C0 17.989 4.38762 22.9537 10.1252 23.855V15.4696H7.07748V12H10.1252V9.35562C10.1252 6.34842 11.9173 4.68622 14.6579 4.68622C15.9707 4.68622 17.3443 4.92077 17.3443 4.92077V7.87398H15.8307C14.3406 7.87398 13.8748 8.79875 13.8748 9.7488V11.9999H17.2025L16.671 15.4695H13.8747V23.8548C19.6123 22.9553 23.9998 17.9907 23.9998 11.9999L24 12Z" fill="#1977F3"/>
<path fill-rule="evenodd" clip-rule="evenodd" d="M16.6706 15.4695L17.2022 11.9999H13.8745V9.74879C13.8745 8.8004 14.3385 7.87397 15.8303 7.87397H17.3441V4.92075C17.3441 4.92075 15.9705 4.68619 14.6575 4.68619C11.917 4.68619 10.1249 6.34675 10.1249 9.3556V12H7.07715V15.4696H10.1249V23.855C10.7357 23.951 11.3618 24 11.9997 24C12.6376 24 13.2636 23.9493 13.8745 23.855V15.4696H16.6707L16.6706 15.4695Z" fill="#FEFEFE"/>
</svg>
