<svg width="24" height="24" viewBox="0 0 24 24" fill="none" xmlns="http://www.w3.org/2000/svg">
<path d="M12.0106 5.88552C11.7995 5.88552 11.5908 5.89629 11.3851 5.91735C11.1795 5.93842 10.9766 5.96964 10.7773 6.0106C10.5779 6.05159 10.3821 6.10234 10.1902 6.16224L9.62688 6.36905L9.0906 6.628L8.58453 6.93594L8.11168 7.28962L7.67535 7.68597L7.27861 8.12192L6.92455 8.59424L6.61623 9.09984L6.35713 9.6355C6.27925 9.81872 6.20996 10.0066 6.15 10.1983C6.09003 10.3901 6.03928 10.5858 5.99821 10.785C5.95716 10.9841 5.92595 11.1867 5.9048 11.3922C5.88366 11.5977 5.87305 11.8063 5.87305 12.0171C5.87305 12.2279 5.88381 12.4364 5.9048 12.6419C5.92568 12.8458 5.95685 13.0485 5.99821 13.2493C6.03928 13.4492 6.09003 13.6441 6.15 13.8359C6.20996 14.0277 6.27916 14.2154 6.35713 14.3987L6.61623 14.9344L6.92455 15.4399L7.27861 15.9123L7.67535 16.3483L8.11168 16.7447L8.58453 17.0983L9.0906 17.4062L9.62688 17.6652L10.1902 17.872L10.7773 18.0237C10.9782 18.065 11.1811 18.0962 11.3851 18.117C11.5929 18.1382 11.8017 18.1488 12.0106 18.1487C12.2216 18.1487 12.4304 18.138 12.636 18.117C12.8401 18.0962 13.0429 18.065 13.2439 18.0237L13.831 17.872L14.3943 17.6652L14.9305 17.4062L15.4367 17.0983L15.9095 16.7447L16.3459 16.3483L16.7427 15.9123L17.0967 15.4399L17.4051 14.9344L17.6642 14.3987L17.8712 13.8359C17.9312 13.6441 17.9821 13.4484 18.0231 13.2493L18.1164 12.6419C18.1376 12.4363 18.1482 12.2278 18.1482 12.017C18.1482 11.8062 18.1376 11.5977 18.1164 11.3921C18.0956 11.1883 18.0644 10.9856 18.0231 10.7849C17.9821 10.585 17.9312 10.3901 17.8712 10.1982L17.6642 9.63544L17.4051 9.09975L17.0967 8.59415L16.7427 8.12184L16.3459 7.68589L15.9095 7.28954L15.4367 6.93587L14.9305 6.62794L14.3943 6.36899L13.831 6.16215L13.2439 6.01054L12.636 5.91727C12.4282 5.89605 12.2195 5.88542 12.0106 5.88544V5.88552ZM12.0106 8.0019C12.1501 8.0019 12.2878 8.00882 12.4235 8.0225L12.8233 8.08302L13.2095 8.18142L13.5793 8.31575L13.9309 8.48414L14.2615 8.68442L14.5706 8.91485L14.8556 9.17334L15.1143 9.45797L15.3449 9.76675L15.5455 10.0978L15.7138 10.4492C15.7644 10.5695 15.8093 10.6927 15.8484 10.8187C15.8874 10.9447 15.9203 11.0735 15.9468 11.2047C15.9733 11.3359 15.9929 11.4693 16.0073 11.6049L16.0279 12.0175C16.0279 12.1569 16.021 12.2945 16.0073 12.4301C15.9936 12.5657 15.9735 12.6992 15.9468 12.8303C15.9201 12.9614 15.8872 13.0902 15.8484 13.2163L15.7138 13.5858L15.5455 13.9372L15.3449 14.2682L15.1143 14.577L14.8556 14.8616L14.5706 15.1201L14.2615 15.3506L13.9309 15.5509L13.5793 15.7192L13.2095 15.8536L12.8233 15.952L12.4235 16.0124C12.2863 16.0262 12.1484 16.033 12.0105 16.033C11.8726 16.033 11.7347 16.0262 11.5975 16.0124L11.1977 15.952C11.0664 15.9254 10.9376 15.8925 10.8114 15.8536L10.4416 15.7192L10.09 15.5509L9.75936 15.3506L9.45028 15.1201L9.16533 14.8616L8.90661 14.577L8.67595 14.2682L8.47543 13.9372L8.30705 13.5858L8.1725 13.2163L8.07408 12.8303L8.01358 12.4301C7.99981 12.293 7.99293 12.1553 7.99296 12.0175C7.99293 11.8797 7.99981 11.742 8.01358 11.6049C8.02718 11.4693 8.0474 11.3358 8.07408 11.2047C8.1005 11.0745 8.13336 10.9457 8.17258 10.8188L8.30713 10.4493L8.47551 10.0979L8.67603 9.76684L8.90668 9.45805L9.16541 9.17342L9.45035 8.91492L9.75943 8.6845L10.09 8.4842L10.4416 8.31582C10.5627 8.265 10.6861 8.22017 10.8115 8.1815L11.1978 8.08309C11.3291 8.05649 11.4627 8.03619 11.5976 8.02259C11.7349 8.00884 11.8727 8.00195 12.0107 8.00197L12.0106 8.0019Z" fill="url(#paint0_radial_526_6703)"/>
<path d="M18.397 4.1413C18.3484 4.1413 18.2997 4.14376 18.2512 4.14868C18.2027 4.15358 18.1545 4.16091 18.1067 4.17066C18.059 4.18041 18.0117 4.19255 17.9652 4.20703C17.9185 4.22153 17.8729 4.23836 17.8279 4.25746C17.783 4.2766 17.7392 4.29798 17.6964 4.32151C17.6535 4.34501 17.612 4.37065 17.5719 4.39833C17.5315 4.42603 17.4927 4.45575 17.4555 4.48736C17.4182 4.51895 17.3825 4.55238 17.3485 4.58755C17.3147 4.62273 17.2825 4.65961 17.2522 4.69803C17.2219 4.73646 17.1935 4.77638 17.1672 4.81766C17.1409 4.85891 17.1167 4.90146 17.0945 4.94515C17.0725 4.98886 17.0525 5.03366 17.0349 5.0794C17.0172 5.1251 17.0019 5.17168 16.9887 5.21893C16.9757 5.2662 16.965 5.31408 16.9569 5.36241C16.9485 5.41073 16.9427 5.45943 16.9392 5.50835C16.9367 5.54298 16.9355 5.57771 16.9355 5.61245C16.9355 5.66151 16.9379 5.71055 16.9429 5.75938C16.9477 5.80818 16.955 5.8567 16.9647 5.90476C16.9744 5.95283 16.9864 6.00038 17.0007 6.04723C17.0152 6.0941 17.0319 6.14021 17.0509 6.1854C17.0699 6.2306 17.091 6.27481 17.1145 6.31788C17.1379 6.36093 17.1634 6.40278 17.1909 6.44328C17.2184 6.48375 17.2479 6.5228 17.2792 6.5603C17.3107 6.59783 17.3439 6.63376 17.3789 6.66795C17.4139 6.70211 17.4504 6.7345 17.4887 6.76498C17.5269 6.79548 17.5665 6.82403 17.6075 6.85055C17.6485 6.87706 17.6909 6.9015 17.7342 6.92375C17.7777 6.94601 17.8222 6.96608 17.8675 6.98386C17.913 7.00165 17.9592 7.01711 18.0062 7.03023C18.0532 7.04333 18.1007 7.05406 18.1487 7.06236C18.1967 7.07071 18.2452 7.07665 18.2937 7.08013C18.3282 7.0826 18.3627 7.08381 18.3972 7.08383C18.4459 7.08383 18.4947 7.0814 18.5432 7.07651C18.5915 7.07161 18.6399 7.06428 18.6875 7.05453C18.7354 7.0448 18.7825 7.03265 18.8292 7.01816C18.8757 7.00366 18.9215 6.98683 18.9664 6.96773C19.0112 6.94861 19.0552 6.92726 19.0979 6.90375C19.1407 6.88023 19.1822 6.85456 19.2225 6.82686C19.2627 6.79918 19.3015 6.7695 19.3389 6.73791C19.376 6.7063 19.4117 6.67285 19.4457 6.63765C19.4797 6.60246 19.5119 6.56558 19.542 6.52716C19.5724 6.48873 19.6007 6.44881 19.627 6.40753C19.6534 6.36626 19.6777 6.32368 19.6997 6.27998C19.7219 6.23625 19.7419 6.19145 19.7595 6.14573C19.7772 6.10001 19.7925 6.05345 19.8055 6.00618C19.8185 5.95893 19.8292 5.91105 19.8375 5.86271C19.8459 5.8144 19.8517 5.76568 19.855 5.71678C19.8575 5.68213 19.8589 5.64741 19.8589 5.61268C19.8589 5.56363 19.8564 5.51461 19.8515 5.46581C19.8467 5.41701 19.8394 5.3685 19.8297 5.32043C19.82 5.27236 19.8079 5.22481 19.7935 5.17796C19.779 5.1311 19.7624 5.08498 19.7434 5.0398C19.7244 4.9946 19.7032 4.95038 19.6799 4.90731C19.6565 4.86426 19.631 4.82241 19.6035 4.78191C19.5759 4.74141 19.5464 4.70235 19.515 4.66481C19.4835 4.6273 19.4504 4.59136 19.4155 4.55718C19.3805 4.52301 19.3439 4.49063 19.3057 4.46015C19.2675 4.42966 19.2279 4.40113 19.1869 4.37465C19.1459 4.34813 19.1035 4.3237 19.06 4.30145C19.0165 4.27918 18.972 4.25911 18.9267 4.24133C18.8814 4.22355 18.835 4.20808 18.788 4.19496C18.7412 4.18183 18.6935 4.17108 18.6455 4.16275C18.5975 4.15443 18.5492 4.14851 18.5005 4.14506C18.466 4.1426 18.4315 4.14138 18.397 4.14138V4.1413Z" fill="url(#paint1_radial_526_6703)"/>
<path d="M10.8465 0.021708C10.1789 0.0206315 9.58323 0.0233992 9.0481 0.030934L7.6134 0.0693773C7.18836 0.08783 6.81285 0.111894 6.47578 0.143033C6.30725 0.158564 6.14825 0.17594 5.99755 0.195085C5.85413 0.21316 5.71113 0.234207 5.5686 0.25821C5.43288 0.281277 5.3041 0.306187 5.18061 0.33325C5.05715 0.360315 4.9392 0.389532 4.8254 0.420902C4.71416 0.451577 4.60378 0.485319 4.49441 0.522085C4.38723 0.558222 4.28266 0.596512 4.1794 0.637415C3.97288 0.719224 3.77145 0.811023 3.564 0.913898C3.40438 0.993092 3.25691 1.07328 3.11683 1.15817C2.97675 1.24305 2.84403 1.3327 2.7141 1.43035C2.58028 1.5314 2.4513 1.6387 2.3276 1.75189C2.19826 1.86968 2.06618 1.99923 1.92893 2.14401C1.75648 2.32493 1.60662 2.49361 1.47361 2.65914C1.4071 2.74188 1.34482 2.82369 1.28616 2.90596C1.22814 2.98703 1.17268 3.06991 1.11985 3.15444C1.06757 3.23826 1.01806 3.32361 0.970693 3.41141C0.922593 3.50073 0.877133 3.59144 0.834373 3.68343C0.746877 3.87134 0.665223 4.07371 0.583723 4.29961C0.523262 4.46659 0.46912 4.63583 0.421415 4.80689C0.372747 4.98174 0.32946 5.16466 0.290862 5.36248C0.252265 5.56031 0.218588 5.77306 0.188987 6.00833C0.157089 6.26623 0.131606 6.52488 0.112562 6.78404C0.0910337 7.06898 0.073196 7.38253 0.0585875 7.73151L0.0239887 8.89189L0.00538203 10.3064L0 12.0161L0.0157617 14.5024L0.0649692 16.3861L0.102874 17.1218L0.150237 17.7317C0.165419 17.896 0.184415 18.0598 0.20721 18.2233C0.227968 18.3685 0.250267 18.4955 0.274255 18.6055C0.32293 18.829 0.380487 19.0505 0.446788 19.2695C0.510272 19.4792 0.58287 19.6858 0.664376 19.8892C0.744493 20.0883 0.832143 20.2803 0.927483 20.4652C1.02282 20.65 1.12585 20.8277 1.23657 20.9983C1.34728 21.1688 1.46569 21.3325 1.59209 21.4892C1.71835 21.6458 1.85265 21.7957 1.99445 21.9385C2.13645 22.0815 2.28623 22.2175 2.44408 22.3468C2.60378 22.4777 2.76981 22.6007 2.94153 22.7152C3.10091 22.8217 3.25861 22.9193 3.41746 23.0088C3.5763 23.0985 3.73653 23.1797 3.90123 23.2537C4.06591 23.3275 4.23476 23.394 4.41115 23.4538C4.58751 23.5137 4.77128 23.5668 4.9655 23.614C5.15971 23.6613 5.3653 23.7027 5.5829 23.7388C5.80048 23.775 6.03306 23.806 6.28156 23.8327C6.53006 23.8593 6.79516 23.8813 7.08003 23.8998C7.3649 23.9183 7.66936 23.933 7.99651 23.9448C8.5019 23.9632 9.26691 23.9738 10.1491 23.978L13.0051 23.9722L15.7095 23.9343L16.7378 23.9053L17.4076 23.871C17.5515 23.8592 17.6921 23.8453 17.828 23.8292C17.9638 23.813 18.0976 23.7945 18.2281 23.7733C18.3585 23.7523 18.486 23.7288 18.6111 23.7027C18.735 23.6768 18.8581 23.648 18.9805 23.6163C19.1016 23.5855 19.2211 23.5505 19.3395 23.5133C19.4576 23.4763 19.5748 23.4362 19.6911 23.393C19.8081 23.3497 19.924 23.3035 20.0388 23.2547C20.1543 23.2053 20.2696 23.1528 20.3855 23.097C20.5633 23.0113 20.7065 22.9398 20.8321 22.8702C20.9505 22.8053 21.0643 22.7328 21.1731 22.653C21.2805 22.574 21.3871 22.484 21.5101 22.3707C21.6331 22.2573 21.7726 22.1208 21.9451 21.9482C22.097 21.7965 22.2248 21.6647 22.3351 21.5448C22.4455 21.425 22.5385 21.3172 22.62 21.2132C22.6976 21.1145 22.77 21.0118 22.8368 20.9055C22.902 20.8017 22.962 20.6938 23.023 20.5743C23.115 20.3945 23.1968 20.2278 23.27 20.067C23.3411 19.9122 23.4061 19.7543 23.4648 19.5943C23.5226 19.4355 23.5728 19.274 23.615 19.1103C23.6583 18.942 23.6956 18.7642 23.728 18.5692C23.7601 18.3742 23.7875 18.162 23.8111 17.925C23.8348 17.6882 23.855 17.4262 23.8726 17.132L23.9196 16.1442L23.9598 14.9158L23.9886 13.5472L23.9996 12.1162L23.974 9.30561L23.9396 8.04674L23.8928 6.96588L23.8343 6.12319C23.8131 5.88869 23.7901 5.70401 23.766 5.57914C23.739 5.44118 23.709 5.30386 23.6758 5.16726C23.6435 5.03436 23.608 4.90226 23.5693 4.77108C23.5316 4.64326 23.4906 4.51643 23.4465 4.39071C23.4028 4.26654 23.3565 4.14498 23.308 4.02604C23.2596 3.90709 23.2071 3.79093 23.1526 3.67721C23.098 3.56349 23.0408 3.45254 22.9808 3.34413C22.9206 3.23573 22.8581 3.13001 22.7926 3.02689C22.7273 2.92379 22.6591 2.82329 22.5881 2.72549C22.5176 2.62801 22.444 2.53276 22.3675 2.43986C22.2913 2.34749 22.2123 2.25754 22.1305 2.17014C22.0488 2.08288 21.9643 1.99821 21.8773 1.91628C21.7901 1.83431 21.7005 1.75496 21.608 1.67823C21.515 1.60124 21.4198 1.52717 21.3221 1.4561C21.2236 1.38432 21.123 1.31555 21.0201 1.2499C20.916 1.18331 20.81 1.11982 20.702 1.05952C20.5923 0.998214 20.4806 0.940062 20.3676 0.885144C20.1798 0.793879 20.0061 0.712919 19.8358 0.641107C19.6681 0.569837 19.4973 0.506539 19.3238 0.451427C19.1493 0.396452 18.9676 0.349322 18.7678 0.308648C18.5678 0.267975 18.3498 0.234068 18.1031 0.205235C17.8565 0.176403 17.581 0.153107 17.2658 0.133732C16.9508 0.114356 16.5964 0.0991317 16.1917 0.0868298L14.8165 0.0560757L13.076 0.035547L10.8472 0.0218605L10.8465 0.021708ZM12.004 2.13624L15.2181 2.15454L16.4306 2.17791C16.7645 2.18729 17.0193 2.19829 17.1686 2.21098C17.3633 2.22736 17.5485 2.24788 17.7258 2.27249C17.8958 2.29598 18.0651 2.32518 18.2331 2.36006C18.3946 2.39389 18.5486 2.43233 18.6961 2.47569C18.8435 2.51906 18.9843 2.56766 19.1193 2.62139C19.2545 2.67514 19.3836 2.73426 19.508 2.79901C19.6313 2.86326 19.7511 2.93396 19.867 3.01083C19.9823 3.08733 20.0935 3.16976 20.2015 3.25856C20.3093 3.34736 20.414 3.44254 20.5161 3.54434C20.6241 3.65176 20.7236 3.76116 20.8153 3.87403C20.9066 3.98621 20.9913 4.10378 21.0685 4.22609C21.1466 4.35016 21.217 4.47894 21.2793 4.61168C21.343 4.74701 21.4001 4.89001 21.4515 5.04201C21.503 5.19403 21.5486 5.35556 21.5891 5.52818C21.6316 5.71118 21.6671 5.89571 21.6958 6.08138C21.7265 6.27821 21.7528 6.48811 21.7751 6.71284C21.7973 6.93758 21.8158 7.17724 21.831 7.43366C21.8431 7.63933 21.8538 7.91074 21.8628 8.23128L21.8853 9.32423L21.9025 12.0014L21.883 14.6761L21.8595 15.7659L21.827 16.5585C21.8046 16.9297 21.781 17.2417 21.7526 17.5132C21.7385 17.649 21.723 17.7747 21.706 17.8925C21.69 18.0038 21.671 18.1147 21.6491 18.225C21.6291 18.3257 21.606 18.4257 21.5795 18.525C21.5543 18.6195 21.5258 18.7133 21.4943 18.8062C21.4625 18.8993 21.428 18.9915 21.3906 19.0825C21.3511 19.1788 21.3095 19.274 21.2656 19.3683C21.2266 19.4525 21.1856 19.5345 21.1423 19.6142C21.0995 19.6932 21.0538 19.7705 21.0058 19.8463C20.9581 19.9215 20.9081 19.9945 20.8558 20.0652C20.8038 20.1355 20.7493 20.204 20.6923 20.2705C20.6356 20.3368 20.5765 20.4008 20.515 20.4628C20.4535 20.5247 20.3896 20.5843 20.3235 20.642C20.2575 20.6997 20.1888 20.7552 20.1178 20.8085C20.047 20.8618 19.9735 20.913 19.8976 20.962C19.8216 21.0112 19.7435 21.0582 19.6626 21.1032C19.5818 21.148 19.4985 21.1908 19.4128 21.2317C19.3255 21.2732 19.2371 21.312 19.1475 21.3482C19.055 21.3855 18.9615 21.4202 18.867 21.4523C18.6746 21.5178 18.472 21.5753 18.2585 21.6248C18.0361 21.6763 17.8116 21.7183 17.5856 21.7508C17.4986 21.7635 17.299 21.7755 17.013 21.7865L15.9231 21.8168L12.833 21.857L9.59868 21.862L8.32851 21.8485L7.50375 21.8228L6.89558 21.78C6.70675 21.7642 6.53113 21.7465 6.3666 21.7263C6.20206 21.7063 6.04883 21.684 5.90466 21.6587C5.76805 21.6352 5.63226 21.6068 5.49755 21.5742C5.37471 21.5443 5.25313 21.5095 5.13311 21.4698C5.0174 21.4313 4.90675 21.389 4.79911 21.3425C4.69146 21.296 4.5869 21.245 4.48333 21.1893C4.37976 21.1337 4.27728 21.0733 4.17363 21.0073C4.09545 20.9577 4.01986 20.9073 3.94713 20.8542C3.8744 20.8008 3.80411 20.7477 3.73646 20.692C3.6688 20.6363 3.60383 20.579 3.54116 20.52C3.47891 20.4612 3.41881 20.4002 3.36095 20.3372C3.30328 20.2742 3.24815 20.2095 3.19525 20.1425C3.14215 20.0752 3.09155 20.0058 3.04356 19.9348C2.99485 19.8627 2.94876 19.7888 2.9054 19.7135C2.86156 19.6373 2.8199 19.5587 2.7803 19.4773C2.74003 19.3947 2.70246 19.3107 2.66766 19.2255C2.6323 19.1387 2.59876 19.0492 2.56725 18.9568C2.5042 18.7718 2.44885 18.575 2.40071 18.3652C2.35258 18.1553 2.31151 17.9323 2.27676 17.6947C2.24201 17.4572 2.21403 17.2052 2.19173 16.9375C2.17528 16.7403 2.16221 16.4332 2.15221 16.0456L2.1313 14.6675L2.13898 11.1541L2.1995 7.79694L2.24563 6.61413L2.27176 6.22314C2.28085 6.11874 2.29023 6.04139 2.29983 5.99494C2.33151 5.84218 2.36341 5.70001 2.3964 5.56693C2.42721 5.44136 2.4615 5.31669 2.4992 5.19303C2.53503 5.07631 2.57278 4.96698 2.61315 4.86341C2.65206 4.76308 2.69545 4.66454 2.74316 4.56809C2.78975 4.47429 2.83981 4.38448 2.89416 4.29706C2.94853 4.20964 3.0072 4.12484 3.07116 4.04049C3.13513 3.95614 3.20401 3.87288 3.27898 3.78846C3.35395 3.70404 3.43491 3.61878 3.52271 3.53089C3.62505 3.42798 3.7316 3.32934 3.8421 3.23526C3.94645 3.14649 4.05525 3.06311 4.1681 2.98546C4.27905 2.90856 4.39285 2.84014 4.51133 2.77724C4.62981 2.71436 4.75298 2.65753 4.88253 2.60641C5.01208 2.55528 5.14818 2.50953 5.29233 2.46801C5.4438 2.42553 5.59693 2.38928 5.75135 2.35936C5.91373 2.32754 6.0862 2.29978 6.27033 2.27556C6.45448 2.25134 6.65038 2.23043 6.85983 2.21228C7.00591 2.19968 7.25763 2.18844 7.5891 2.17899L8.79545 2.15516L12.0045 2.13554L12.004 2.13624Z" fill="url(#paint2_radial_526_6703)"/>
<defs>
<radialGradient id="paint0_radial_526_6703" cx="0" cy="0" r="1" gradientUnits="userSpaceOnUse" gradientTransform="translate(3.82378 25.7243) rotate(-9.53101) scale(50.723 30.7885)">
<stop stop-color="#FED576"/>
<stop offset="0.263" stop-color="#F47133"/>
<stop offset="0.609" stop-color="#BC3081"/>
<stop offset="1" stop-color="#4C63D2"/>
</radialGradient>
<radialGradient id="paint1_radial_526_6703" cx="0" cy="0" r="1" gradientUnits="userSpaceOnUse" gradientTransform="translate(3.82381 25.7243) rotate(-9.53102) scale(50.723 30.7885)">
<stop stop-color="#FED576"/>
<stop offset="0.263" stop-color="#F47133"/>
<stop offset="0.609" stop-color="#BC3081"/>
<stop offset="1" stop-color="#4C63D2"/>
</radialGradient>
<radialGradient id="paint2_radial_526_6703" cx="0" cy="0" r="1" gradientUnits="userSpaceOnUse" gradientTransform="translate(3.82357 25.7243) rotate(-9.53101) scale(50.723 30.7885)">
<stop stop-color="#FED576"/>
<stop offset="0.263" stop-color="#F47133"/>
<stop offset="0.609" stop-color="#BC3081"/>
<stop offset="1" stop-color="#4C63D2"/>
</radialGradient>
</defs>
</svg>
