<svg width="22" height="22" viewBox="0 0 22 22" fill="none" xmlns="http://www.w3.org/2000/svg">
<path d="M20.1288 12.5755V19.3396H16.2073V13.0284C16.2073 11.4425 15.6398 10.3609 14.2208 10.3609C13.1373 10.3609 12.492 11.0905 12.2088 11.7954C12.1052 12.0475 12.0786 12.3986 12.0786 12.7515V19.3396H8.15526C8.15526 19.3396 8.20842 8.65127 8.15526 7.54302H12.0786V9.21502L12.0529 9.25352H12.0786V9.21502C12.5993 8.41293 13.5297 7.26618 15.6133 7.26618C18.1937 7.26618 20.1288 8.95285 20.1288 12.5755V12.5755ZM4.05226 1.85693C2.71117 1.85693 1.83301 2.73693 1.83301 3.89468C1.83301 5.02677 2.68551 5.93335 4.00092 5.93335H4.02659C5.39517 5.93335 6.24492 5.02677 6.24492 3.89468C6.22109 2.73693 5.39609 1.85693 4.05317 1.85693H4.05226ZM2.06584 19.3396H5.98734V7.54302H2.06584V19.3396Z" fill="white"/>
</svg>
