<svg width="23" height="23" viewBox="0 0 23 23" fill="none" xmlns="http://www.w3.org/2000/svg">
<path d="M17.3115 9.2269C17.3115 7.59637 16.6637 6.03262 15.5108 4.87966C14.3578 3.7267 12.7941 3.07897 11.1635 3.07897C9.53302 3.07897 7.96927 3.7267 6.81631 4.87966C5.66335 6.03262 5.01562 7.59637 5.01562 9.2269C5.01562 11.7489 7.03351 15.036 11.1635 18.9734C15.2936 15.036 17.3115 11.7489 17.3115 9.2269ZM11.1635 20.8397C6.15367 16.2861 3.64941 12.4143 3.64941 9.2269C3.64941 7.23403 4.44108 5.32278 5.85025 3.91361C7.25943 2.50443 9.17068 1.71277 11.1635 1.71277C13.1564 1.71277 15.0677 2.50443 16.4768 3.91361C17.886 5.32278 18.6777 7.23403 18.6777 9.2269C18.6777 12.4143 16.1734 16.2861 11.1635 20.8397Z" fill="#EE2B00"/>
<path d="M11.1636 11.2762C11.7071 11.2762 12.2283 11.0603 12.6126 10.676C12.997 10.2917 13.2129 9.77043 13.2129 9.22692C13.2129 8.68341 12.997 8.16216 12.6126 7.77784C12.2283 7.39352 11.7071 7.17761 11.1636 7.17761C10.6201 7.17761 10.0988 7.39352 9.71448 7.77784C9.33016 8.16216 9.11425 8.68341 9.11425 9.22692C9.11425 9.77043 9.33016 10.2917 9.71448 10.676C10.0988 11.0603 10.6201 11.2762 11.1636 11.2762ZM11.1636 12.6424C10.2577 12.6424 9.38896 12.2826 8.74843 11.6421C8.10789 11.0015 7.74805 10.1328 7.74805 9.22692C7.74805 8.32107 8.10789 7.45232 8.74843 6.81178C9.38896 6.17125 10.2577 5.8114 11.1636 5.8114C12.0694 5.8114 12.9382 6.17125 13.5787 6.81178C14.2192 7.45232 14.5791 8.32107 14.5791 9.22692C14.5791 10.1328 14.2192 11.0015 13.5787 11.6421C12.9382 12.2826 12.0694 12.6424 11.1636 12.6424Z" fill="#EE2B00"/>
</svg>
