<svg width="32" height="32" viewBox="0 0 32 32" fill="none" xmlns="http://www.w3.org/2000/svg">
<g opacity="0.68">
<path d="M24.6491 31.5023C24.3502 31.5014 24.0522 31.4687 23.7602 31.4045C18.2017 30.2546 13.0807 27.5586 8.98687 23.6267C4.98035 19.6862 2.20162 14.669 0.986866 9.18227C0.843632 8.49846 0.878787 7.78929 1.08895 7.12299C1.29911 6.4567 1.67721 5.8557 2.18687 5.37782L5.74242 1.9556C5.92403 1.78386 6.13981 1.65234 6.37568 1.56963C6.61155 1.48692 6.86222 1.45488 7.11131 1.4756C7.36959 1.50255 7.61883 1.58575 7.84151 1.71935C8.06418 1.85296 8.25488 2.03372 8.4002 2.24893L12.8446 8.81782C13.0113 9.07271 13.0918 9.37436 13.0742 9.67839C13.0566 9.98242 12.9418 10.2728 12.7469 10.5067L10.5158 13.1734C11.4043 15.14 12.6627 16.9174 14.2224 18.4089C15.772 19.9545 17.6036 21.1887 19.618 22.0445L22.3824 19.8489C22.6146 19.6654 22.8971 19.557 23.1925 19.5379C23.4878 19.5188 23.7819 19.5901 24.0358 19.7423L30.7469 24.08C30.9772 24.2176 31.1734 24.4054 31.3208 24.6295C31.4682 24.8536 31.563 25.1082 31.598 25.3741C31.6331 25.64 31.6075 25.9104 31.5232 26.1651C31.4389 26.4197 31.2981 26.652 31.1113 26.8445L27.6446 30.2756C27.2509 30.6675 26.7835 30.9776 26.2694 31.1881C25.7553 31.3986 25.2046 31.5054 24.6491 31.5023V31.5023ZM6.96909 3.2356L3.41353 6.65782C3.12682 6.92498 2.91459 7.26216 2.7977 7.63621C2.68081 8.01026 2.66329 8.40829 2.74687 8.79116C3.8764 13.9397 6.47284 18.651 10.2224 22.3556C14.075 26.0548 18.8941 28.5906 24.1246 29.6712C24.5206 29.7539 24.9308 29.7372 25.3187 29.6224C25.7065 29.5076 26.0598 29.2983 26.3469 29.0134L29.8135 25.5823L23.3335 21.3956L20.3646 23.76C20.251 23.85 20.1171 23.9108 19.9745 23.9371C19.832 23.9635 19.6852 23.9546 19.5469 23.9112C17.0817 23.0029 14.8477 21.5611 13.0046 19.6889C11.0983 17.9087 9.61853 15.7209 8.67576 13.2889C8.63587 13.1417 8.63455 12.9867 8.67191 12.8388C8.70927 12.6909 8.78406 12.5551 8.88909 12.4445L11.2891 9.57338L6.96909 3.2356Z" fill="white"/>
</g>
</svg>
