<svg width="22" height="22" viewBox="0 0 22 22" fill="none" xmlns="http://www.w3.org/2000/svg">
<rect width="22" height="22" rx="6" fill="#432564"/>
<path d="M15.9999 17.5H15.9149C6.08988 16.935 4.69488 8.645 4.49988 6.115C4.48417 5.91829 4.50742 5.72041 4.56832 5.53271C4.62921 5.345 4.72654 5.17115 4.85474 5.02113C4.98293 4.8711 5.13947 4.74784 5.31538 4.65842C5.4913 4.569 5.68313 4.51516 5.87988 4.5H8.63488C8.83516 4.49981 9.03088 4.55976 9.1967 4.67208C9.36251 4.78441 9.49078 4.94394 9.56488 5.13L10.3249 7C10.3981 7.18177 10.4162 7.38104 10.3771 7.57305C10.338 7.76505 10.2433 7.94134 10.1049 8.08L9.03988 9.155C9.20624 10.1004 9.65897 10.9718 10.3368 11.6515C11.0147 12.3311 11.8849 12.7862 12.8299 12.955L13.9149 11.88C14.0556 11.7431 14.2336 11.6506 14.4265 11.6142C14.6195 11.5777 14.8189 11.5989 14.9999 11.675L16.8849 12.43C17.0681 12.5064 17.2245 12.6357 17.334 12.8013C17.4435 12.967 17.5013 13.1614 17.4999 13.36V16C17.4999 16.3978 17.3418 16.7794 17.0605 17.0607C16.7792 17.342 16.3977 17.5 15.9999 17.5ZM5.99988 5.5C5.86727 5.5 5.74009 5.55268 5.64633 5.64645C5.55256 5.74022 5.49988 5.86739 5.49988 6V6.04C5.72988 9 7.20488 16 15.9699 16.5C16.0356 16.5041 16.1014 16.4951 16.1636 16.4737C16.2259 16.4522 16.2832 16.4187 16.3325 16.375C16.3817 16.3314 16.4218 16.2784 16.4506 16.2192C16.4793 16.16 16.4961 16.0957 16.4999 16.03V13.36L14.6149 12.605L13.1799 14.03L12.9399 14C8.58988 13.455 7.99988 9.105 7.99988 9.06L7.96988 8.82L9.38988 7.385L8.63988 5.5H5.99988Z" fill="white"/>
</svg>
