<svg width="32" height="32" viewBox="0 0 32 32" fill="none" xmlns="http://www.w3.org/2000/svg">
<circle cx="16" cy="16" r="16" fill="white"/>
<path fill-rule="evenodd" clip-rule="evenodd" d="M15.6898 11.3151C15.7305 11.2743 15.7787 11.242 15.8319 11.2199C15.885 11.1979 15.942 11.1865 15.9996 11.1865C16.0571 11.1865 16.1141 11.1979 16.1673 11.2199C16.2204 11.242 16.2687 11.2743 16.3093 11.3151L21.5593 16.5651C21.6415 16.6472 21.6876 16.7586 21.6876 16.8748C21.6876 16.991 21.6415 17.1024 21.5593 17.1846C21.4772 17.2667 21.3658 17.3129 21.2496 17.3129C21.1334 17.3129 21.022 17.2667 20.9398 17.1846L15.9996 12.2434L11.0593 17.1846C10.9772 17.2667 10.8658 17.3129 10.7496 17.3129C10.6334 17.3129 10.522 17.2667 10.4398 17.1846C10.3577 17.1024 10.3115 16.991 10.3115 16.8748C10.3115 16.7586 10.3577 16.6472 10.4398 16.5651L15.6898 11.3151V11.3151Z" fill="#432564"/>
<path fill-rule="evenodd" clip-rule="evenodd" d="M15.6898 14.8151C15.7305 14.7743 15.7787 14.742 15.8319 14.7199C15.885 14.6979 15.942 14.6865 15.9996 14.6865C16.0571 14.6865 16.1141 14.6979 16.1673 14.7199C16.2204 14.742 16.2687 14.7743 16.3093 14.8151L21.5593 20.0651C21.6415 20.1472 21.6876 20.2586 21.6876 20.3748C21.6876 20.491 21.6415 20.6024 21.5593 20.6846C21.4772 20.7667 21.3658 20.8129 21.2496 20.8129C21.1334 20.8129 21.022 20.7667 20.9398 20.6846L15.9996 15.7434L11.0593 20.6846C10.9772 20.7667 10.8658 20.8129 10.7496 20.8129C10.6334 20.8129 10.522 20.7667 10.4398 20.6846C10.3577 20.6024 10.3115 20.491 10.3115 20.3748C10.3115 20.2586 10.3577 20.1472 10.4398 20.0651L15.6898 14.8151V14.8151Z" fill="#432564"/>
</svg>
