<svg width="24" height="20" viewBox="0 0 24 20" fill="none" xmlns="http://www.w3.org/2000/svg">
<path d="M21.3646 4.93701C21.3791 5.14589 21.3791 5.35476 21.3791 5.56556C21.3791 11.9888 16.4892 19.3966 7.54791 19.3966V19.3928C4.90663 19.3966 2.32021 18.6401 0.0966797 17.2136C0.480743 17.2598 0.866733 17.2829 1.25369 17.2838C3.44256 17.2857 5.56887 16.5513 7.29091 15.199C5.2108 15.1594 3.38673 13.8033 2.74951 11.8232C3.47818 11.9637 4.22898 11.9349 4.94417 11.7395C2.67636 11.2813 1.04481 9.28877 1.04481 6.97476C1.04481 6.95358 1.04481 6.93337 1.04481 6.91316C1.72053 7.28953 2.47711 7.49839 3.25101 7.52149C1.11508 6.09401 0.456679 3.25252 1.74653 1.03091C4.21454 4.06781 7.85593 5.91401 11.7649 6.10942C11.3731 4.42108 11.9083 2.65188 13.1712 1.46503C15.1291 -0.375398 18.2084 -0.281067 20.0487 1.67583C21.1375 1.46118 22.1809 1.06171 23.1357 0.495724C22.7729 1.62097 22.0133 2.5768 20.9988 3.18418C21.9623 3.07058 22.9038 2.81263 23.7903 2.41893C23.1376 3.3969 22.3156 4.24877 21.3646 4.93701Z" fill="#1D9BF0"/>
</svg>
