<svg width="36" height="36" viewBox="0 0 36 36" fill="none" xmlns="http://www.w3.org/2000/svg">
<g opacity="0.68">
<path d="M19.4014 18H12.2854M19.4621 18C20.6556 18 21.8002 18.4741 22.6441 19.318C23.488 20.1619 23.9621 21.3065 23.9621 22.5C23.9621 23.6935 23.488 24.8381 22.6441 25.682C21.8002 26.5259 20.6556 27 19.4621 27H12.0371V9H19.4621C20.6556 9 21.8002 9.47411 22.6441 10.318C23.488 11.1619 23.9621 12.3065 23.9621 13.5C23.9621 14.6935 23.488 15.8381 22.6441 16.682C21.8002 17.5259 20.6556 18 19.4621 18V18Z" stroke="white" stroke-linecap="round" stroke-linejoin="round"/>
<path d="M17.9997 1.875C15.1983 1.87709 12.4457 2.60842 10.0126 3.99704C7.57953 5.38566 5.54987 7.38374 4.12325 9.79472C2.69664 12.2057 1.92223 14.9465 1.8762 17.7476C1.83017 20.5487 2.51411 23.3134 3.86073 25.77L1.87473 34.125L10.2297 32.139C12.3851 33.3229 14.7826 33.9982 17.239 34.1133C19.6954 34.2285 22.1456 33.7804 24.4022 32.8033C26.6589 31.8262 28.6622 30.3461 30.2591 28.476C31.8559 26.6059 33.004 24.3955 33.6155 22.0136C34.227 19.6318 34.2858 17.1417 33.7873 14.7336C33.2888 12.3256 32.2463 10.0635 30.7394 8.12015C29.2325 6.17685 27.3012 4.60385 25.0932 3.52143C22.8851 2.43902 20.4588 1.87585 17.9997 1.875V1.875Z" stroke="white" stroke-linecap="round" stroke-linejoin="round"/>
</g>
</svg>
