<svg width="10" height="12" viewBox="0 0 10 12" fill="none" xmlns="http://www.w3.org/2000/svg">
<path fill-rule="evenodd" clip-rule="evenodd" d="M0.190055 0.440056C0.230695 0.399313 0.278974 0.366988 0.332126 0.344932C0.385278 0.322876 0.442259 0.311523 0.499806 0.311523C0.557352 0.311523 0.614333 0.322876 0.667485 0.344932C0.720637 0.366988 0.768916 0.399313 0.809556 0.440056L6.05956 5.69006C6.1003 5.7307 6.13262 5.77897 6.15468 5.83213C6.17673 5.88528 6.18809 5.94226 6.18809 5.99981C6.18809 6.05735 6.17673 6.11433 6.15468 6.16748C6.13262 6.22064 6.1003 6.26892 6.05956 6.30956L0.809556 11.5596C0.727405 11.6417 0.615984 11.6879 0.499806 11.6879C0.383627 11.6879 0.272206 11.6417 0.190055 11.5596C0.107905 11.4774 0.0617529 11.366 0.0617529 11.2498C0.0617529 11.1336 0.107905 11.0222 0.190055 10.9401L5.13118 5.99981L0.190055 1.05956C0.149313 1.01892 0.116988 0.970637 0.0949321 0.917485C0.0728764 0.864333 0.0615234 0.807352 0.0615234 0.749806C0.0615234 0.692259 0.0728764 0.635278 0.0949321 0.582126C0.116988 0.528974 0.149313 0.480696 0.190055 0.440056Z" fill="white"/>
<path fill-rule="evenodd" clip-rule="evenodd" d="M3.69006 0.440056C3.7307 0.399313 3.77897 0.366988 3.83213 0.344932C3.88528 0.322876 3.94226 0.311523 3.99981 0.311523C4.05735 0.311523 4.11433 0.322876 4.16748 0.344932C4.22064 0.366988 4.26892 0.399313 4.30956 0.440056L9.55956 5.69006C9.6003 5.7307 9.63262 5.77897 9.65468 5.83213C9.67673 5.88528 9.68809 5.94226 9.68809 5.99981C9.68809 6.05735 9.67673 6.11433 9.65468 6.16748C9.63262 6.22064 9.6003 6.26892 9.55956 6.30956L4.30956 11.5596C4.2274 11.6417 4.11598 11.6879 3.99981 11.6879C3.88363 11.6879 3.77221 11.6417 3.69006 11.5596C3.6079 11.4774 3.56175 11.366 3.56175 11.2498C3.56175 11.1336 3.6079 11.0222 3.69006 10.9401L8.63118 5.99981L3.69006 1.05956C3.64931 1.01892 3.61699 0.970637 3.59493 0.917485C3.57288 0.864333 3.56152 0.807352 3.56152 0.749806C3.56152 0.692259 3.57288 0.635278 3.59493 0.582126C3.61699 0.528974 3.64931 0.480696 3.69006 0.440056Z" fill="white"/>
</svg>
