<svg width="22" height="22" viewBox="0 0 22 22" fill="none" xmlns="http://www.w3.org/2000/svg">
<rect width="22" height="22" rx="6" fill="#432564"/>
<path d="M4.25 8.79275V14.375C4.25 14.9717 4.48705 15.544 4.90901 15.966C5.33097 16.3879 5.90326 16.625 6.5 16.625H15.5C16.0967 16.625 16.669 16.3879 17.091 15.966C17.5129 15.544 17.75 14.9717 17.75 14.375V7.625C17.75 7.02826 17.5129 6.45597 17.091 6.03401C16.669 5.61205 16.0967 5.375 15.5 5.375H6.5C5.90326 5.375 5.33097 5.61205 4.90901 6.03401C4.48705 6.45597 4.25 7.02826 4.25 7.625V8.79275ZM6.5 6.5H15.5C15.7984 6.5 16.0845 6.61853 16.2955 6.82951C16.5065 7.04048 16.625 7.32663 16.625 7.625V8.4575L11 11.486L5.375 8.4575V7.625C5.375 7.32663 5.49353 7.04048 5.7045 6.82951C5.91548 6.61853 6.20163 6.5 6.5 6.5V6.5ZM5.375 9.7355L10.7334 12.62C10.8153 12.6641 10.9069 12.6872 11 12.6872C11.0931 12.6872 11.1847 12.6641 11.2666 12.62L16.625 9.7355V14.375C16.625 14.6734 16.5065 14.9595 16.2955 15.1705C16.0845 15.3815 15.7984 15.5 15.5 15.5H6.5C6.20163 15.5 5.91548 15.3815 5.7045 15.1705C5.49353 14.9595 5.375 14.6734 5.375 14.375V9.7355Z" fill="white"/>
</svg>
